<svg height="384pt" viewBox="1 1 384 384.589" width="384pt" xmlns="http://www.w3.org/2000/svg" xmlns:xlink="http://www.w3.org/1999/xlink"><linearGradient id="a" gradientTransform="matrix(1.001069 0 0 -1.001069 .2945 377.697604)" gradientUnits="userSpaceOnUse" x1="-4.3674" x2="391.0975" y1="185" y2="185"><stop offset="0" stop-color="#bc4e9c"/><stop offset="1" stop-color="#f80759"/></linearGradient><path d="m359.628906 295.167969c-5.484375.015625-10.8125 1.800781-15.195312 5.089843l-26.183594-18.699218c7.371094-10.308594 13.445312-21.488282 18.078125-33.28125l.113281-.273438c1.492188-3.847656 2.847656-7.835937 4.042969-11.878906v-.015625c.195313-.640625.375-1.28125.558594-1.925781v-.023438l.003906-.011718c1.191406-4.246094 2.1875-8.617188 3.011719-12.996094.066406-.160156.050781-.355469.105468-.523438.054688-.285156.125-.5625.171876-.847656v-.003906l.011718-.046875c.101563-.351563.175782-.710938.214844-1.074219l-.015625-.085938c.671875-3.941406 1.183594-7.871093 1.539063-11.707031.011718-.105469.035156-.210937.042968-.320312l.050782-.65625c.414062-4.644531.613281-9.023438.613281-13.386719-.046875-36.300781-12.910157-71.421875-36.320313-99.167969l32.0625-44.394531c3.339844 1.566406 6.984375 2.382812 10.675782 2.398438 14.171874 0 25.664062-11.492188 25.664062-25.667969s-11.488281-25.667969-25.664062-25.667969c-14.175782 0-25.667969 11.492188-25.667969 25.667969.015625 5.453125 1.78125 10.757812 5.042969 15.128906l-30.957032 42.863281c-19.226562-19.296875-43.242187-33.132812-69.578125-40.09375h-.007812c-9.707031-2.539062-19.640625-4.128906-29.65625-4.738281-3.175781-.199219-6.371094-.328125-9.59375-.328125-85.011719.097656-153.902344 68.988281-154 154 0 2.789062.082031 5.554688.226562 8.285156l.058594.765625.023437.328125v.003906l.003907.0625c.007812.148438.019531.296876.027343.441407.011719.175781.03125.347656.042969.519531.109375 1.625.25 3.328125.4375 5.15625.035157.359375.050781.722656.089844 1.078125v.019531l.027344.082032.027343.300781h-.003906.003906l.011719.097656-.003906.023437c.292969 2.628907.667969 5.269532 1.101563 7.910157.101562.613281.234374 1.207031.34375 1.816406.320312 1.804687.632812 3.613281 1.015624 5.40625.039063.191406.082032.386719.125.582031l.015626.0625.003906.023438v.007812c1.890625 8.664063 4.527344 17.148438 7.882812 25.355469.085938.199219.179688.398437.28125.589844 7.894532 18.808593 19.453125 35.859375 33.996094 50.164062h-52.15625c-17.714844 0-32.082031 14.367188-32.082031 32.085938s14.367187 32.082031 32.085937 32.082031h118.707032c1.769531 0 3.207031 1.4375 3.207031 3.207031.011719 8.855469 7.1875 16.03125 16.042969 16.042969h60.960937c3.542969 0 6.414063-2.875 6.414063-6.417969s-2.871094-6.414062-6.414063-6.414062h-60.960937c-1.769532-.003907-3.207032-1.4375-3.207032-3.210938-.011718-8.855469-7.1875-16.03125-16.042968-16.042969h-118.707032c-10.632812 0-19.25-8.617187-19.25-19.246093 0-10.632813 8.617188-19.25 19.25-19.25h66.789063c26.820312 20.722656 59.734375 32.003906 93.625 32.082031 3.222656 0 6.417969-.128906 9.59375-.328125 10.015625-.609375 19.945312-2.199219 29.652343-4.738281h.011719c30.632813-8.058594 58.003907-25.433594 78.324219-49.726563l25.941406 18.527344c-1.539062 3.320313-2.34375 6.9375-2.355468 10.597656 0 14.175781 11.488281 25.667969 25.664062 25.667969s25.667969-11.492188 25.667969-25.667969-11.488281-25.664062-25.664063-25.664062zm-51.804687-21.054688-67.011719-47.867187c-.085938-.449219-.210938-.878906-.292969-1.332032-.082031-.476562-.144531-.957031-.226562-1.433593-.796875-4.792969-1.441407-9.648438-1.867188-14.5625-.023437-.292969-.035156-.589844-.058593-.886719-.417969-5.125-.65625-10.304688-.65625-15.53125 0-4.808594.246093-9.632812.617187-14.445312.113281-1.433594.28125-2.859376.425781-4.289063.191406-1.910156.480469-3.800781.730469-5.699219 37.648437 12.992188 68.128906 41.167969 84.035156 77.679688-4.125 10.023437-9.390625 19.542968-15.695312 28.367187zm25.984375-88.175781c-10.761719-23.277344-27.179688-43.484375-47.761719-58.785156l16.660156-23.070313c18.773438 23.304688 29.664063 51.964844 31.101563 81.855469zm6.570312-160.269531c-.074218-7.164063 5.671875-13.027344 12.832032-13.097657 7.160156-.074218 13.023437 5.671876 13.097656 12.832032.070312 7.160156-5.675782 13.023437-12.835938 13.097656-1.058594.011719-2.113281-.109375-3.144531-.355469l1.664063-2.304687c2.074218-2.871094 1.429687-6.882813-1.441407-8.957032-2.875-2.074218-6.882812-1.425781-8.957031 1.445313l-.652344.898437c-.355468-1.152343-.546875-2.351562-.5625-3.558593zm-46.375 68.550781-18.554687 25.695312c-5.746094-3.648437-11.722657-6.910156-17.898438-9.769531.597657-1.132812 1.164063-2.292969 1.785157-3.402343.546874-.976563 1.09375-1.960938 1.660156-2.921876 1.707031-2.886718 3.484375-5.703124 5.347656-8.421874.210938-.304688.398438-.628907.605469-.929688 2.082031-2.976562 4.28125-5.824219 6.550781-8.589844.648438-.789062 1.324219-1.546875 1.988281-2.320312.957031-1.109375 1.964844-2.15625 2.949219-3.230469 5.527344 4.238281 10.726562 8.882813 15.566406 13.890625zm-28.398437-18.851562c-.785157.917968-1.5625 1.839843-2.328125 2.777343-2.03125 2.488281-3.992188 5.058594-5.878906 7.703125-.425782.59375-.875 1.160156-1.292969 1.761719-2.25 3.246094-4.378907 6.621094-6.414063 10.089844-.519531.890625-1.007812 1.8125-1.515625 2.71875-.902343 1.609375-1.835937 3.183593-2.695312 4.835937-6.648438-2.363281-13.453125-4.265625-20.367188-5.691406.246094-.382812.503907-.753906.75-1.136719 1.644531-2.519531 3.347657-4.972656 5.121094-7.351562.40625-.550781.804687-1.113281 1.21875-1.65625 2.035156-2.65625 4.148437-5.210938 6.339844-7.664063.488281-.546875.984375-1.074218 1.476562-1.609375 2.058594-2.238281 4.167969-4.394531 6.339844-6.441406.28125-.269531.554687-.554687.835937-.816406 2.398438-2.21875 4.867188-4.285157 7.386719-6.257813.277344-.21875.554688-.425781.832031-.636718 4.199219 2.082031 8.296876 4.375 12.289063 6.878906-.726563.804687-1.390625 1.671875-2.097656 2.496094zm-24.523438-14.191407c-2.4375 2.140625-4.832031 4.363281-7.148437 6.714844-.164063.167969-.335938.316406-.5.484375-2.4375 2.5-4.773438 5.140625-7.0625 7.855469-.585938.699219-1.164063 1.402343-1.742188 2.113281-2.148437 2.648438-4.242187 5.363281-6.238281 8.1875-.113281.164062-.238281.316406-.351563.480469-2.082031 2.972656-4.046874 6.070312-5.941406 9.222656-.230468.386719-.496094.738281-.722656 1.121094-5.808594-.714844-11.65625-1.085938-17.507812-1.105469-1.679688 0-3.378907.035156-5.125.109375 1.019531-1.511719 2.046874-3.015625 3.109374-4.472656.367188-.5.714844-1.027344 1.089844-1.523438 1.726563-2.304687 3.511719-4.53125 5.355469-6.679687.53125-.625 1.085937-1.207032 1.628906-1.816406 1.347657-1.523438 2.714844-3.015626 4.117188-4.457032.710937-.726562 1.4375-1.433594 2.160156-2.140625 1.316406-1.289062 2.65625-2.539062 4.015625-3.75.734375-.65625 1.464844-1.3125 2.210938-1.945312 1.5625-1.328125 3.160156-2.59375 4.773437-3.824219.546875-.417969 1.082031-.859375 1.632813-1.265625 2.179687-1.601563 4.40625-3.109375 6.671874-4.53125.480469-.300781.976563-.566406 1.457032-.855469 1.417968-.855468 2.855468-1.652344 4.300781-2.4375 3.640625 1.035156 7.261719 2.21875 10.839844 3.558594-.351563.300781-.675781.648438-1.023438.957031zm-29.242187-7.449219c-.691406.5-1.371094 1.023438-2.050782 1.539063-1.761718 1.332031-3.488281 2.710937-5.191406 4.140625-.652344.554688-1.316406 1.09375-1.960937 1.660156-2.234375 1.953125-4.429688 3.972656-6.558594 6.097656-.175781.179688-.339844.367188-.515625.546876-1.953125 1.972656-3.851562 4.03125-5.710938 6.148437-.625.710937-1.230468 1.4375-1.84375 2.164063-1.46875 1.742187-2.90625 3.527343-4.3125 5.359374-.546874.714844-1.105468 1.414063-1.644531 2.144532-1.851562 2.503906-3.660156 5.074218-5.390625 7.734375-.21875.335937-.417968.6875-.636718 1.027343-1.164063 1.820313-2.320313 3.652344-3.425782 5.542969-9.238281 1.269531-18.34375 3.371094-27.203125 6.289063 1.195313-2.039063 2.40625-4.058594 3.671875-6.007813.511719-.78125.984375-1.609375 1.507813-2.378906 2.203125-3.25 4.511719-6.363281 6.917969-9.34375.546874-.679687 1.136718-1.296875 1.695312-1.960937 1.894531-2.25 3.828125-4.441407 5.832031-6.523438.894531-.929688 1.820313-1.804688 2.738281-2.699219 1.765626-1.722656 3.5625-3.390625 5.40625-4.980469 1.007813-.871093 2.027344-1.726562 3.058594-2.558593 1.898438-1.527344 3.839844-2.964844 5.808594-4.351563.992188-.703125 1.976562-1.429687 2.988281-2.09375 2.441407-1.601562 4.941407-3.070312 7.480469-4.449218.566406-.308594 1.113281-.671876 1.683594-.96875 2.921875-1.519532 5.921875-2.84375 8.957031-4.0625 3.328125.238281 6.640625.59375 9.925781 1.0625-.417968.296874-.816406.625-1.226562.921874zm-36.84375-1.277343c-2.671875 1.867187-5.273438 3.867187-7.820313 5.964843-.5.40625-.972656.859376-1.464843 1.277344-2.519532 2.132813-4.972657 4.378906-7.355469 6.734375-.769531.757813-1.535157 1.519531-2.289063 2.296875-2.621094 2.707032-5.179687 5.507813-7.621094 8.472656-.144531.171876-.296874.328126-.433593.5-2.5625 3.136719-4.992188 6.453126-7.34375 9.863282-.628907.914062-1.238281 1.847656-1.851563 2.78125-1.875 2.84375-3.675781 5.773437-5.402344 8.789062-.441406.773438-.90625 1.523438-1.335937 2.304688-1.820313 3.308594-3.570313 6.683594-5.203125 10.179687-33.972656 16.449219-60.742188 44.777344-75.238281 79.625.71875-70.566406 53.367187-129.796875 123.359375-138.789062zm-119.777344 171.53125c14.40625-76.5 88.101562-126.839844 164.601562-112.433594 17.070313 3.214844 33.398438 9.554687 48.160157 18.703125l-9.804688 13.578125c-2.074219 2.871094-1.425781 6.882813 1.445313 8.957031 2.871094 2.074219 6.882812 1.425782 8.957031-1.445312l10.007813-13.855469c26.6875 19.957031 45.417968 48.746094 52.84375 81.234375-.613282 3.25-1.371094 6.417969-2.183594 9.535156-19.898438-36.394531-53.527344-63.320312-93.394532-74.769531l-.019531-.003906c-12.722656-3.597657-25.859375-5.546875-39.082031-5.789063l-1.003906-.046875c-.621094-.03125-1.246094-.0625-1.878906-.0625-12.878907.019531-25.703126 1.648438-38.175782 4.851563l-.015625.003906c-15.015625 3.835938-29.363281 9.933594-42.542969 18.085938-23.820312 14.753906-43.21875 35.667968-56.140624 60.527343-.660157-2.324219-1.234376-4.691406-1.773438-7.070312zm66.84375 90.4375h6.566406c3.542969 0 6.417969-2.875 6.417969-6.417969s-2.875-6.417969-6.417969-6.417969h-25c-17.558594-14.273437-31.441406-32.550781-40.484375-53.292969 9.765625-23.710937 25.753907-44.34375 46.269531-59.71875-.023437 1.320313-.035156 2.628907-.035156 3.929688 0 4.105469.148438 8.171875.390625 12.210938.074219 1.300781.210938 2.578124.308594 3.867187.21875 2.746094.46875 5.480469.792969 8.1875.175781 1.46875.382812 2.917969.589844 4.375.363281 2.535156.769531 5.050781 1.222656 7.546875.265625 1.433594.527344 2.867188.820312 4.289062.53125 2.59375 1.132813 5.148438 1.765625 7.695313.304688 1.226563.585938 2.464844.914063 3.679687.902344 3.328126 1.882812 6.605469 2.953125 9.835938.121093.375.226562.765625.351562 1.144531 1.214844 3.601563 2.550781 7.125 3.96875 10.59375.414063 1.015625.875 1.996094 1.308594 2.996094 1.046875 2.429687 2.121094 4.832031 3.269531 7.1875.578125 1.195313 1.1875 2.363281 1.792969 3.535156 1.097656 2.128907 2.230469 4.21875 3.402344 6.277344.667969 1.164063 1.335937 2.320313 2.027343 3.460937 1.25 2.066407 2.550782 4.085938 3.882813 6.074219.671875 1.003907 1.324219 2.027344 2.015625 3.007813 1.675781 2.386718 3.421875 4.695312 5.214844 6.957031.398437.5.765625 1.03125 1.167968 1.527344 2.21875 2.722656 4.515626 5.339843 6.902344 7.859375.648438.6875 1.335938 1.324218 1.996094 1.996094 1.765625 1.796874 3.554688 3.554687 5.402344 5.234374.910156.832032 1.847656 1.621094 2.777344 2.421876 1.679687 1.445312 3.386718 2.847656 5.128906 4.199218 1.011718.785156 2.035156 1.554688 3.066406 2.308594.691406.503906 1.351562 1.054688 2.050781 1.539062-18.632812-2.449218-36.585937-8.601562-52.800781-18.089843zm81.058594 18.839843c-1.332032-.535156-2.628906-1.160156-3.9375-1.753906-1.457032-.660156-2.933594-1.277344-4.359375-2.011718-1.457031-.75-2.863281-1.609376-4.289063-2.433594-1.390625-.800782-2.800781-1.558594-4.15625-2.429688-1.402344-.894531-2.746094-1.894531-4.109375-2.859375-1.320312-.933593-2.664062-1.824219-3.953125-2.820312-1.324218-1.023438-2.585937-2.152344-3.875-3.242188-1.257812-1.0625-2.539062-2.085937-3.757812-3.207031-1.253906-1.152344-2.441406-2.402344-3.652344-3.617188-1.179688-1.179687-2.386719-2.316406-3.527344-3.554687-1.179687-1.273437-2.285156-2.640625-3.421875-3.96875-1.097656-1.289063-2.226562-2.535156-3.285156-3.875-1.089844-1.382813-2.109375-2.855469-3.160156-4.292969-1.011719-1.386718-2.0625-2.738281-3.035157-4.175781-1.011718-1.496094-1.941406-3.074219-2.90625-4.621094-.921874-1.472656-1.878906-2.90625-2.753906-4.421875-.921875-1.601562-1.761718-3.28125-2.636718-4.925781-.824219-1.550781-1.6875-3.066406-2.464844-4.65625-.828125-1.695313-1.5625-3.457031-2.339844-5.191406-.722656-1.621094-1.492188-3.210938-2.167969-4.867188-.738281-1.800781-1.371093-3.664062-2.050781-5.503906-.613281-1.664063-1.277344-3.296875-1.84375-4.992187-.640625-1.921876-1.179688-3.90625-1.757812-5.867188-.492188-1.671875-1.039063-3.316406-1.488282-5.011719-.546875-2.078125-.980468-4.210937-1.457031-6.324219-.367187-1.636718-.792969-3.242187-1.113281-4.894531-.449219-2.28125-.773438-4.609375-1.132813-6.921875-.238281-1.535156-.542969-3.046875-.742187-4.59375-.339844-2.613281-.546875-5.265625-.773438-7.914062-.109375-1.285156-.289062-2.554688-.371094-3.847656-.257812-3.957032-.390624-7.941407-.390624-11.960938 0-4.164062.257812-8.480469.546874-12.789062 8.445313-4.949219 17.386719-8.996094 26.679688-12.078126-.066406.515626-.085938 1.035157-.144531 1.550782-.359375 3.042968-.648438 6.089844-.863281 9.148437-.074219 1.035157-.148438 2.066407-.207032 3.105469-.203125 3.6875-.34375 7.378906-.34375 11.0625 0 3.890625.125 7.75.34375 11.582031.070313 1.261719.207032 2.503907.300782 3.757813.195312 2.566406.398437 5.125.6875 7.660156.167968 1.460938.390624 2.90625.589843 4.359375.3125 2.292969.640625 4.582031 1.03125 6.84375.261719 1.519531.5625 3.015625.859375 4.519531.425782 2.167969.875 4.320313 1.375 6.457032.351563 1.507812.722656 3 1.109375 4.488281.542969 2.101562 1.121094 4.183593 1.734375 6.246093.429688 1.453126.863282 2.902344 1.324219 4.335938.671875 2.078125 1.390625 4.121094 2.128906 6.160156.492188 1.355469.972657 2.71875 1.492188 4.054688.824219 2.113281 1.710937 4.183594 2.605469 6.246094.523437 1.199218 1.019531 2.414062 1.5625 3.597656 1.085937 2.355468 2.25 4.648437 3.429687 6.929687.429687.828125.820313 1.679688 1.261719 2.496094 1.660156 3.082031 3.402344 6.089844 5.230468 9.023437.3125.503907.660157.972657.980469 1.472657 1.53125 2.390625 3.097657 4.746093 4.742188 7.03125.6875.957031 1.421875 1.863281 2.128906 2.800781 1.332031 1.765625 2.671875 3.519531 4.074219 5.210938.84375 1.019531 1.722656 1.996093 2.59375 2.988281 1.335937 1.53125 2.683594 3.042969 4.078125 4.503906.945312.992187 1.914062 1.949219 2.886719 2.910156 1.390624 1.375 2.800781 2.722657 4.242187 4.027344 1.019531.929687 2.054687 1.835937 3.101563 2.726563 1.46875 1.25 2.96875 2.457031 4.484374 3.636718 1.074219.835938 2.148438 1.667969 3.246094 2.464844.519532.378906 1.011719.796875 1.535156 1.167969-3.28125.46875-6.59375.816406-9.917968 1.058593zm28.152344-4.921874c-1.089844-.589844-2.164063-1.210938-3.234376-1.835938-1.242187-.730469-2.496093-1.441406-3.710937-2.222656-1.378906-.882813-2.710937-1.839844-4.054687-2.785156-1.183594-.835938-2.382813-1.65625-3.539063-2.539063-1.308594-1-2.570313-2.070313-3.839844-3.128906-1.125-.941407-2.265625-1.859375-3.363281-2.847657-1.226562-1.105468-2.40625-2.277343-3.597656-3.441406-1.066406-1.039062-2.148438-2.058594-3.183594-3.144531-1.148438-1.203125-2.246094-2.476563-3.351562-3.734375-1.003907-1.132812-2.023438-2.246094-2.988282-3.417969-1.074218-1.308593-2.089844-2.679687-3.121094-4.035156-.925781-1.214844-1.875-2.410156-2.765624-3.664063-.992188-1.394531-1.921876-2.855468-2.867188-4.296874-.855469-1.300782-1.730469-2.578126-2.550781-3.910157-.902344-1.480469-1.742188-3.019531-2.601563-4.542969-.777344-1.375-1.578125-2.722656-2.320312-4.128906-.820313-1.570312-1.574219-3.199218-2.347656-4.8125-.691407-1.429687-1.410157-2.835937-2.0625-4.296875-.734376-1.65625-1.398438-3.367187-2.082032-5.058593-.601562-1.484376-1.238281-2.941407-1.800781-4.453126-.652344-1.746093-1.21875-3.550781-1.816406-5.332031-.507813-1.511719-1.050781-3-1.519531-4.535156-.558594-1.851563-1.035157-3.746094-1.539063-5.628906-.410156-1.527344-.863281-3.035157-1.234375-4.585938-.464844-1.957031-.839844-3.957031-1.246094-5.949219-.3125-1.519531-.667968-3.015624-.941406-4.554687-.371094-2.09375-.640625-4.234375-.941406-6.359375-.210938-1.472656-.46875-2.925781-.644532-4.410156-.277343-2.355469-.441406-4.746094-.628906-7.125-.105468-1.292969-.261718-2.570313-.339844-3.871094-.214843-3.699219-.324218-7.429688-.328124-11.1875 0-5.140625.257812-10.300781.683593-15.449219.140625-1.691406.398438-3.371093.585938-5.058593.300781-2.714844.660156-5.421876 1.078125-8.121094 8.5-1.914063 17.164062-3.039063 25.871094-3.363282-.042969.265626-.054688.535157-.097657.804688-.71875 4.554688-1.257812 9.15625-1.65625 13.785156-.085937 1-.152343 2-.226562 3.007813-.339844 4.78125-.570313 9.578125-.570313 14.394531 0 3.457031.097656 6.894531.277344 10.316406.058594 1.132813.171875 2.257813.253906 3.390625.15625 2.273438.3125 4.546875.546875 6.804688.140625 1.339843.332031 2.664062.496094 4 .253906 2.027343.503906 4.054687.820313 6.0625.21875 1.398437.480468 2.78125.726562 4.167969.34375 1.921874.691406 3.839843 1.089844 5.738281.296875 1.410156.625 2.800781.949218 4.199219.429688 1.84375.871094 3.679687 1.355469 5.503906.371094 1.402344.765625 2.792968 1.167969 4.179687.515625 1.78125 1.050781 3.554688 1.617188 5.3125.441406 1.371094.898437 2.734375 1.367187 4.089844.605469 1.738281 1.234375 3.460937 1.886719 5.167969.503906 1.328125 1.019531 2.648437 1.550781 3.957031.695313 1.699219 1.425781 3.375 2.167969 5.046875.566406 1.265625 1.125 2.53125 1.714844 3.777344.796874 1.675781 1.632812 3.320312 2.472656 4.960937.609375 1.183594 1.203125 2.375 1.839844 3.539063.90625 1.671875 1.867187 3.300781 2.828124 4.933594.632813 1.074218 1.246094 2.167968 1.898438 3.226562 1.078125 1.734375 2.214844 3.417969 3.347656 5.097656.601563.890625 1.171875 1.808594 1.789063 2.683594 1.558593 2.207031 3.179687 4.355469 4.832031 6.460938.238281.300781.453125.617187.691406.914062 1.90625 2.386719 3.875 4.695312 5.910156 6.929688.648438.71875 1.335938 1.378906 2 2.082031 1.40625 1.484375 2.8125 2.972656 4.277344 4.386719.859375.835937 1.757813 1.613281 2.636719 2.417968 1.070313.984375 2.109375 2 3.207031 2.941406-3.574218 1.332032-7.195312 2.515626-10.824218 3.546876zm24.160156-9.339844c-.675782-.519532-1.355469-1.027344-2.019532-1.5625-.996093-.800782-1.992187-1.613282-2.964843-2.453125-1.148438-.980469-2.269531-2-3.382813-3.03125-.945312-.878907-1.886718-1.761719-2.808594-2.671875-1.089843-1.070313-2.148437-2.175782-3.203124-3.292969-.890626-.949219-1.785157-1.898437-2.652344-2.878906-1.027344-1.15625-2.023438-2.347657-3.011719-3.546875-.835937-1.015625-1.671875-2.023438-2.480469-3.066406-.960937-1.234376-1.890625-2.507813-2.816406-3.785157-.78125-1.074219-1.5625-2.144531-2.316406-3.25-.894532-1.304687-1.75-2.652343-2.605469-3.996093-.722656-1.132813-1.449219-2.261719-2.144531-3.421876-.820313-1.375-1.601563-2.78125-2.382813-4.191406-.664062-1.191406-1.339843-2.378906-1.976562-3.597656-.746094-1.433594-1.449219-2.902344-2.160157-4.367188-.601562-1.246093-1.214843-2.476562-1.785156-3.742187-.679687-1.503906-1.308594-3.039063-1.949218-4.574219-.53125-1.277344-1.078126-2.542968-1.582032-3.84375-.605468-1.566406-1.15625-3.164062-1.71875-4.757812-.464844-1.3125-.949218-2.613282-1.382812-3.941406-.53125-1.625-1-3.28125-1.484375-4.933594-.394531-1.335938-.8125-2.664063-1.175781-4.015625-.453126-1.691407-.839844-3.410157-1.246094-5.121094-.316406-1.351563-.667969-2.691406-.957032-4.058594-.375-1.769531-.679687-3.570312-1.003906-5.363281-.242187-1.335938-.519531-2.65625-.730468-4.003906-.296876-1.882813-.519532-3.792969-.757813-5.695313-.164063-1.285156-.363281-2.558593-.5-3.851562-.222656-2.125-.359375-4.273438-.511719-6.421875-.074218-1.085938-.195312-2.164063-.25-3.257813-.171875-3.25-.257812-6.515625-.261718-9.800781 0-4.859375.242187-9.699219.613281-14.515625.058593-.796875.105469-1.597656.175781-2.394531.414062-4.625 1.003906-9.210938 1.761719-13.761719.0625-.367187.132812-.730469.195312-1.101563 8.394531.480469 16.730469 1.707032 24.90625 3.667969-.039062.296875-.054687.597657-.09375.898438-.554687 4.019531-.980469 8.054687-1.285156 12.105469-.066406.835937-.109375 1.664062-.164063 2.5-.265624 4.199218-.441406 8.40625-.441406 12.601562 0 5.46875.25 10.890625.683594 16.265625.03125.398437.046875.804687.082031 1.203125.167969 1.976562.402344 3.933594.628907 5.894531l-4.085938-2.921875c-2.886719-2.050781-6.894531-1.371094-8.945312 1.519532-2.042969 2.878906-1.378907 6.867187 1.488281 8.925781l14.457031 10.328125c.542969 2.5625 1.132812 5.105468 1.777344 7.625.179687.699218.347656 1.398437.535156 2.09375 1.234375 4.628906 2.636719 9.171875 4.210938 13.625.246093.707031.496093 1.410156.753906 2.109375 1.613281 4.425781 3.390625 8.746093 5.324218 12.972656.296876.652344.601563 1.289063.910157 1.933594 2 4.230469 4.15625 8.347656 6.460937 12.355469.308594.535156.632813 1.050781.945313 1.578124 2.414062 4.054688 4.960937 7.996094 7.6875 11.773438.25.351562.523437.683594.777343 1.035156 2.863282 3.894532 5.867188 7.660156 9.058594 11.226563l.070313.085937c-3.976563 2.496094-8.066407 4.785156-12.265625 6.867188zm22.933594-14.269532c-.140626-.152343-.289063-.300781-.429688-.457031-2.84375-3.125-5.539062-6.410156-8.105469-9.824219-.375-.496093-.753906-.984374-1.121093-1.488281-2.496094-3.414062-4.851563-6.960937-7.0625-10.636719-.347657-.570312-.691407-1.140624-1.03125-1.71875-2.160157-3.691406-4.179688-7.492187-6.054688-11.414062-.292969-.613281-.582031-1.230469-.867188-1.847656-1.832031-3.960938-3.519531-8.015625-5.054687-12.175782-.226563-.617187-.441406-1.238281-.660156-1.863281-.917969-2.589843-1.675781-5.273437-2.476563-7.933593l54.441406 38.886718c-6.453124 7.5625-13.6875 14.425782-21.578124 20.472656zm81.261718 28.941407c-7.039062.050781-12.78125-5.609375-12.835937-12.644531-.007813-1.03125.109375-2.054688.347656-3.054688l2.339844 1.671875c2.890625 2.050781 6.898437 1.371094 8.949219-1.519531 2.042968-2.878906 1.375-6.867188-1.492188-8.929688l-.878906-.625c1.15625-.359375 2.359375-.550781 3.566406-.566406 7.089844 0 12.835938 5.746094 12.835938 12.832031 0 7.089844-5.746094 12.835938-12.832032 12.835938zm0 0" fill="url(#a)"/></svg>