<svg xmlns="http://www.w3.org/2000/svg" xmlns:xlink="http://www.w3.org/1999/xlink" xmlns:lucid="lucid" width="1826.43" height="1386.03"><g transform="translate(-63.64233530422675 -33.973723398055014)" lucid:page-tab-id="0_0"><path d="M0 0h1884.2v1455.98H0z" fill="#fff"/><path d="M178.68 342.33l1.08 1012.2" fill="none"/><path d="M178.68 342.33v5.04m0 5.04l.02 10.08m0 5.03l.02 10.1m0 5.02v10.07m.02 5.03v10.07m.02 5.04v10.07m0 5.04l.02 10.08m0 5.03l.02 10.07m0 5.04v10.07m.02 5.04v10.07m.02 5.03v10.08m0 5.03l.02 10.07m0 5.04l.02 10.06m0 5.04l.02 10.07m0 5.04v10.08m.02 5.03V574m0 5.04l.02 10.07m0 5.03l.02 10.07m0 5.04l.02 10.07m0 5.04v10.07m.02 5.05v10.07m0 5.04l.03 10.07m0 5.04v10.07m.02 5.03v10.08m0 5.03l.02 10.07m0 5.04l.02 10.06m0 5.04v10.07m0 5.03l.02 10.08m0 5.03l.02 10.08m0 5.04v10.07m.02 5.03v10.07m.02 5.03v10.08m0 5.04l.02 10.07m0 5.05l.02 10.07m0 5.04l.02 10.07m0 5.03v10.08m.02 5.03v10.07m0 5.04l.02 10.07m0 5.04l.02 10.06m0 5.04l.02 10.07m0 5.03v10.07m.02 5.04v10.08m0 5.04l.02 10.07m0 5.03l.02 10.07m0 5.03l.02 10.07m0 5.04v10.07m.02 5.05v10.07m0 5.04l.03 10.07m0 5.03v10.08m.02 5.03v10.07m0 5.04l.02 10.07m0 5.04v10.06m.02 5.03v10.07m0 5.03l.02 10.07m0 5.04l.02 10.08m0 5.04l.02 10.07m0 5.02v10.08m.02 5.03v10.07m0 5.04l.02 10.07m0 5.05l.02 10.07m0 5.03l.02 10.08m0 5.03v10.07m.02 5.04v10.07m0 5.04l.02 10.07m0 5.04l.02 10.06m0 5.03l.02 10.06m0 5.04v10.07m.02 5.04v5.04" stroke="#666" fill="none"/><path d="M178.18 342.33h.5z" fill="#666"/><path d="M179.76 1354.54v3" stroke="#666" fill="none"/><path d="M159.75 388c0-4.42 3.6-8 8-8h24c4.42 0 8 3.58 8 8v904c0 4.42-3.58 8-8 8h-24c-4.4 0-8-3.58-8-8z" stroke="#f2f2f2" fill="#d2d3d5"/><path d="M395.04 342.33v486.9c0 1.07.87 1.94 1.94 1.94 1.07 0 1.94.87 1.94 1.94V1320" fill="none"/><path d="M395.04 342.33v5.08m0 5.08v10.14m0 5.07v10.14m0 5.07v10.15m0 5.07v10.15m0 5.07v10.14m0 5.07v10.15m0 5.07v10.14m0 5.1v10.13m0 5.07v10.14m0 5.08v10.14m0 5.07v10.15m0 5.07V530m0 5.06v10.15m0 5.08v10.14m0 5.07v10.14m0 5.07v10.15m0 5.07v10.15m0 5.07v10.14m0 5.07v10.15m0 5.07v10.14m0 5.1v10.13m0 5.07v10.14m0 5.08v10.14m0 5.07v10.15m0 5.07v10.14m0 5.06V743m0 5.08v10.14m0 5.07v10.14m0 5.07v10.15m0 5.07v10.15m0 5.07v10.14m0 5.07v5.08l.57 1.37 1.38.57 1.37.57.57 1.37v5.08m0 5.07v10.15m0 5.07v10.14m0 5.08v10.15m0 5.07v10.14m0 5.07v10.16m0 5.07v10.14m0 5.07v10.15m0 5.06v10.14m0 5.07v10.15m0 5.07v10.13m0 5.08v10.15m0 5.07v10.14m0 5.08v10.14m0 5.07v10.15m0 5.07v10.14m0 5.08v10.15m0 5.07v10.14m0 5.07v10.16m0 5.07v10.14m0 5.07v10.15m0 5.06v10.14m0 5.07v10.15m0 5.07v10.13m0 5.08v10.15m0 5.07v10.14m0 5.08v10.14m0 5.07V1249m0 5.07v10.14m0 5.08v10.15m0 5.07v10.14m0 5.07v10.16m0 5.07v5.07" stroke="#666" fill="none"/><path fill="#666"/><path d="M136.47 1328c0-4.42 3.58-8 8-8h70.57c4.42 0 8 3.58 8 8v64c0 4.42-3.58 8-8 8h-70.57c-4.42 0-8-3.58-8-8z" fill="none"/><path d="M145.12 1328l69.26 64m0-64l-69.26 64" stroke="#666" stroke-width="8" fill="none"/><path d="M375.04 408c0-4.42 3.58-8 8-8h24c4.42 0 8 3.58 8 8v844c0 4.42-3.58 8-8 8h-24c-4.42 0-8-3.58-8-8z" stroke="#f2f2f2" fill="#d2d3d5"/><path d="M665.56 58.97c0-2.76 2.24-5 5-5H1295c2.76 0 5 2.24 5 5v87.13c0 2.77-2.24 5-5 5H670.56c-2.76 0-5-2.23-5-5z" stroke="#000" stroke-opacity="0" fill="#fff" fill-opacity="0"/><use xlink:href="#a" transform="matrix(1,0,0,1,665.5639153256708,53.973723398055014) translate(75.31481481481478 55.020833333333336)"/><use xlink:href="#b" transform="matrix(1,0,0,1,665.5639153256708,53.973723398055014) translate(133.38888888888886 55.020833333333336)"/><use xlink:href="#c" transform="matrix(1,0,0,1,665.5639153256708,53.973723398055014) translate(259.0925925925926 55.020833333333336)"/><use xlink:href="#d" transform="matrix(1,0,0,1,665.5639153256708,53.973723398055014) translate(320.05555555555554 55.020833333333336)"/><use xlink:href="#e" transform="matrix(1,0,0,1,665.5639153256708,53.973723398055014) translate(453.1666666666667 55.020833333333336)"/><path d="M759.36 124.23h465.54M759.36 124.23h-3M1224.9 124.23h3" stroke="#b2b2b2" fill="none"/><path d="M740 130.2c0-2.76 2.24-5 5-5h390c2.76 0 5 2.24 5 5V155c0 2.76-2.24 5-5 5H745c-2.76 0-5-2.24-5-5z" stroke="#000" stroke-opacity="0" fill="#fff" fill-opacity="0"/><use xlink:href="#f" transform="matrix(1,0,0,1,740,125.20031890890564) translate(62.052469135802454 21.194444444444446)"/><use xlink:href="#g" transform="matrix(1,0,0,1,740,125.20031890890564) translate(96.53395061728394 21.194444444444446)"/><use xlink:href="#h" transform="matrix(1,0,0,1,740,125.20031890890564) translate(225.99074074074073 21.194444444444446)"/><use xlink:href="#i" transform="matrix(1,0,0,1,740,125.20031890890564) translate(238.65123456790124 21.194444444444446)"/><use xlink:href="#j" transform="matrix(1,0,0,1,740,125.20031890890564) translate(286.0956790123457 21.194444444444446)"/><use xlink:href="#k" transform="matrix(1,0,0,1,740,125.20031890890564) translate(303.3796296296297 21.194444444444446)"/><path d="M83.64 230.33c0-4.4 3.58-8 8-8h174.08c4.42 0 8 3.6 8 8v104c0 4.42-3.58 8-8 8H91.64c-4.42 0-8-3.58-8-8z" stroke="#000" stroke-opacity="0" fill="#ffbbb1"/><use xlink:href="#l" transform="matrix(1,0,0,1,91.64233530422675,230.3344480576411) translate(60.32098765432099 45.77777777777777)"/><use xlink:href="#m" transform="matrix(1,0,0,1,91.64233530422675,230.3344480576411) translate(16.009259259259267 64.44444444444444)"/><use xlink:href="#n" transform="matrix(1,0,0,1,91.64233530422675,230.3344480576411) translate(67.7314814814815 64.44444444444444)"/><path d="M300 230.33c0-4.4 3.58-8 8-8h174.08c4.4 0 8 3.6 8 8v104c0 4.42-3.6 8-8 8H308c-4.42 0-8-3.58-8-8z" stroke="#000" stroke-opacity="0" fill="#ffcc78"/><use xlink:href="#o" transform="matrix(1,0,0,1,308,230.3344480576925) translate(63.30246913580247 55.111111111111114)"/><path d="M1194.82 230.33c0-4.4 3.58-8 8-8h174.07c4.4 0 8 3.6 8 8v104c0 4.42-3.6 8-8 8H1202.8c-4.42 0-8-3.58-8-8z" stroke="#000" stroke-opacity="0" fill="#c1e4f7"/><use xlink:href="#p" transform="matrix(1,0,0,1,1202.819117483991,230.3344480576925) translate(36.62037037037037 55.111111111111114)"/><use xlink:href="#q" transform="matrix(1,0,0,1,1202.819117483991,230.3344480576925) translate(107.35493827160494 55.111111111111114)"/><path d="M740 230.33c0-4.4 3.58-8 8-8h174.08c4.4 0 8 3.6 8 8v104c0 4.42-3.6 8-8 8H748c-4.42 0-8-3.58-8-8z" stroke="#000" stroke-opacity="0" fill="#ffcc78"/><use xlink:href="#r" transform="matrix(1,0,0,1,748,230.3344480576925) translate(41.351851851851855 55.111111111111114)"/><path d="M960 230.33c0-4.4 3.58-8 8-8h174.08c4.4 0 8 3.6 8 8v104c0 4.42-3.6 8-8 8H968c-4.42 0-8-3.58-8-8z" stroke="#000" stroke-opacity="0" fill="#ffcc78"/><use xlink:href="#s" transform="matrix(1,0,0,1,968.0000000000001,230.3344480576925) translate(34.04938271604939 55.111111111111114)"/><path d="M1437.4 230.33c0-4.4 3.6-8 8-8h174.08c4.42 0 8 3.6 8 8v104c0 4.42-3.58 8-8 8H1445.4c-4.4 0-8-3.58-8-8z" stroke="#000" stroke-opacity="0" fill="#ffcc78"/><use xlink:href="#t" transform="matrix(1,0,0,1,1445.4095587419956,230.3344480576411) translate(27.567901234567906 55.111111111111114)"/><path d="M1680 230.33c0-4.4 3.58-8 8-8h174.08c4.4 0 8 3.6 8 8v104c0 4.42-3.6 8-8 8H1688c-4.42 0-8-3.58-8-8z" stroke="#000" stroke-opacity="0" fill="#ffcc78"/><use xlink:href="#u" transform="matrix(1,0,0,1,1688,230.3344480576411) translate(60.77469135802469 55.111111111111114)"/><path d="M835.54 1320h-1v-5h1zm0-10.03h-1v-10.02h1zm0-15.04h-1v-10.03h1zm0-15.04h-1v-10.04h1zm0-15.05h-1v-10.03h1zm0-15.04h-1v-10.02h1zm0-15.03h-1v-10.03h1zm0-15.04h-1v-10.03h1zm0-15.04h-1v-10.04h1zm0-15.06h-1v-10.02h1zm0-15.04h-1v-10.02h1zm0-15.04h-1v-10.02h1zm0-15.04h-1v-10.03h1zm0-15.04h-1v-10.03h1zm0-15.04h-1v-10.03h1zm0-15.04h-1v-10.03h1zm0-15.04h-1v-10.03h1zm0-15.04h-1v-10.03h1zm0-15.04h-1v-10.03h1zm0-15.05h-1v-10.02h1zm0-15.04h-1v-10.03h1zm0-15.05h-1v-10.02h1zm0-15.04h-1V984.1h1zm0-15.03h-1v-10.03h1zm0-15.04h-1V954h1zm0-15.04h-1v-10.04h1zm0-15.05h-1v-10.03h1zm0-15.04h-1V908.9h1zm0-15.03h-1v-10.03h1zm0-15.05h-1V878.8h1zm0-15.04h-1v-10.02h1zm0-15.04h-1v-10.02h1zm0-15.04h-1v-10.03h1zm0-15.04h-1v-10.03h1zm0-15.04h-1V803.6h1zm0-15.04h-1v-10.03h1zm0-15.04h-1V773.5h1zm0-15.04h-1v-10.03h1zm0-15.04h-1v-8.82h1zm0-30.1h-1v-10h1zm0-15.03h-1V698.3h1zm0-15.04h-1v-10.04h1zm0-15.05h-1v-10.03h1zm0-15.04h-1V653.2h1zm0-15.03h-1v-10.03h1zm0-15.04h-1V623.1h1zm0-15.04h-1v-10.04h1zm0-15.05h-1v-10.03h1zm0-15.05h-1v-10.02h1zm0-15.04h-1v-10.02h1zm0-15.04h-1V547.9h1zm0-15.04h-1v-10.03h1zm0-15.04h-1V517.8h1zm0-15.04h-1v-10.03h1zm0-15.04h-1v-10.03h1zm0-15.04h-1V472.7h1zm0-15.04h-1v-10.03h1zm0-15.04h-1V442.6h1zm0-15.05h-1v-10.03h1zm0-15.05h-1v-10.02h1zm0-15.04h-1V397.5h1zm0-15.03h-1v-10.03h1zm0-15.04h-1V367.4h1zm0-15.04h-1v-10.04h1zm0-15.05h-1v-5.02h1z" fill="#666"/><use xlink:href="#v" transform="matrix(1,0,0,1,819.6765079538123,725.9778182683568) translate(0.005000000000000782 12.444444444444446)"/><path d="M1055.04 342.33V1320" fill="none"/><path d="M1055.04 342.33v4m0 8.02v8.02m0 8v8.03m0 8v8.02m0 8.02v8m0 8.02v8.02m0 8v8.03m0 8.02v8m0 8.03v8m0 8.02v8.02m0 8v8m0 8.03v8m0 8.03v8m0 8.02v8.02m0 8v8.02m0 8.02v8m0 8.02v8.02m0 8v8.03m0 8.02v8m0 8.03v8m0 8.02v8.02m0 8v8m0 8.03v8m0 8.03v8m0 8.02V731m0 8v8.02m0 8.02v8m0 8.02v8.02m0 8v8.03m0 8.02v8m0 8.03v8m0 8.02v8.02m0 8v8.02m0 8v8.02m0 8.02v8m0 8.02v8.02m0 8v8.02m0 8.02v8m0 8.03v8m0 8.02v8m0 8.02v8m0 8.03v8m0 8.02v8.02m0 8v8.02m0 8v8.02m0 8.02v8m0 8.02v8.02m0 8v8.02m0 8.02v8m0 8.03v8m0 8.02v8m0 8.02v8m0 8.03v8m0 8.02v8.02m0 8v8.02m0 8v8.02m0 8.02v8m0 8.02v8.02m0 8v8.02m0 8.02v8m0 8.03v8m0 8.02v4" stroke="#999" stroke-width="2" fill="none"/><path fill="#999"/><path d="M1035.04 688c0-4.42 3.58-8 8-8h24c4.42 0 8 3.58 8 8v184c0 4.42-3.58 8-8 8h-24c-4.42 0-8-3.58-8-8z" stroke="#f2f2f2" fill="#d2d3d5"/><path d="M1295.04 1300v7.86c0 1.43-1.16 2.6-2.6 2.6-1.42 0-2.58 1.15-2.58 2.58v7.86" fill="none"/><path d="M1295.04 1300v7.86l-.76 1.83-1.83.75-1.83.76-.76 1.84v7.86" stroke="#999" stroke-width="2" fill="none"/><path d="M1297.15 1297.65l-1.02 2.35h-1.1l-.9-.4 1.2-2.75z" fill="#999"/><path d="M1269.86 772.46c0-4.42 3.58-8 8-8h24c4.42 0 8 3.58 8 8v84c0 4.42-3.58 8-8 8h-24c-4.42 0-8-3.58-8-8z" stroke="#f2f2f2" fill="#d2d3d5"/><path d="M1075.54 768.82h176.18" stroke="#999" stroke-width="2" fill="none"/><path d="M1075.54 769.82h-.5v-2h.5z" fill="#999"/><path d="M1267 768.82l-14.27 4.64v-9.27z" stroke="#999" stroke-width="2" fill="#999"/><use xlink:href="#w" transform="matrix(1,0,0,1,887.8306605650395,746.1552300647326) translate(0.0049999999999954525 12.444444444444446)"/><use xlink:href="#x" transform="matrix(1,0,0,1,887.8306605650395,746.1552300647326) translate(125.87537037037036 12.444444444444446)"/><use xlink:href="#y" transform="matrix(1,0,0,1,887.8306605650395,746.1552300647326) translate(250.4062345679012 12.444444444444446)"/><use xlink:href="#z" transform="matrix(1,0,0,1,887.8306605650395,746.1552300647326) translate(309.99265432098764 12.444444444444446)"/><use xlink:href="#A" transform="matrix(1,0,0,1,887.8306605650395,746.1552300647326) translate(323.3877160493827 12.444444444444446)"/><path d="M1269.36 853.1h-175.32" stroke="#999" stroke-width="2" fill="none"/><path d="M1269.86 854.1h-.5v-2h.5z" fill="#999"/><path d="M1078.77 853.1l14.27-4.63v9.27z" stroke="#999" stroke-width="2" fill="#999"/><use xlink:href="#B" transform="matrix(1,0,0,1,1137.9440913871658,857.1020072135258) translate(0.005000000000002558 12.444444444444446)"/><path d="M1034.82 873.47H874.04" stroke="#999" stroke-width="2" fill="none"/><path d="M1035.54 874.47h-.72v-2h.3z" fill="#999"/><path d="M858.77 873.47l14.27-4.64v9.27z" stroke="#999" stroke-width="2" fill="#999"/><use xlink:href="#C" transform="matrix(1,0,0,1,892.5728614199193,877.4692216225544) translate(0.005000000000002558 12.444444444444446)"/><use xlink:href="#D" transform="matrix(1,0,0,1,892.5728614199193,877.4692216225544) translate(73.33216049382716 12.444444444444446)"/><path d="M815.04 588c0-4.42 3.58-8 8-8h24c4.42 0 8 3.58 8 8v644c0 4.42-3.58 8-8 8h-24c-4.42 0-8-3.58-8-8z" stroke="#f2f2f2" fill="#d2d3d5"/><path d="M1016.04 701h-160.5v-2h160.5zM855.54 701h-.5v-2h.5zM1031.3 700l-14.26 4.64v-9.28z" fill="#999"/><path d="M1034.54 700l-18.5 6v-12zm-16.5 3.26l10.03-3.26-10.03-3.26z" fill="#999"/><use xlink:href="#E" transform="matrix(1,0,0,1,807.6332980772693,677.3333333333334) translate(0.0049999999999954525 12.444444444444446)"/><use xlink:href="#F" transform="matrix(1,0,0,1,807.6332980772693,677.3333333333334) translate(166.40623456790124 12.444444444444446)"/><path d="M1532.45 342.33V1320" fill="none"/><path d="M1532.45 342.33v4m0 8.02v8.02m0 8v8.03m0 8v8.02m0 8.02v8m0 8.02v8.02m0 8v8.03m0 8.02v8m0 8.03v8m0 8.02v8.02m0 8v8m0 8.03v8m0 8.03v8m0 8.02v8.02m0 8v8.02m0 8.02v8m0 8.02v8.02m0 8v8.03m0 8.02v8m0 8.03v8m0 8.02v8.02m0 8v8m0 8.03v8m0 8.03v8m0 8.02V731m0 8v8.02m0 8.02v8m0 8.02v8.02m0 8v8.03m0 8.02v8m0 8.03v8m0 8.02v8.02m0 8v8.02m0 8v8.02m0 8.02v8m0 8.02v8.02m0 8v8.02m0 8.02v8m0 8.03v8m0 8.02v8m0 8.02v8m0 8.03v8m0 8.02v8.02m0 8v8.02m0 8v8.02m0 8.02v8m0 8.02v8.02m0 8v8.02m0 8.02v8m0 8.03v8m0 8.02v8m0 8.02v8m0 8.03v8m0 8.02v8.02m0 8v8.02m0 8v8.02m0 8.02v8m0 8.02v8.02m0 8v8.02m0 8.02v8m0 8.03v8m0 8.02v4" stroke="#999" stroke-width="2" fill="none"/><path d="M1512.45 948c0-4.42 3.58-8 8-8h24c4.42 0 8 3.58 8 8v264c0 4.42-3.58 8-8 8h-24c-4.42 0-8-3.58-8-8z" stroke="#f2f2f2" fill="#d2d3d5"/><path d="M855.54 951.9h637.9" stroke="#999" stroke-width="2" fill="none"/><path d="M855.54 952.9h-.5v-2h.5z" fill="#999"/><path d="M1508.7 951.9l-14.25 4.63v-9.27z" stroke="#999" stroke-width="2" fill="#999"/><use xlink:href="#G" transform="matrix(1,0,0,1,1004.5726453495013,929.2293339110017) translate(0.0049999999999954525 12.444444444444446)"/><path d="M1775.04 342.33V1320" fill="none"/><path d="M1775.04 342.33v4m0 8.02v8.02m0 8v8.03m0 8v8.02m0 8.02v8m0 8.02v8.02m0 8v8.03m0 8.02v8m0 8.03v8m0 8.02v8.02m0 8v8m0 8.03v8m0 8.03v8m0 8.02v8.02m0 8v8.02m0 8.02v8m0 8.02v8.02m0 8v8.03m0 8.02v8m0 8.03v8m0 8.02v8.02m0 8v8m0 8.03v8m0 8.03v8m0 8.02V731m0 8v8.02m0 8.02v8m0 8.02v8.02m0 8v8.03m0 8.02v8m0 8.03v8m0 8.02v8.02m0 8v8.02m0 8v8.02m0 8.02v8m0 8.02v8.02m0 8v8.02m0 8.02v8m0 8.03v8m0 8.02v8m0 8.02v8m0 8.03v8m0 8.02v8.02m0 8v8.02m0 8v8.02m0 8.02v8m0 8.02v8.02m0 8v8.02m0 8.02v8m0 8.03v8m0 8.02v8m0 8.02v8m0 8.03v8m0 8.02v8.02m0 8v8.02m0 8v8.02m0 8.02v8m0 8.02v8.02m0 8v8.02m0 8.02v8m0 8.03v8m0 8.02v4" stroke="#999" stroke-width="2" fill="none"/><path d="M1755.04 988c0-4.42 3.58-8 8-8h24c4.42 0 8 3.58 8 8v84c0 4.42-3.58 8-8 8h-24c-4.42 0-8-3.58-8-8z" stroke="#f2f2f2" fill="#d2d3d5"/><path d="M1552.95 994.5h183.1" stroke="#999" stroke-width="2" fill="none"/><path d="M1552.95 995.5h-.5v-2h.5z" fill="#999"/><path d="M1751.3 994.5l-14.26 4.64v-9.27z" stroke="#999" stroke-width="2" fill="#999"/><use xlink:href="#H" transform="matrix(1,0,0,1,1548.7516576951805,971.838637022427) translate(0.0049999999999954525 12.444444444444446)"/><path d="M1754.76 1073.18h-183.3" stroke="#999" stroke-width="2" fill="none"/><path d="M1755.48 1074.18h-.72v-2h.3z" fill="#999"/><path d="M1556.18 1073.18l14.27-4.64v9.27z" stroke="#999" stroke-width="2" fill="#999"/><use xlink:href="#I" transform="matrix(1,0,0,1,1631.019659438853,1077.1761295749654) translate(0.004999999999999005 12.444444444444446)"/><path d="M1511.95 1103.13h-637.9" stroke="#999" stroke-width="2" fill="none"/><path d="M1512.45 1104.13h-.5v-2h.5z" fill="#999"/><path d="M858.77 1103.13l14.27-4.63v9.27z" stroke="#999" stroke-width="2" fill="#999"/><use xlink:href="#J" transform="matrix(1,0,0,1,1139.7763490532052,1107.1330016438346) translate(0.005000000000002558 12.444444444444446)"/><use xlink:href="#K" transform="matrix(1,0,0,1,1139.7763490532052,1107.1330016438346) translate(65.51117283950617 12.444444444444446)"/><path d="M855.54 1172.43h637.9" stroke="#999" stroke-width="2" fill="none"/><path d="M855.54 1173.43h-.5v-2h.5z" fill="#999"/><path d="M1508.7 1172.43l-14.25 4.64v-9.28z" stroke="#999" stroke-width="2" fill="#999"/><use xlink:href="#L" transform="matrix(1,0,0,1,1060.8967194235754,1149.7633147069166) translate(0.0049999999999954525 12.444444444444446)"/><path d="M1511.95 1209.9h-637.9" stroke="#999" stroke-width="2" fill="none"/><path d="M1512.45 1210.9h-.5v-2h.5z" fill="#999"/><path d="M858.77 1209.9l14.27-4.65v9.27z" stroke="#999" stroke-width="2" fill="#999"/><use xlink:href="#J" transform="matrix(1,0,0,1,1113.9152379420939,1213.8878082545286) translate(0.0049999999999954525 12.444444444444446)"/><use xlink:href="#M" transform="matrix(1,0,0,1,1113.9152379420939,1213.8878082545286) translate(65.51117283950617 12.444444444444446)"/><path d="M814.8 1233.4H434.05" stroke="#999" stroke-width="2" fill="none"/><path d="M815.52 1234.4h-.7v-2h.3z" fill="#999"/><path d="M418.77 1233.4l14.27-4.64v9.27z" stroke="#999" stroke-width="2" fill="#999"/><use xlink:href="#J" transform="matrix(1,0,0,1,545.3458245526059,1237.3909509354555) translate(0.0049999999999954525 12.444444444444446)"/><use xlink:href="#M" transform="matrix(1,0,0,1,545.3458245526059,1237.3909509354555) translate(65.51117283950617 12.444444444444446)"/><path d="M374.58 1252.28H218.76" stroke="#999" stroke-width="2" fill="none"/><path d="M375.04 1252l.26 1.28h-.72v-2h.46z" fill="#999"/><path d="M203.5 1252.28l14.26-4.64v9.27z" stroke="#999" stroke-width="2" fill="#999"/><use xlink:href="#J" transform="matrix(1,0,0,1,238.72093815194455,1256.2769629239212) translate(0.005000000000002558 12.444444444444446)"/><use xlink:href="#N" transform="matrix(1,0,0,1,238.72093815194455,1256.2769629239212) translate(65.51117283950617 12.444444444444446)"/><path d="M200.25 404.55H356.77" stroke="#999" stroke-width="2" fill="none"/><path d="M200.25 405.55h-.5v-2h.5z" fill="#999"/><path d="M372.05 404.55l-14.27 4.64v-9.28z" stroke="#999" stroke-width="2" fill="#999"/><g><use xlink:href="#O" transform="matrix(1,0,0,1,118.87826033362748,381.88632049127284) translate(0.0049999999999954525 12.444444444444446)"/></g><path d="M415.54 588.74h380.5" stroke="#999" stroke-width="2" fill="none"/><path d="M415.54 589.74h-.5v-2h.5z" fill="#999"/><path d="M811.3 588.74l-14.27 4.64v-9.27z" stroke="#999" stroke-width="2" fill="#999"/><g><use xlink:href="#P" transform="matrix(1,0,0,1,460.34626104023204,566.0782871556927) translate(0.0049999999999954525 12.444444444444446)"/></g><path d="M510 230.33c0-4.4 3.58-8 8-8h174.08c4.4 0 8 3.6 8 8v104c0 4.42-3.6 8-8 8H518c-4.42 0-8-3.58-8-8z" stroke="#000" stroke-opacity="0" fill="#99d5ca"/><g><use xlink:href="#Q" transform="matrix(1,0,0,1,518,230.3344480576411) translate(48.74074074074074 55.111111111111114)"/><use xlink:href="#R" transform="matrix(1,0,0,1,518,230.3344480576411) translate(98.73456790123457 55.111111111111114)"/></g><path d="M605.04 342.33V1320" fill="none"/><path d="M605.04 342.33v4m0 8.02v8.02m0 8v8.03m0 8v8.02m0 8.02v8m0 8.02v8.02m0 8v8.03m0 8.02v8m0 8.03v8m0 8.02v8.02m0 8v8m0 8.03v8m0 8.03v8m0 8.02v8.02m0 8v8.02m0 8.02v8m0 8.02v8.02m0 8v8.03m0 8.02v8m0 8.03v8m0 8.02v8.02m0 8v8m0 8.03v8m0 8.03v8m0 8.02V731m0 8v8.02m0 8.02v8m0 8.02v8.02m0 8v8.03m0 8.02v8m0 8.03v8m0 8.02v8.02m0 8v8.02m0 8v8.02m0 8.02v8m0 8.02v8.02m0 8v8.02m0 8.02v8m0 8.03v8m0 8.02v8m0 8.02v8m0 8.03v8m0 8.02v8.02m0 8v8.02m0 8v8.02m0 8.02v8m0 8.02v8.02m0 8v8.02m0 8.02v8m0 8.03v8m0 8.02v8m0 8.02v8m0 8.03v8m0 8.02v8.02m0 8v8.02m0 8v8.02m0 8.02v8m0 8.02v8.02m0 8v8.02m0 8.02v8m0 8.03v8m0 8.02v4" stroke="#999" stroke-width="2" fill="none"/><path d="M585.04 448c0-4.42 3.58-8 8-8h24c4.42 0 8 3.58 8 8v64c0 4.42-3.58 8-8 8h-24c-4.42 0-8-3.58-8-8z" stroke="#f2f2f2" fill="#d2d3d5"/><path d="M415.54 448.98h150.5" stroke="#999" stroke-width="2" fill="none"/><path d="M415.54 449.98h-.5v-2h.5z" fill="#999"/><path d="M581.3 448.98l-14.27 4.63v-9.26z" stroke="#999" stroke-width="2" fill="#999"/><g><use xlink:href="#S" transform="matrix(1,0,0,1,354.732063509368,426.31140359340185) translate(0.0049999999999954525 12.444444444444446)"/><use xlink:href="#T" transform="matrix(1,0,0,1,354.732063509368,426.31140359340185) translate(27.572901234567897 12.444444444444446)"/><use xlink:href="#U" transform="matrix(1,0,0,1,354.732063509368,426.31140359340185) translate(77.00500000000001 12.444444444444446)"/><use xlink:href="#V" transform="matrix(1,0,0,1,354.732063509368,426.31140359340185) translate(126.99882716049385 12.444444444444446)"/><use xlink:href="#W" transform="matrix(1,0,0,1,354.732063509368,426.31140359340185) translate(149.42475308641977 12.444444444444446)"/></g><path d="M584.94 514.04h-150.9" stroke="#999" stroke-width="2" fill="none"/><path d="M585.65 515.04h-.7v-2h.3z" fill="#999"/><path d="M418.77 514.04l14.27-4.63v9.28z" stroke="#999" stroke-width="2" fill="#999"/><g><use xlink:href="#X" transform="matrix(1,0,0,1,452.6862580523982,518.0422153800716) translate(0.005000000000002558 12.444444444444446)"/><use xlink:href="#Y" transform="matrix(1,0,0,1,452.6862580523982,518.0422153800716) translate(49.43709876543211 12.444444444444446)"/></g><path d="M720 230.33c0-4.4 3.58-8 8-8h1134.08c4.4 0 8 3.6 8 8V1292c0 4.42-3.6 8-8 8H728c-4.42 0-8-3.58-8-8z" stroke="#000" stroke-opacity="0" fill="#f5b5c8" fill-opacity=".15"/><path d="M720 170.33c0-4.4 3.58-8 8-8h224c4.42 0 8 3.6 8 8v44c0 4.42-3.58 8-8 8H728c-4.42 0-8-3.58-8-8z" stroke="#000" stroke-opacity="0" fill="#f5b5c8" fill-opacity=".28"/><g><use xlink:href="#Z" transform="matrix(1,0,0,1,720,162.3344480576925) translate(5.123180724180012 33.97593831175157)"/><use xlink:href="#aa" transform="matrix(1,0,0,1,720,162.3344480576925) translate(42.077801834993714 33.97593831175157)"/><use xlink:href="#ab" transform="matrix(1,0,0,1,720,162.3344480576925) translate(121.22096035128573 33.97593831175157)"/><use xlink:href="#ac" transform="matrix(1,0,0,1,720,162.3344480576925) translate(191.90526424993797 33.97593831175157)"/></g><defs><path fill="#b2b2b2" d="M62-158H24l-5-90h48" id="ad"/><path fill="#b2b2b2" d="M67-125c0 54 23 88 75 88 28 0 53-7 68-21v-34h-60v-39h108v91C232-14 192 4 140 4 58 4 20-42 15-125 8-236 126-280 215-234c19 10 29 26 37 47l-47 15c-11-23-29-39-63-39-53 1-75 33-75 86" id="ae"/><path fill="#b2b2b2" d="M185-48c-13 30-37 53-82 52C43 2 14-33 14-96s30-98 90-98c62 0 83 45 84 108H66c0 31 8 55 39 56 18 0 30-7 34-22zm-45-69c5-46-57-63-70-21-2 6-4 13-4 21h74" id="af"/><path fill="#b2b2b2" d="M115-3C79 11 28 4 28-45v-112H4v-33h27l15-45h31v45h36v33H77v99c-1 23 16 31 38 25v30" id="ag"/><g id="a"><use transform="matrix(0.07407407407407408,0,0,0.07407407407407408,0,0)" xlink:href="#ad"/><use transform="matrix(0.07407407407407408,0,0,0.07407407407407408,6.296296296296297,0)" xlink:href="#ae"/><use transform="matrix(0.07407407407407408,0,0,0.07407407407407408,27.03703703703704,0)" xlink:href="#af"/><use transform="matrix(0.07407407407407408,0,0,0.07407407407407408,41.85185185185187,0)" xlink:href="#ag"/></g><path fill="#b2b2b2" d="M76-208v77h127v40H76V0H24v-248h183v40H76" id="ah"/><path fill="#b2b2b2" d="M133-34C117-15 103 5 69 4 32 3 11-16 11-54c-1-60 55-63 116-61 1-26-3-47-28-47-18 1-26 9-28 27l-52-2c7-38 36-58 82-57s74 22 75 68l1 82c-1 14 12 18 25 15v27c-30 8-71 5-69-32zm-48 3c29 0 43-24 42-57-32 0-66-3-65 30 0 17 8 27 23 27" id="ai"/><path fill="#b2b2b2" d="M128 0H69L1-190h53L99-40l48-150h52" id="aj"/><path fill="#b2b2b2" d="M110-194c64 0 96 36 96 99 0 64-35 99-97 99-61 0-95-36-95-99 0-62 34-99 96-99zm-1 164c35 0 45-28 45-65 0-40-10-65-43-65-34 0-45 26-45 65 0 36 10 65 43 65" id="ak"/><path fill="#b2b2b2" d="M135-150c-39-12-60 13-60 57V0H25l-1-190h47c2 13-1 29 3 40 6-28 27-53 61-41v41" id="al"/><path fill="#b2b2b2" d="M25-224v-37h50v37H25zM25 0v-190h50V0H25" id="am"/><path fill="#b2b2b2" d="M137-138c1-29-70-34-71-4 15 46 118 7 119 86 1 83-164 76-172 9l43-7c4 19 20 25 44 25 33 8 57-30 24-41C81-84 22-81 20-136c-2-80 154-74 161-7" id="an"/><g id="b"><use transform="matrix(0.07407407407407408,0,0,0.07407407407407408,0,0)" xlink:href="#ah"/><use transform="matrix(0.07407407407407408,0,0,0.07407407407407408,16.222222222222225,0)" xlink:href="#ai"/><use transform="matrix(0.07407407407407408,0,0,0.07407407407407408,31.03703703703704,0)" xlink:href="#aj"/><use transform="matrix(0.07407407407407408,0,0,0.07407407407407408,45.851851851851855,0)" xlink:href="#ak"/><use transform="matrix(0.07407407407407408,0,0,0.07407407407407408,62.07407407407409,0)" xlink:href="#al"/><use transform="matrix(0.07407407407407408,0,0,0.07407407407407408,72.44444444444446,0)" xlink:href="#am"/><use transform="matrix(0.07407407407407408,0,0,0.07407407407407408,79.85185185185186,0)" xlink:href="#ag"/><use transform="matrix(0.07407407407407408,0,0,0.07407407407407408,88.66666666666667,0)" xlink:href="#af"/><use transform="matrix(0.07407407407407408,0,0,0.07407407407407408,103.4814814814815,0)" xlink:href="#an"/></g><path fill="#b2b2b2" d="M24 0v-248h52v208h133V0H24" id="ao"/><g id="c"><use transform="matrix(0.07407407407407408,0,0,0.07407407407407408,0,0)" xlink:href="#ao"/><use transform="matrix(0.07407407407407408,0,0,0.07407407407407408,16.222222222222225,0)" xlink:href="#am"/><use transform="matrix(0.07407407407407408,0,0,0.07407407407407408,23.629629629629633,0)" xlink:href="#an"/><use transform="matrix(0.07407407407407408,0,0,0.07407407407407408,38.44444444444445,0)" xlink:href="#ag"/><use transform="matrix(0.07407407407407408,0,0,0.07407407407407408,47.25925925925927,0)" xlink:href="#ad"/></g><path fill="#b2b2b2" d="M169-182c-1-43-94-46-97-3 18 66 151 10 154 114 3 95-165 93-204 36-6-8-10-19-12-30l50-8c3 46 112 56 116 5-17-69-150-10-154-114-4-87 153-88 188-35 5 8 8 18 10 28" id="ap"/><path fill="#b2b2b2" d="M84 4C32 4 15-41 15-95c0-55 18-99 73-99 29 0 47 12 58 34l2-30h48l-1 265h-49V-32C136-9 114 4 84 4zm21-34c32 0 41-29 41-66 0-36-9-64-40-64-33 0-39 30-40 65 0 43 13 65 39 65" id="aq"/><path fill="#b2b2b2" d="M85 4C-2 5 27-109 22-190h50c7 57-23 150 33 157 60-5 35-97 40-157h50l1 190h-47c-2-12 1-28-3-38-12 25-28 42-61 42" id="ar"/><path fill="#b2b2b2" d="M135-194c87-1 58 113 63 194h-50c-7-57 23-157-34-157-59 0-34 97-39 157H25l-1-190h47c2 12-1 28 3 38 12-26 28-41 61-42" id="as"/><path fill="#b2b2b2" d="M190-63c-7 42-38 67-86 67-59 0-84-38-90-98-12-110 154-137 174-36l-49 2c-2-19-15-32-35-32-30 0-35 28-38 64-6 74 65 87 74 30" id="at"/><g id="d"><use transform="matrix(0.07407407407407408,0,0,0.07407407407407408,0,0)" xlink:href="#ap"/><use transform="matrix(0.07407407407407408,0,0,0.07407407407407408,17.77777777777778,0)" xlink:href="#af"/><use transform="matrix(0.07407407407407408,0,0,0.07407407407407408,32.592592592592595,0)" xlink:href="#aq"/><use transform="matrix(0.07407407407407408,0,0,0.07407407407407408,48.814814814814824,0)" xlink:href="#ar"/><use transform="matrix(0.07407407407407408,0,0,0.07407407407407408,65.03703703703705,0)" xlink:href="#af"/><use transform="matrix(0.07407407407407408,0,0,0.07407407407407408,79.85185185185188,0)" xlink:href="#as"/><use transform="matrix(0.07407407407407408,0,0,0.07407407407407408,96.0740740740741,0)" xlink:href="#at"/><use transform="matrix(0.07407407407407408,0,0,0.07407407407407408,110.88888888888891,0)" xlink:href="#af"/></g><path fill="#b2b2b2" d="M24-248c120-7 223 5 221 122C244-46 201 0 124 0H24v-248zM76-40c74 7 117-18 117-86 0-67-45-88-117-82v168" id="au"/><path fill="#b2b2b2" d="M195-6C206 82 75 100 31 46c-4-6-6-13-8-21l49-6c3 16 16 24 34 25 40 0 42-37 40-79-11 22-30 35-61 35-53 0-70-43-70-97 0-56 18-96 73-97 30 0 46 14 59 34l2-30h47zm-90-29c32 0 41-27 41-63 0-35-9-62-40-62-32 0-39 29-40 63 0 36 9 62 39 62" id="av"/><path fill="#b2b2b2" d="M220-157c-53 9-28 100-34 157h-49v-107c1-27-5-49-29-50C55-147 81-57 75 0H25l-1-190h47c2 12-1 28 3 38 10-53 101-56 108 0 13-22 24-43 59-42 82 1 51 116 57 194h-49v-107c-1-25-5-48-29-50" id="aw"/><g id="e"><use transform="matrix(0.07407407407407408,0,0,0.07407407407407408,0,0)" xlink:href="#au"/><use transform="matrix(0.07407407407407408,0,0,0.07407407407407408,19.185185185185187,0)" xlink:href="#am"/><use transform="matrix(0.07407407407407408,0,0,0.07407407407407408,26.592592592592595,0)" xlink:href="#ai"/><use transform="matrix(0.07407407407407408,0,0,0.07407407407407408,41.40740740740741,0)" xlink:href="#av"/><use transform="matrix(0.07407407407407408,0,0,0.07407407407407408,57.62962962962964,0)" xlink:href="#al"/><use transform="matrix(0.07407407407407408,0,0,0.07407407407407408,68,0)" xlink:href="#ai"/><use transform="matrix(0.07407407407407408,0,0,0.07407407407407408,82.81481481481481,0)" xlink:href="#aw"/></g><path fill="#b2b2b2" d="M63-220v92h138v28H63V0H30v-248h175v28H63" id="ax"/><path fill="#b2b2b2" d="M24-231v-30h32v30H24zM24 0v-190h32V0H24" id="ay"/><path fill="#b2b2b2" d="M117-194c89-4 53 116 60 194h-32v-121c0-31-8-49-39-48C34-167 62-67 57 0H25l-1-190h30c1 10-1 24 2 32 11-22 29-35 61-36" id="az"/><path fill="#b2b2b2" d="M141-36C126-15 110 5 73 4 37 3 15-17 15-53c-1-64 63-63 125-63 3-35-9-54-41-54-24 1-41 7-42 31l-33-3c5-37 33-52 76-52 45 0 72 20 72 64v82c-1 20 7 32 28 27v20c-31 9-61-2-59-35zM48-53c0 20 12 33 32 33 41-3 63-29 60-74-43 2-92-5-92 41" id="aA"/><g id="f"><use transform="matrix(0.04320987654320988,0,0,0.04320987654320988,0,0)" xlink:href="#ax"/><use transform="matrix(0.04320987654320988,0,0,0.04320987654320988,9.462962962962964,0)" xlink:href="#ay"/><use transform="matrix(0.04320987654320988,0,0,0.04320987654320988,12.876543209876544,0)" xlink:href="#az"/><use transform="matrix(0.04320987654320988,0,0,0.04320987654320988,21.51851851851852,0)" xlink:href="#aA"/></g><path fill="#b2b2b2" d="M185-189c-5-48-123-54-124 2 14 75 158 14 163 119 3 78-121 87-175 55-17-10-28-26-33-46l33-7c5 56 141 63 141-1 0-78-155-14-162-118-5-82 145-84 179-34 5 7 8 16 11 25" id="aB"/><path fill="#b2b2b2" d="M24 0v-261h32V0H24" id="aC"/><path fill="#b2b2b2" d="M108 0H70L1-190h34L89-25l56-165h34" id="aD"/><path fill="#b2b2b2" d="M16-82v-28h88v28H16" id="aE"/><path fill="#b2b2b2" d="M59-47c-2 24 18 29 38 22v24C64 9 27 4 27-40v-127H5v-23h24l9-43h21v43h35v23H59v120" id="aF"/><path fill="#b2b2b2" d="M135-143c-3-34-86-38-87 0 15 53 115 12 119 90S17 21 10-45l28-5c4 36 97 45 98 0-10-56-113-15-118-90-4-57 82-63 122-42 12 7 21 19 24 35" id="aG"/><path fill="#b2b2b2" d="M100-194c63 0 86 42 84 106H49c0 40 14 67 53 68 26 1 43-12 49-29l28 8c-11 28-37 45-77 45C44 4 14-33 15-96c1-61 26-98 85-98zm52 81c6-60-76-77-97-28-3 7-6 17-6 28h103" id="aH"/><path fill="#b2b2b2" d="M115-194c53 0 69 39 70 98 0 66-23 100-70 100C84 3 66-7 56-30L54 0H23l1-261h32v101c10-23 28-34 59-34zm-8 174c40 0 45-34 45-75 0-40-5-75-45-74-42 0-51 32-51 76 0 43 10 73 51 73" id="aI"/><g id="g"><use transform="matrix(0.04320987654320988,0,0,0.04320987654320988,0,0)" xlink:href="#aB"/><use transform="matrix(0.04320987654320988,0,0,0.04320987654320988,10.370370370370372,0)" xlink:href="#ay"/><use transform="matrix(0.04320987654320988,0,0,0.04320987654320988,13.783950617283953,0)" xlink:href="#aC"/><use transform="matrix(0.04320987654320988,0,0,0.04320987654320988,17.19753086419753,0)" xlink:href="#aD"/><use transform="matrix(0.04320987654320988,0,0,0.04320987654320988,24.97530864197531,0)" xlink:href="#aA"/><use transform="matrix(0.04320987654320988,0,0,0.04320987654320988,33.617283950617285,0)" xlink:href="#aE"/><use transform="matrix(0.04320987654320988,0,0,0.04320987654320988,38.75925925925926,0)" xlink:href="#aB"/><use transform="matrix(0.04320987654320988,0,0,0.04320987654320988,49.12962962962963,0)" xlink:href="#aA"/><use transform="matrix(0.04320987654320988,0,0,0.04320987654320988,57.77160493827161,0)" xlink:href="#az"/><use transform="matrix(0.04320987654320988,0,0,0.04320987654320988,66.41358024691358,0)" xlink:href="#aF"/><use transform="matrix(0.04320987654320988,0,0,0.04320987654320988,70.73456790123457,0)" xlink:href="#ay"/><use transform="matrix(0.04320987654320988,0,0,0.04320987654320988,74.14814814814815,0)" xlink:href="#aG"/><use transform="matrix(0.04320987654320988,0,0,0.04320987654320988,81.92592592592592,0)" xlink:href="#aF"/><use transform="matrix(0.04320987654320988,0,0,0.04320987654320988,86.24691358024691,0)" xlink:href="#aH"/><use transform="matrix(0.04320987654320988,0,0,0.04320987654320988,94.88888888888889,0)" xlink:href="#aI"/><use transform="matrix(0.04320987654320988,0,0,0.04320987654320988,103.53086419753086,0)" xlink:href="#aA"/><use transform="matrix(0.04320987654320988,0,0,0.04320987654320988,112.17283950617283,0)" xlink:href="#az"/></g><path fill="#b2b2b2" d="M32 76v-337h29V76H32" id="aJ"/><use transform="matrix(0.04320987654320988,0,0,0.04320987654320988,0,0)" xlink:href="#aJ" id="h"/><path fill="#b2b2b2" d="M240 0l2-218c-23 76-54 145-80 218h-23L58-218 59 0H30v-248h44l77 211c21-75 51-140 76-211h43V0h-30" id="aK"/><path fill="#b2b2b2" d="M114-163C36-179 61-72 57 0H25l-1-190h30c1 12-1 29 2 39 6-27 23-49 58-41v29" id="aL"/><path fill="#b2b2b2" d="M96-169c-40 0-48 33-48 73s9 75 48 75c24 0 41-14 43-38l32 2c-6 37-31 61-74 61-59 0-76-41-82-99-10-93 101-131 147-64 4 7 5 14 7 22l-32 3c-4-21-16-35-41-35" id="aM"/><path fill="#b2b2b2" d="M106-169C34-169 62-67 57 0H25v-261h32l-1 103c12-21 28-36 61-36 89 0 53 116 60 194h-32v-121c2-32-8-49-39-48" id="aN"/><g id="i"><use transform="matrix(0.04320987654320988,0,0,0.04320987654320988,0,0)" xlink:href="#aK"/><use transform="matrix(0.04320987654320988,0,0,0.04320987654320988,12.919753086419755,0)" xlink:href="#aA"/><use transform="matrix(0.04320987654320988,0,0,0.04320987654320988,21.56172839506173,0)" xlink:href="#aL"/><use transform="matrix(0.04320987654320988,0,0,0.04320987654320988,26.703703703703706,0)" xlink:href="#aM"/><use transform="matrix(0.04320987654320988,0,0,0.04320987654320988,34.48148148148148,0)" xlink:href="#aN"/></g><path fill="#b2b2b2" d="M134-131c28 9 52 24 51 62-1 50-34 73-85 73S17-19 16-69c0-36 21-54 49-61-75-25-45-126 34-121 46 3 78 18 79 63 0 33-17 51-44 57zm-34-11c31 1 46-15 46-44 0-28-17-43-47-42-29 0-46 13-45 42 1 28 16 44 46 44zm1 122c35 0 51-18 51-52 0-30-18-46-53-46-33 0-51 17-51 47 0 34 19 51 53 51" id="aO"/><path fill="#b2b2b2" d="M68-38c1 34 0 65-14 84H32c9-13 17-26 17-46H33v-38h35" id="aP"/><g id="j"><use transform="matrix(0.04320987654320988,0,0,0.04320987654320988,0,0)" xlink:href="#aO"/><use transform="matrix(0.04320987654320988,0,0,0.04320987654320988,8.641975308641976,0)" xlink:href="#aP"/></g><path fill="#b2b2b2" d="M101-251c82-7 93 87 43 132L82-64C71-53 59-42 53-27h129V0H18c2-99 128-94 128-182 0-28-16-43-45-43s-46 15-49 41l-32-3c6-41 34-60 81-64" id="aQ"/><path fill="#b2b2b2" d="M101-251c68 0 85 55 85 127S166 4 100 4C33 4 14-52 14-124c0-73 17-127 87-127zm-1 229c47 0 54-49 54-102s-4-102-53-102c-51 0-55 48-55 102 0 53 5 102 54 102" id="aR"/><path fill="#b2b2b2" d="M27 0v-27h64v-190l-56 39v-29l58-41h29v221h61V0H27" id="aS"/><path fill="#b2b2b2" d="M99-251c64 0 84 50 84 122C183-37 130 33 47-8c-14-7-20-23-25-40l30-5c6 39 69 39 84 7 9-19 16-44 16-74-10 22-31 35-62 35-49 0-73-33-73-83 0-54 28-83 82-83zm-1 141c31-1 51-18 51-49 0-36-14-67-51-67-34 0-49 23-49 58 0 34 15 58 49 58" id="aT"/><g id="k"><use transform="matrix(0.04320987654320988,0,0,0.04320987654320988,0,0)" xlink:href="#aQ"/><use transform="matrix(0.04320987654320988,0,0,0.04320987654320988,8.641975308641976,0)" xlink:href="#aR"/><use transform="matrix(0.04320987654320988,0,0,0.04320987654320988,17.283950617283953,0)" xlink:href="#aS"/><use transform="matrix(0.04320987654320988,0,0,0.04320987654320988,25.925925925925927,0)" xlink:href="#aT"/></g><path fill="#666" d="M175 0L67-191c6 58 2 128 3 191H24v-248h59L193-55c-6-58-2-129-3-193h46V0h-61" id="aU"/><path fill="#666" d="M133-34C117-15 103 5 69 4 32 3 11-16 11-54c-1-60 55-63 116-61 1-26-3-47-28-47-18 1-26 9-28 27l-52-2c7-38 36-58 82-57s74 22 75 68l1 82c-1 14 12 18 25 15v27c-30 8-71 5-69-32zm-48 3c29 0 43-24 42-57-32 0-66-3-65 30 0 17 8 27 23 27" id="aV"/><path fill="#666" d="M128 0H69L1-190h53L99-40l48-150h52" id="aW"/><path fill="#666" d="M182-130c37 4 62 22 62 59C244 23 116-4 24 0v-248c84 5 203-23 205 63 0 31-19 50-47 55zM76-148c40-3 101 13 101-30 0-44-60-28-101-31v61zm0 110c48-3 116 14 116-37 0-48-69-32-116-35v72" id="aX"/><path fill="#666" d="M135-150c-39-12-60 13-60 57V0H25l-1-190h47c2 13-1 29 3 40 6-28 27-53 61-41v41" id="aY"/><g id="l"><use transform="matrix(0.04320987654320988,0,0,0.04320987654320988,0,0)" xlink:href="#aU"/><use transform="matrix(0.04320987654320988,0,0,0.04320987654320988,11.19135802469136,0)" xlink:href="#aV"/><use transform="matrix(0.04320987654320988,0,0,0.04320987654320988,19.833333333333336,0)" xlink:href="#aW"/><use transform="matrix(0.04320987654320988,0,0,0.04320987654320988,28.47530864197531,0)" xlink:href="#aX"/><use transform="matrix(0.04320987654320988,0,0,0.04320987654320988,39.66666666666667,0)" xlink:href="#aV"/><use transform="matrix(0.04320987654320988,0,0,0.04320987654320988,48.308641975308646,0)" xlink:href="#aY"/></g><path fill="#666" d="M67-93c0 74 22 123 53 168H70C40 30 18-18 18-93s22-123 52-168h50c-32 44-53 94-53 168" id="aZ"/><path fill="#666" d="M240-174c0 40-23 61-54 70L253 0h-59l-57-94H76V0H24v-248c93 4 217-23 216 74zM76-134c48-2 112 12 112-38 0-48-66-32-112-35v73" id="ba"/><path fill="#666" d="M185-48c-13 30-37 53-82 52C43 2 14-33 14-96s30-98 90-98c62 0 83 45 84 108H66c0 31 8 55 39 56 18 0 30-7 34-22zm-45-69c5-46-57-63-70-21-2 6-4 13-4 21h74" id="bb"/><path fill="#666" d="M190-63c-7 42-38 67-86 67-59 0-84-38-90-98-12-110 154-137 174-36l-49 2c-2-19-15-32-35-32-30 0-35 28-38 64-6 74 65 87 74 30" id="bc"/><path fill="#666" d="M115-3C79 11 28 4 28-45v-112H4v-33h27l15-45h31v45h36v33H77v99c-1 23 16 31 38 25v30" id="bd"/><g id="m"><use transform="matrix(0.04320987654320988,0,0,0.04320987654320988,0,0)" xlink:href="#aZ"/><use transform="matrix(0.04320987654320988,0,0,0.04320987654320988,5.1419753086419755,0)" xlink:href="#ba"/><use transform="matrix(0.04320987654320988,0,0,0.04320987654320988,16.333333333333336,0)" xlink:href="#bb"/><use transform="matrix(0.04320987654320988,0,0,0.04320987654320988,24.97530864197531,0)" xlink:href="#aV"/><use transform="matrix(0.04320987654320988,0,0,0.04320987654320988,33.617283950617285,0)" xlink:href="#bc"/><use transform="matrix(0.04320987654320988,0,0,0.04320987654320988,42.25925925925926,0)" xlink:href="#bd"/></g><path fill="#666" d="M67-125c0 53 21 87 73 88 37 1 54-22 65-47l45 17C233-25 199 4 140 4 58 4 20-42 15-125 8-235 124-281 211-232c18 10 29 29 36 50l-46 12c-8-25-30-41-62-41-52 0-71 34-72 86" id="be"/><path fill="#666" d="M110-194c64 0 96 36 96 99 0 64-35 99-97 99-61 0-95-36-95-99 0-62 34-99 96-99zm-1 164c35 0 45-28 45-65 0-40-10-65-43-65-34 0-45 26-45 65 0 36 10 65 43 65" id="bf"/><path fill="#666" d="M220-157c-53 9-28 100-34 157h-49v-107c1-27-5-49-29-50C55-147 81-57 75 0H25l-1-190h47c2 12-1 28 3 38 10-53 101-56 108 0 13-22 24-43 59-42 82 1 51 116 57 194h-49v-107c-1-25-5-48-29-50" id="bg"/><path fill="#666" d="M135-194c53 0 70 44 70 98 0 56-19 98-73 100-31 1-45-17-59-34 3 33 2 69 2 105H25l-1-265h48c2 10 0 23 3 31 11-24 29-35 60-35zM114-30c33 0 39-31 40-66 0-38-9-64-40-64-56 0-55 130 0 130" id="bh"/><path fill="#666" d="M135-194c87-1 58 113 63 194h-50c-7-57 23-157-34-157-59 0-34 97-39 157H25l-1-190h47c2 12-1 28 3 38 12-26 28-41 61-42" id="bi"/><path fill="#666" d="M102-93c0 74-22 123-52 168H0C30 29 54-18 53-93c0-74-22-123-53-168h50c30 45 52 94 52 168" id="bj"/><g id="n"><use transform="matrix(0.04320987654320988,0,0,0.04320987654320988,0,0)" xlink:href="#be"/><use transform="matrix(0.04320987654320988,0,0,0.04320987654320988,11.19135802469136,0)" xlink:href="#bf"/><use transform="matrix(0.04320987654320988,0,0,0.04320987654320988,20.654320987654323,0)" xlink:href="#bg"/><use transform="matrix(0.04320987654320988,0,0,0.04320987654320988,34.48148148148148,0)" xlink:href="#bh"/><use transform="matrix(0.04320987654320988,0,0,0.04320987654320988,43.94444444444444,0)" xlink:href="#bf"/><use transform="matrix(0.04320987654320988,0,0,0.04320987654320988,53.407407407407405,0)" xlink:href="#bi"/><use transform="matrix(0.04320987654320988,0,0,0.04320987654320988,62.87037037037037,0)" xlink:href="#bb"/><use transform="matrix(0.04320987654320988,0,0,0.04320987654320988,71.51234567901234,0)" xlink:href="#bi"/><use transform="matrix(0.04320987654320988,0,0,0.04320987654320988,80.9753086419753,0)" xlink:href="#bd"/><use transform="matrix(0.04320987654320988,0,0,0.04320987654320988,86.11728395061728,0)" xlink:href="#bj"/></g><path fill="#666" d="M169-182c-1-43-94-46-97-3 18 66 151 10 154 114 3 95-165 93-204 36-6-8-10-19-12-30l50-8c3 46 112 56 116 5-17-69-150-10-154-114-4-87 153-88 188-35 5 8 8 18 10 28" id="bk"/><g id="o"><use transform="matrix(0.04320987654320988,0,0,0.04320987654320988,0,0)" xlink:href="#bk"/><use transform="matrix(0.04320987654320988,0,0,0.04320987654320988,10.370370370370372,0)" xlink:href="#bb"/><use transform="matrix(0.04320987654320988,0,0,0.04320987654320988,19.01234567901235,0)" xlink:href="#aY"/><use transform="matrix(0.04320987654320988,0,0,0.04320987654320988,25.06172839506173,0)" xlink:href="#aW"/><use transform="matrix(0.04320987654320988,0,0,0.04320987654320988,33.70370370370371,0)" xlink:href="#bb"/><use transform="matrix(0.04320987654320988,0,0,0.04320987654320988,42.345679012345684,0)" xlink:href="#aY"/></g><path fill="#666" d="M24 0v-248h195v40H76v63h132v40H76v65h150V0H24" id="bl"/><path fill="#666" d="M144 0l-44-69L55 0H2l70-98-66-92h53l41 62 40-62h54l-67 91 71 99h-54" id="bm"/><path fill="#666" d="M25 0v-261h50V0H25" id="bn"/><g id="p"><use transform="matrix(0.04320987654320988,0,0,0.04320987654320988,0,0)" xlink:href="#aZ"/><use transform="matrix(0.04320987654320988,0,0,0.04320987654320988,5.1419753086419755,0)" xlink:href="#bl"/><use transform="matrix(0.04320987654320988,0,0,0.04320987654320988,15.512345679012347,0)" xlink:href="#bm"/><use transform="matrix(0.04320987654320988,0,0,0.04320987654320988,24.154320987654323,0)" xlink:href="#bd"/><use transform="matrix(0.04320987654320988,0,0,0.04320987654320988,29.296296296296298,0)" xlink:href="#bb"/><use transform="matrix(0.04320987654320988,0,0,0.04320987654320988,37.93827160493827,0)" xlink:href="#aY"/><use transform="matrix(0.04320987654320988,0,0,0.04320987654320988,43.98765432098766,0)" xlink:href="#bi"/><use transform="matrix(0.04320987654320988,0,0,0.04320987654320988,53.45061728395062,0)" xlink:href="#aV"/><use transform="matrix(0.04320987654320988,0,0,0.04320987654320988,62.0925925925926,0)" xlink:href="#bn"/></g><path fill="#666" d="M199 0l-22-63H83L61 0H9l90-248h61L250 0h-51zm-33-102l-36-108c-10 38-24 72-36 108h72" id="bo"/><path fill="#666" d="M24-248c93 1 206-16 204 79-1 75-69 88-152 82V0H24v-248zm52 121c47 0 100 7 100-41 0-47-54-39-100-39v80" id="bp"/><path fill="#666" d="M24 0v-248h52V0H24" id="bq"/><g id="q"><use transform="matrix(0.04320987654320988,0,0,0.04320987654320988,0,0)" xlink:href="#bo"/><use transform="matrix(0.04320987654320988,0,0,0.04320987654320988,11.19135802469136,0)" xlink:href="#bp"/><use transform="matrix(0.04320987654320988,0,0,0.04320987654320988,21.56172839506173,0)" xlink:href="#bq"/><use transform="matrix(0.04320987654320988,0,0,0.04320987654320988,25.88271604938272,0)" xlink:href="#bj"/></g><path fill="#666" d="M186 0v-106H76V0H24v-248h52v99h110v-99h50V0h-50" id="br"/><path fill="#666" d="M88-194c31-1 46 15 58 34l-1-101h50l1 261h-48c-2-10 0-23-3-31C134-8 116 4 84 4 32 4 16-41 15-95c0-56 19-97 73-99zm17 164c33 0 40-30 41-66 1-37-9-64-41-64s-38 30-39 65c0 43 13 65 39 65" id="bs"/><path fill="#666" d="M-4 44V30h207v14H-4" id="bt"/><g id="r"><use transform="matrix(0.04320987654320988,0,0,0.04320987654320988,0,0)" xlink:href="#br"/><use transform="matrix(0.04320987654320988,0,0,0.04320987654320988,11.19135802469136,0)" xlink:href="#aV"/><use transform="matrix(0.04320987654320988,0,0,0.04320987654320988,19.833333333333336,0)" xlink:href="#bi"/><use transform="matrix(0.04320987654320988,0,0,0.04320987654320988,29.296296296296298,0)" xlink:href="#bs"/><use transform="matrix(0.04320987654320988,0,0,0.04320987654320988,38.75925925925926,0)" xlink:href="#bn"/><use transform="matrix(0.04320987654320988,0,0,0.04320987654320988,43.08024691358025,0)" xlink:href="#bb"/><use transform="matrix(0.04320987654320988,0,0,0.04320987654320988,51.722222222222214,0)" xlink:href="#aY"/><use transform="matrix(0.04320987654320988,0,0,0.04320987654320988,57.77160493827161,0)" xlink:href="#bt"/><use transform="matrix(0.04320987654320988,0,0,0.04320987654320988,66.41358024691358,0)" xlink:href="#bo"/><use transform="matrix(0.04320987654320988,0,0,0.04320987654320988,77.60493827160494,0)" xlink:href="#bp"/><use transform="matrix(0.04320987654320988,0,0,0.04320987654320988,87.9753086419753,0)" xlink:href="#bq"/></g><path fill="#666" d="M136-208V0H84v-208H4v-40h212v40h-80" id="bu"/><g id="s"><use transform="matrix(0.04320987654320988,0,0,0.04320987654320988,0,0)" xlink:href="#br"/><use transform="matrix(0.04320987654320988,0,0,0.04320987654320988,11.19135802469136,0)" xlink:href="#aV"/><use transform="matrix(0.04320987654320988,0,0,0.04320987654320988,19.833333333333336,0)" xlink:href="#bi"/><use transform="matrix(0.04320987654320988,0,0,0.04320987654320988,29.296296296296298,0)" xlink:href="#bs"/><use transform="matrix(0.04320987654320988,0,0,0.04320987654320988,38.75925925925926,0)" xlink:href="#bn"/><use transform="matrix(0.04320987654320988,0,0,0.04320987654320988,43.08024691358025,0)" xlink:href="#bb"/><use transform="matrix(0.04320987654320988,0,0,0.04320987654320988,51.722222222222214,0)" xlink:href="#aY"/><use transform="matrix(0.04320987654320988,0,0,0.04320987654320988,57.77160493827161,0)" xlink:href="#bt"/><use transform="matrix(0.04320987654320988,0,0,0.04320987654320988,66.41358024691358,0)" xlink:href="#br"/><use transform="matrix(0.04320987654320988,0,0,0.04320987654320988,77.60493827160494,0)" xlink:href="#bu"/><use transform="matrix(0.04320987654320988,0,0,0.04320987654320988,87.0679012345679,0)" xlink:href="#bu"/><use transform="matrix(0.04320987654320988,0,0,0.04320987654320988,96.53086419753086,0)" xlink:href="#bp"/></g><g id="t"><use transform="matrix(0.04320987654320988,0,0,0.04320987654320988,0,0)" xlink:href="#br"/><use transform="matrix(0.04320987654320988,0,0,0.04320987654320988,11.19135802469136,0)" xlink:href="#aV"/><use transform="matrix(0.04320987654320988,0,0,0.04320987654320988,19.833333333333336,0)" xlink:href="#bi"/><use transform="matrix(0.04320987654320988,0,0,0.04320987654320988,29.296296296296298,0)" xlink:href="#bs"/><use transform="matrix(0.04320987654320988,0,0,0.04320987654320988,38.75925925925926,0)" xlink:href="#bn"/><use transform="matrix(0.04320987654320988,0,0,0.04320987654320988,43.08024691358025,0)" xlink:href="#bb"/><use transform="matrix(0.04320987654320988,0,0,0.04320987654320988,51.722222222222214,0)" xlink:href="#aY"/><use transform="matrix(0.04320987654320988,0,0,0.04320987654320988,57.77160493827161,0)" xlink:href="#bt"/><use transform="matrix(0.04320987654320988,0,0,0.04320987654320988,66.41358024691358,0)" xlink:href="#bp"/><use transform="matrix(0.04320987654320988,0,0,0.04320987654320988,76.78395061728395,0)" xlink:href="#aV"/><use transform="matrix(0.04320987654320988,0,0,0.04320987654320988,85.42592592592592,0)" xlink:href="#bd"/><use transform="matrix(0.04320987654320988,0,0,0.04320987654320988,90.56790123456788,0)" xlink:href="#bd"/><use transform="matrix(0.04320987654320988,0,0,0.04320987654320988,95.70987654320987,0)" xlink:href="#bb"/><use transform="matrix(0.04320987654320988,0,0,0.04320987654320988,104.35185185185185,0)" xlink:href="#aY"/><use transform="matrix(0.04320987654320988,0,0,0.04320987654320988,110.40123456790123,0)" xlink:href="#bi"/></g><g id="u"><use transform="matrix(0.04320987654320988,0,0,0.04320987654320988,0,0)" xlink:href="#bp"/><use transform="matrix(0.04320987654320988,0,0,0.04320987654320988,10.370370370370372,0)" xlink:href="#aV"/><use transform="matrix(0.04320987654320988,0,0,0.04320987654320988,19.01234567901235,0)" xlink:href="#bd"/><use transform="matrix(0.04320987654320988,0,0,0.04320987654320988,24.154320987654323,0)" xlink:href="#bd"/><use transform="matrix(0.04320987654320988,0,0,0.04320987654320988,29.296296296296298,0)" xlink:href="#bb"/><use transform="matrix(0.04320987654320988,0,0,0.04320987654320988,37.93827160493827,0)" xlink:href="#aY"/><use transform="matrix(0.04320987654320988,0,0,0.04320987654320988,43.98765432098766,0)" xlink:href="#bi"/></g><g id="v"><use transform="matrix(0.04320987654320988,0,0,0.04320987654320988,0,0)" xlink:href="#bu"/><use transform="matrix(0.04320987654320988,0,0,0.04320987654320988,8.296296296296298,0)" xlink:href="#bb"/><use transform="matrix(0.04320987654320988,0,0,0.04320987654320988,16.938271604938272,0)" xlink:href="#bm"/><use transform="matrix(0.04320987654320988,0,0,0.04320987654320988,25.580246913580243,0)" xlink:href="#bd"/></g><path fill="#666" d="M84 4C32 4 15-41 15-95c0-55 18-99 73-99 29 0 47 12 58 34l2-30h48l-1 265h-49V-32C136-9 114 4 84 4zm21-34c32 0 41-29 41-66 0-36-9-64-40-64-33 0-39 30-40 65 0 43 13 65 39 65" id="bv"/><path fill="#666" d="M85 4C-2 5 27-109 22-190h50c7 57-23 150 33 157 60-5 35-97 40-157h50l1 190h-47c-2-12 1-28-3-38-12 25-28 42-61 42" id="bw"/><path fill="#666" d="M137-138c1-29-70-34-71-4 15 46 118 7 119 86 1 83-164 76-172 9l43-7c4 19 20 25 44 25 33 8 57-30 24-41C81-84 22-81 20-136c-2-80 154-74 161-7" id="bx"/><path fill="#666" d="M24 0v-54h51V0H24" id="by"/><path fill="#666" d="M195-6C206 82 75 100 31 46c-4-6-6-13-8-21l49-6c3 16 16 24 34 25 40 0 42-37 40-79-11 22-30 35-61 35-53 0-70-43-70-97 0-56 18-96 73-97 30 0 46 14 59 34l2-30h47zm-90-29c32 0 41-27 41-63 0-35-9-62-40-62-32 0-39 29-40 63 0 36 9 62 39 62" id="bz"/><path fill="#666" d="M76-54c-1 42 2 86-19 110H24C36 42 46 24 48 0H25v-54h51" id="bA"/><g id="w"><use transform="matrix(0.04320987654320988,0,0,0.04320987654320988,0,0)" xlink:href="#aY"/><use transform="matrix(0.04320987654320988,0,0,0.04320987654320988,6.049382716049383,0)" xlink:href="#bb"/><use transform="matrix(0.04320987654320988,0,0,0.04320987654320988,14.69135802469136,0)" xlink:href="#bv"/><use transform="matrix(0.04320987654320988,0,0,0.04320987654320988,24.154320987654323,0)" xlink:href="#bw"/><use transform="matrix(0.04320987654320988,0,0,0.04320987654320988,33.617283950617285,0)" xlink:href="#bb"/><use transform="matrix(0.04320987654320988,0,0,0.04320987654320988,42.25925925925926,0)" xlink:href="#bx"/><use transform="matrix(0.04320987654320988,0,0,0.04320987654320988,50.90123456790123,0)" xlink:href="#bd"/><use transform="matrix(0.04320987654320988,0,0,0.04320987654320988,56.04320987654321,0)" xlink:href="#bx"/><use transform="matrix(0.04320987654320988,0,0,0.04320987654320988,64.68518518518519,0)" xlink:href="#by"/><use transform="matrix(0.04320987654320988,0,0,0.04320987654320988,69.00617283950618,0)" xlink:href="#bz"/><use transform="matrix(0.04320987654320988,0,0,0.04320987654320988,78.46913580246914,0)" xlink:href="#bb"/><use transform="matrix(0.04320987654320988,0,0,0.04320987654320988,87.11111111111111,0)" xlink:href="#bd"/><use transform="matrix(0.04320987654320988,0,0,0.04320987654320988,92.2530864197531,0)" xlink:href="#aZ"/><use transform="matrix(0.04320987654320988,0,0,0.04320987654320988,97.39506172839508,0)" xlink:href="#bw"/><use transform="matrix(0.04320987654320988,0,0,0.04320987654320988,106.85802469135801,0)" xlink:href="#aY"/><use transform="matrix(0.04320987654320988,0,0,0.04320987654320988,112.9074074074074,0)" xlink:href="#bn"/><use transform="matrix(0.04320987654320988,0,0,0.04320987654320988,117.22839506172839,0)" xlink:href="#bA"/></g><path fill="#666" d="M114-157C55-157 80-60 75 0H25v-261h50l-1 109c12-26 28-41 61-42 86-1 58 113 63 194h-50c-7-57 23-157-34-157" id="bB"/><path fill="#666" d="M15-148v-39h180v39H15zm0 97v-39h180v39H15" id="bC"/><path fill="#666" d="M121-226c-27-7-43 5-38 36h38v33H83V0H34v-157H6v-33h28c-9-59 32-81 87-68v32" id="bD"/><path fill="#666" d="M238-95c0 69-44 99-111 99C63 4 22-25 22-93v-155h51v151c-1 38 19 59 55 60 90 1 49-130 58-211h52v153" id="bE"/><g id="x"><use transform="matrix(0.04320987654320988,0,0,0.04320987654320988,0,0)" xlink:href="#aV"/><use transform="matrix(0.04320987654320988,0,0,0.04320987654320988,8.641975308641976,0)" xlink:href="#bw"/><use transform="matrix(0.04320987654320988,0,0,0.04320987654320988,18.10493827160494,0)" xlink:href="#bd"/><use transform="matrix(0.04320987654320988,0,0,0.04320987654320988,23.246913580246915,0)" xlink:href="#bB"/><use transform="matrix(0.04320987654320988,0,0,0.04320987654320988,32.70987654320988,0)" xlink:href="#bC"/><use transform="matrix(0.04320987654320988,0,0,0.04320987654320988,41.783950617283956,0)" xlink:href="#bx"/><use transform="matrix(0.04320987654320988,0,0,0.04320987654320988,50.42592592592593,0)" xlink:href="#bb"/><use transform="matrix(0.04320987654320988,0,0,0.04320987654320988,59.067901234567906,0)" xlink:href="#bn"/><use transform="matrix(0.04320987654320988,0,0,0.04320987654320988,63.38888888888889,0)" xlink:href="#bD"/><use transform="matrix(0.04320987654320988,0,0,0.04320987654320988,68.53086419753087,0)" xlink:href="#by"/><use transform="matrix(0.04320987654320988,0,0,0.04320987654320988,72.85185185185186,0)" xlink:href="#bo"/><use transform="matrix(0.04320987654320988,0,0,0.04320987654320988,84.04320987654322,0)" xlink:href="#bE"/><use transform="matrix(0.04320987654320988,0,0,0.04320987654320988,95.23456790123458,0)" xlink:href="#bu"/><use transform="matrix(0.04320987654320988,0,0,0.04320987654320988,104.69753086419752,0)" xlink:href="#br"/><use transform="matrix(0.04320987654320988,0,0,0.04320987654320988,115.88888888888889,0)" xlink:href="#bA"/></g><g id="y"><use transform="matrix(0.04320987654320988,0,0,0.04320987654320988,0,0)" xlink:href="#bh"/><use transform="matrix(0.04320987654320988,0,0,0.04320987654320988,9.462962962962964,0)" xlink:href="#aV"/><use transform="matrix(0.04320987654320988,0,0,0.04320987654320988,18.10493827160494,0)" xlink:href="#aY"/><use transform="matrix(0.04320987654320988,0,0,0.04320987654320988,24.154320987654323,0)" xlink:href="#aV"/><use transform="matrix(0.04320987654320988,0,0,0.04320987654320988,32.7962962962963,0)" xlink:href="#bg"/><use transform="matrix(0.04320987654320988,0,0,0.04320987654320988,46.62345679012345,0)" xlink:href="#bx"/></g><use transform="matrix(0.04320987654320988,0,0,0.04320987654320988,0,0)" xlink:href="#bC" id="z"/><g id="A"><use transform="matrix(0.04320987654320988,0,0,0.04320987654320988,0,0)" xlink:href="#bh"/><use transform="matrix(0.04320987654320988,0,0,0.04320987654320988,9.462962962962964,0)" xlink:href="#aV"/><use transform="matrix(0.04320987654320988,0,0,0.04320987654320988,18.10493827160494,0)" xlink:href="#aY"/><use transform="matrix(0.04320987654320988,0,0,0.04320987654320988,24.154320987654323,0)" xlink:href="#aV"/><use transform="matrix(0.04320987654320988,0,0,0.04320987654320988,32.7962962962963,0)" xlink:href="#bg"/><use transform="matrix(0.04320987654320988,0,0,0.04320987654320988,46.62345679012345,0)" xlink:href="#bx"/><use transform="matrix(0.04320987654320988,0,0,0.04320987654320988,55.26543209876543,0)" xlink:href="#bA"/><use transform="matrix(0.04320987654320988,0,0,0.04320987654320988,59.58641975308642,0)" xlink:href="#bj"/></g><g id="B"><use transform="matrix(0.04320987654320988,0,0,0.04320987654320988,0,0)" xlink:href="#aY"/><use transform="matrix(0.04320987654320988,0,0,0.04320987654320988,6.049382716049383,0)" xlink:href="#bb"/><use transform="matrix(0.04320987654320988,0,0,0.04320987654320988,14.69135802469136,0)" xlink:href="#bx"/><use transform="matrix(0.04320987654320988,0,0,0.04320987654320988,23.333333333333336,0)" xlink:href="#bh"/><use transform="matrix(0.04320987654320988,0,0,0.04320987654320988,32.7962962962963,0)" xlink:href="#bf"/><use transform="matrix(0.04320987654320988,0,0,0.04320987654320988,42.25925925925926,0)" xlink:href="#bi"/><use transform="matrix(0.04320987654320988,0,0,0.04320987654320988,51.722222222222214,0)" xlink:href="#bx"/><use transform="matrix(0.04320987654320988,0,0,0.04320987654320988,60.364197530864196,0)" xlink:href="#bb"/></g><g id="C"><use transform="matrix(0.04320987654320988,0,0,0.04320987654320988,0,0)" xlink:href="#aY"/><use transform="matrix(0.04320987654320988,0,0,0.04320987654320988,6.049382716049383,0)" xlink:href="#bb"/><use transform="matrix(0.04320987654320988,0,0,0.04320987654320988,14.69135802469136,0)" xlink:href="#bx"/><use transform="matrix(0.04320987654320988,0,0,0.04320987654320988,23.333333333333336,0)" xlink:href="#bh"/><use transform="matrix(0.04320987654320988,0,0,0.04320987654320988,32.7962962962963,0)" xlink:href="#bf"/><use transform="matrix(0.04320987654320988,0,0,0.04320987654320988,42.25925925925926,0)" xlink:href="#bi"/><use transform="matrix(0.04320987654320988,0,0,0.04320987654320988,51.722222222222214,0)" xlink:href="#bx"/><use transform="matrix(0.04320987654320988,0,0,0.04320987654320988,60.364197530864196,0)" xlink:href="#bb"/></g><path fill="#666" d="M25-224v-37h50v37H25zM75 22c2 45-34 59-81 51V38c22 5 31-5 31-27v-201h50V22" id="bF"/><g id="D"><use transform="matrix(0.04320987654320988,0,0,0.04320987654320988,0,0)" xlink:href="#bF"/><use transform="matrix(0.04320987654320988,0,0,0.04320987654320988,4.320987654320988,0)" xlink:href="#bx"/><use transform="matrix(0.04320987654320988,0,0,0.04320987654320988,12.962962962962964,0)" xlink:href="#bf"/><use transform="matrix(0.04320987654320988,0,0,0.04320987654320988,22.425925925925934,0)" xlink:href="#bi"/></g><g id="E"><use transform="matrix(0.04320987654320988,0,0,0.04320987654320988,0,0)" xlink:href="#bx"/><use transform="matrix(0.04320987654320988,0,0,0.04320987654320988,8.641975308641976,0)" xlink:href="#bb"/><use transform="matrix(0.04320987654320988,0,0,0.04320987654320988,17.283950617283953,0)" xlink:href="#bi"/><use transform="matrix(0.04320987654320988,0,0,0.04320987654320988,26.746913580246915,0)" xlink:href="#bs"/><use transform="matrix(0.04320987654320988,0,0,0.04320987654320988,36.20987654320988,0)" xlink:href="#bt"/><use transform="matrix(0.04320987654320988,0,0,0.04320987654320988,44.851851851851855,0)" xlink:href="#bz"/><use transform="matrix(0.04320987654320988,0,0,0.04320987654320988,54.314814814814824,0)" xlink:href="#bb"/><use transform="matrix(0.04320987654320988,0,0,0.04320987654320988,62.956790123456784,0)" xlink:href="#bd"/><use transform="matrix(0.04320987654320988,0,0,0.04320987654320988,68.09876543209877,0)" xlink:href="#bt"/><use transform="matrix(0.04320987654320988,0,0,0.04320987654320988,76.74074074074075,0)" xlink:href="#aY"/><use transform="matrix(0.04320987654320988,0,0,0.04320987654320988,82.79012345679013,0)" xlink:href="#bb"/><use transform="matrix(0.04320987654320988,0,0,0.04320987654320988,91.4320987654321,0)" xlink:href="#bv"/><use transform="matrix(0.04320987654320988,0,0,0.04320987654320988,100.89506172839508,0)" xlink:href="#bw"/><use transform="matrix(0.04320987654320988,0,0,0.04320987654320988,110.35802469135801,0)" xlink:href="#bb"/><use transform="matrix(0.04320987654320988,0,0,0.04320987654320988,118.99999999999999,0)" xlink:href="#bx"/><use transform="matrix(0.04320987654320988,0,0,0.04320987654320988,127.64197530864197,0)" xlink:href="#bd"/><use transform="matrix(0.04320987654320988,0,0,0.04320987654320988,132.78395061728395,0)" xlink:href="#aZ"/><use transform="matrix(0.04320987654320988,0,0,0.04320987654320988,137.92592592592592,0)" xlink:href="#bw"/><use transform="matrix(0.04320987654320988,0,0,0.04320987654320988,147.38888888888889,0)" xlink:href="#aY"/><use transform="matrix(0.04320987654320988,0,0,0.04320987654320988,153.43827160493828,0)" xlink:href="#bn"/><use transform="matrix(0.04320987654320988,0,0,0.04320987654320988,157.75925925925927,0)" xlink:href="#bA"/></g><g id="F"><use transform="matrix(0.04320987654320988,0,0,0.04320987654320988,0,0)" xlink:href="#bh"/><use transform="matrix(0.04320987654320988,0,0,0.04320987654320988,9.462962962962964,0)" xlink:href="#aV"/><use transform="matrix(0.04320987654320988,0,0,0.04320987654320988,18.10493827160494,0)" xlink:href="#aY"/><use transform="matrix(0.04320987654320988,0,0,0.04320987654320988,24.154320987654323,0)" xlink:href="#aV"/><use transform="matrix(0.04320987654320988,0,0,0.04320987654320988,32.7962962962963,0)" xlink:href="#bg"/><use transform="matrix(0.04320987654320988,0,0,0.04320987654320988,46.62345679012345,0)" xlink:href="#bx"/><use transform="matrix(0.04320987654320988,0,0,0.04320987654320988,55.26543209876543,0)" xlink:href="#bj"/></g><path fill="#666" d="M25-224v-37h50v37H25zM25 0v-190h50V0H25" id="bG"/><path fill="#666" d="M20 75v-336h95v34H67V41h48v34H20" id="bH"/><path fill="#666" d="M62-158H24l-5-90h48" id="bI"/><path fill="#666" d="M4 75V41h49v-268H4v-34h96V75H4" id="bJ"/><g id="G"><use transform="matrix(0.04320987654320988,0,0,0.04320987654320988,0,0)" xlink:href="#bc"/><use transform="matrix(0.04320987654320988,0,0,0.04320987654320988,8.641975308641976,0)" xlink:href="#aY"/><use transform="matrix(0.04320987654320988,0,0,0.04320987654320988,14.69135802469136,0)" xlink:href="#bb"/><use transform="matrix(0.04320987654320988,0,0,0.04320987654320988,23.333333333333336,0)" xlink:href="#aV"/><use transform="matrix(0.04320987654320988,0,0,0.04320987654320988,31.97530864197531,0)" xlink:href="#bd"/><use transform="matrix(0.04320987654320988,0,0,0.04320987654320988,37.117283950617285,0)" xlink:href="#bb"/><use transform="matrix(0.04320987654320988,0,0,0.04320987654320988,45.75925925925927,0)" xlink:href="#bt"/><use transform="matrix(0.04320987654320988,0,0,0.04320987654320988,54.40123456790123,0)" xlink:href="#bh"/><use transform="matrix(0.04320987654320988,0,0,0.04320987654320988,63.864197530864196,0)" xlink:href="#aV"/><use transform="matrix(0.04320987654320988,0,0,0.04320987654320988,72.50617283950618,0)" xlink:href="#bd"/><use transform="matrix(0.04320987654320988,0,0,0.04320987654320988,77.64814814814815,0)" xlink:href="#bd"/><use transform="matrix(0.04320987654320988,0,0,0.04320987654320988,82.79012345679013,0)" xlink:href="#bb"/><use transform="matrix(0.04320987654320988,0,0,0.04320987654320988,91.4320987654321,0)" xlink:href="#aY"/><use transform="matrix(0.04320987654320988,0,0,0.04320987654320988,97.48148148148147,0)" xlink:href="#bi"/><use transform="matrix(0.04320987654320988,0,0,0.04320987654320988,106.94444444444444,0)" xlink:href="#bt"/><use transform="matrix(0.04320987654320988,0,0,0.04320987654320988,115.58641975308642,0)" xlink:href="#bn"/><use transform="matrix(0.04320987654320988,0,0,0.04320987654320988,119.9074074074074,0)" xlink:href="#bG"/><use transform="matrix(0.04320987654320988,0,0,0.04320987654320988,124.22839506172839,0)" xlink:href="#bx"/><use transform="matrix(0.04320987654320988,0,0,0.04320987654320988,132.87037037037038,0)" xlink:href="#bd"/><use transform="matrix(0.04320987654320988,0,0,0.04320987654320988,138.01234567901236,0)" xlink:href="#aZ"/><use transform="matrix(0.04320987654320988,0,0,0.04320987654320988,143.15432098765433,0)" xlink:href="#aY"/><use transform="matrix(0.04320987654320988,0,0,0.04320987654320988,149.20370370370372,0)" xlink:href="#bb"/><use transform="matrix(0.04320987654320988,0,0,0.04320987654320988,157.8456790123457,0)" xlink:href="#bx"/><use transform="matrix(0.04320987654320988,0,0,0.04320987654320988,166.48765432098767,0)" xlink:href="#bh"/><use transform="matrix(0.04320987654320988,0,0,0.04320987654320988,175.95061728395063,0)" xlink:href="#bt"/><use transform="matrix(0.04320987654320988,0,0,0.04320987654320988,184.5925925925926,0)" xlink:href="#bD"/><use transform="matrix(0.04320987654320988,0,0,0.04320987654320988,189.73456790123458,0)" xlink:href="#aY"/><use transform="matrix(0.04320987654320988,0,0,0.04320987654320988,195.78395061728398,0)" xlink:href="#bf"/><use transform="matrix(0.04320987654320988,0,0,0.04320987654320988,205.24691358024694,0)" xlink:href="#bg"/><use transform="matrix(0.04320987654320988,0,0,0.04320987654320988,219.0740740740741,0)" xlink:href="#bt"/><use transform="matrix(0.04320987654320988,0,0,0.04320987654320988,227.71604938271608,0)" xlink:href="#bx"/><use transform="matrix(0.04320987654320988,0,0,0.04320987654320988,236.35802469135805,0)" xlink:href="#bb"/><use transform="matrix(0.04320987654320988,0,0,0.04320987654320988,245.00000000000003,0)" xlink:href="#aY"/><use transform="matrix(0.04320987654320988,0,0,0.04320987654320988,251.04938271604942,0)" xlink:href="#aW"/><use transform="matrix(0.04320987654320988,0,0,0.04320987654320988,259.6913580246914,0)" xlink:href="#bb"/><use transform="matrix(0.04320987654320988,0,0,0.04320987654320988,268.33333333333337,0)" xlink:href="#aY"/><use transform="matrix(0.04320987654320988,0,0,0.04320987654320988,274.38271604938274,0)" xlink:href="#bH"/><use transform="matrix(0.04320987654320988,0,0,0.04320987654320988,279.5246913580247,0)" xlink:href="#bI"/><use transform="matrix(0.04320987654320988,0,0,0.04320987654320988,283.1975308641976,0)" xlink:href="#bh"/><use transform="matrix(0.04320987654320988,0,0,0.04320987654320988,292.66049382716056,0)" xlink:href="#aV"/><use transform="matrix(0.04320987654320988,0,0,0.04320987654320988,301.30246913580254,0)" xlink:href="#bd"/><use transform="matrix(0.04320987654320988,0,0,0.04320987654320988,306.4444444444445,0)" xlink:href="#bd"/><use transform="matrix(0.04320987654320988,0,0,0.04320987654320988,311.5864197530865,0)" xlink:href="#bb"/><use transform="matrix(0.04320987654320988,0,0,0.04320987654320988,320.22839506172846,0)" xlink:href="#aY"/><use transform="matrix(0.04320987654320988,0,0,0.04320987654320988,326.2777777777778,0)" xlink:href="#bi"/><use transform="matrix(0.04320987654320988,0,0,0.04320987654320988,335.7407407407408,0)" xlink:href="#bx"/><use transform="matrix(0.04320987654320988,0,0,0.04320987654320988,344.3827160493828,0)" xlink:href="#bI"/><use transform="matrix(0.04320987654320988,0,0,0.04320987654320988,348.05555555555566,0)" xlink:href="#bJ"/><use transform="matrix(0.04320987654320988,0,0,0.04320987654320988,353.19753086419763,0)" xlink:href="#bj"/></g><g id="H"><use transform="matrix(0.04320987654320988,0,0,0.04320987654320988,0,0)" xlink:href="#bc"/><use transform="matrix(0.04320987654320988,0,0,0.04320987654320988,8.641975308641976,0)" xlink:href="#bf"/><use transform="matrix(0.04320987654320988,0,0,0.04320987654320988,18.10493827160494,0)" xlink:href="#bi"/><use transform="matrix(0.04320987654320988,0,0,0.04320987654320988,27.567901234567906,0)" xlink:href="#bx"/><use transform="matrix(0.04320987654320988,0,0,0.04320987654320988,36.20987654320988,0)" xlink:href="#bd"/><use transform="matrix(0.04320987654320988,0,0,0.04320987654320988,41.351851851851855,0)" xlink:href="#aY"/><use transform="matrix(0.04320987654320988,0,0,0.04320987654320988,47.40123456790124,0)" xlink:href="#bw"/><use transform="matrix(0.04320987654320988,0,0,0.04320987654320988,56.8641975308642,0)" xlink:href="#bc"/><use transform="matrix(0.04320987654320988,0,0,0.04320987654320988,65.50617283950618,0)" xlink:href="#bd"/><use transform="matrix(0.04320987654320988,0,0,0.04320987654320988,70.64814814814815,0)" xlink:href="#bf"/><use transform="matrix(0.04320987654320988,0,0,0.04320987654320988,80.11111111111111,0)" xlink:href="#aY"/><use transform="matrix(0.04320987654320988,0,0,0.04320987654320988,86.1604938271605,0)" xlink:href="#aZ"/><use transform="matrix(0.04320987654320988,0,0,0.04320987654320988,91.30246913580245,0)" xlink:href="#bh"/><use transform="matrix(0.04320987654320988,0,0,0.04320987654320988,100.76543209876542,0)" xlink:href="#aV"/><use transform="matrix(0.04320987654320988,0,0,0.04320987654320988,109.4074074074074,0)" xlink:href="#bd"/><use transform="matrix(0.04320987654320988,0,0,0.04320987654320988,114.54938271604938,0)" xlink:href="#bd"/><use transform="matrix(0.04320987654320988,0,0,0.04320987654320988,119.69135802469135,0)" xlink:href="#bb"/><use transform="matrix(0.04320987654320988,0,0,0.04320987654320988,128.33333333333334,0)" xlink:href="#aY"/><use transform="matrix(0.04320987654320988,0,0,0.04320987654320988,134.38271604938274,0)" xlink:href="#bi"/><use transform="matrix(0.04320987654320988,0,0,0.04320987654320988,143.8456790123457,0)" xlink:href="#bt"/><use transform="matrix(0.04320987654320988,0,0,0.04320987654320988,152.48765432098767,0)" xlink:href="#aW"/><use transform="matrix(0.04320987654320988,0,0,0.04320987654320988,161.12962962962965,0)" xlink:href="#aV"/><use transform="matrix(0.04320987654320988,0,0,0.04320987654320988,169.77160493827162,0)" xlink:href="#bn"/><use transform="matrix(0.04320987654320988,0,0,0.04320987654320988,174.0925925925926,0)" xlink:href="#bw"/><use transform="matrix(0.04320987654320988,0,0,0.04320987654320988,183.55555555555557,0)" xlink:href="#bb"/><use transform="matrix(0.04320987654320988,0,0,0.04320987654320988,192.19753086419755,0)" xlink:href="#bx"/><use transform="matrix(0.04320987654320988,0,0,0.04320987654320988,200.83950617283952,0)" xlink:href="#bj"/></g><path fill="#666" d="M135-194c52 0 70 43 70 98 0 56-19 99-73 100-30 1-46-15-58-35L72 0H24l1-261h50v104c11-23 29-37 60-37zM114-30c31 0 40-27 40-66 0-37-7-63-39-63s-41 28-41 65c0 36 8 64 40 64" id="bK"/><g id="I"><use transform="matrix(0.04320987654320988,0,0,0.04320987654320988,0,0)" xlink:href="#bf"/><use transform="matrix(0.04320987654320988,0,0,0.04320987654320988,9.462962962962964,0)" xlink:href="#bK"/><use transform="matrix(0.04320987654320988,0,0,0.04320987654320988,18.925925925925927,0)" xlink:href="#bF"/><use transform="matrix(0.04320987654320988,0,0,0.04320987654320988,23.246913580246915,0)" xlink:href="#bb"/><use transform="matrix(0.04320987654320988,0,0,0.04320987654320988,31.888888888888893,0)" xlink:href="#bc"/><use transform="matrix(0.04320987654320988,0,0,0.04320987654320988,40.53086419753087,0)" xlink:href="#bd"/></g><g id="J"><use transform="matrix(0.04320987654320988,0,0,0.04320987654320988,0,0)" xlink:href="#bh"/><use transform="matrix(0.04320987654320988,0,0,0.04320987654320988,9.462962962962964,0)" xlink:href="#aV"/><use transform="matrix(0.04320987654320988,0,0,0.04320987654320988,18.10493827160494,0)" xlink:href="#bd"/><use transform="matrix(0.04320987654320988,0,0,0.04320987654320988,23.246913580246915,0)" xlink:href="#bd"/><use transform="matrix(0.04320987654320988,0,0,0.04320987654320988,28.388888888888886,0)" xlink:href="#bb"/><use transform="matrix(0.04320987654320988,0,0,0.04320987654320988,37.03086419753087,0)" xlink:href="#aY"/><use transform="matrix(0.04320987654320988,0,0,0.04320987654320988,43.080246913580254,0)" xlink:href="#bi"/><use transform="matrix(0.04320987654320988,0,0,0.04320987654320988,52.543209876543216,0)" xlink:href="#bx"/></g><g id="K"><use transform="matrix(0.04320987654320988,0,0,0.04320987654320988,0,0)" xlink:href="#bn"/><use transform="matrix(0.04320987654320988,0,0,0.04320987654320988,4.320987654320988,0)" xlink:href="#bG"/><use transform="matrix(0.04320987654320988,0,0,0.04320987654320988,8.641975308641976,0)" xlink:href="#bx"/><use transform="matrix(0.04320987654320988,0,0,0.04320987654320988,17.283950617283953,0)" xlink:href="#bd"/></g><g id="L"><use transform="matrix(0.04320987654320988,0,0,0.04320987654320988,0,0)" xlink:href="#bc"/><use transform="matrix(0.04320987654320988,0,0,0.04320987654320988,8.641975308641976,0)" xlink:href="#aY"/><use transform="matrix(0.04320987654320988,0,0,0.04320987654320988,14.69135802469136,0)" xlink:href="#bb"/><use transform="matrix(0.04320987654320988,0,0,0.04320987654320988,23.333333333333336,0)" xlink:href="#aV"/><use transform="matrix(0.04320987654320988,0,0,0.04320987654320988,31.97530864197531,0)" xlink:href="#bd"/><use transform="matrix(0.04320987654320988,0,0,0.04320987654320988,37.117283950617285,0)" xlink:href="#bb"/><use transform="matrix(0.04320987654320988,0,0,0.04320987654320988,45.75925925925927,0)" xlink:href="#bt"/><use transform="matrix(0.04320987654320988,0,0,0.04320987654320988,54.40123456790123,0)" xlink:href="#bh"/><use transform="matrix(0.04320987654320988,0,0,0.04320987654320988,63.864197530864196,0)" xlink:href="#aV"/><use transform="matrix(0.04320987654320988,0,0,0.04320987654320988,72.50617283950618,0)" xlink:href="#bd"/><use transform="matrix(0.04320987654320988,0,0,0.04320987654320988,77.64814814814815,0)" xlink:href="#bd"/><use transform="matrix(0.04320987654320988,0,0,0.04320987654320988,82.79012345679013,0)" xlink:href="#bb"/><use transform="matrix(0.04320987654320988,0,0,0.04320987654320988,91.4320987654321,0)" xlink:href="#aY"/><use transform="matrix(0.04320987654320988,0,0,0.04320987654320988,97.48148148148147,0)" xlink:href="#bi"/><use transform="matrix(0.04320987654320988,0,0,0.04320987654320988,106.94444444444444,0)" xlink:href="#bt"/><use transform="matrix(0.04320987654320988,0,0,0.04320987654320988,115.58641975308642,0)" xlink:href="#bs"/><use transform="matrix(0.04320987654320988,0,0,0.04320987654320988,125.04938271604938,0)" xlink:href="#bG"/><use transform="matrix(0.04320987654320988,0,0,0.04320987654320988,129.37037037037038,0)" xlink:href="#bc"/><use transform="matrix(0.04320987654320988,0,0,0.04320987654320988,138.01234567901236,0)" xlink:href="#bd"/><use transform="matrix(0.04320987654320988,0,0,0.04320987654320988,143.15432098765433,0)" xlink:href="#bt"/><use transform="matrix(0.04320987654320988,0,0,0.04320987654320988,151.7962962962963,0)" xlink:href="#bn"/><use transform="matrix(0.04320987654320988,0,0,0.04320987654320988,156.1172839506173,0)" xlink:href="#bG"/><use transform="matrix(0.04320987654320988,0,0,0.04320987654320988,160.43827160493828,0)" xlink:href="#bx"/><use transform="matrix(0.04320987654320988,0,0,0.04320987654320988,169.08024691358025,0)" xlink:href="#bd"/><use transform="matrix(0.04320987654320988,0,0,0.04320987654320988,174.22222222222223,0)" xlink:href="#aZ"/><use transform="matrix(0.04320987654320988,0,0,0.04320987654320988,179.3641975308642,0)" xlink:href="#bh"/><use transform="matrix(0.04320987654320988,0,0,0.04320987654320988,188.8271604938272,0)" xlink:href="#aV"/><use transform="matrix(0.04320987654320988,0,0,0.04320987654320988,197.46913580246917,0)" xlink:href="#bd"/><use transform="matrix(0.04320987654320988,0,0,0.04320987654320988,202.61111111111114,0)" xlink:href="#bd"/><use transform="matrix(0.04320987654320988,0,0,0.04320987654320988,207.75308641975312,0)" xlink:href="#bb"/><use transform="matrix(0.04320987654320988,0,0,0.04320987654320988,216.39506172839504,0)" xlink:href="#aY"/><use transform="matrix(0.04320987654320988,0,0,0.04320987654320988,222.44444444444446,0)" xlink:href="#bi"/><use transform="matrix(0.04320987654320988,0,0,0.04320987654320988,231.90740740740742,0)" xlink:href="#bx"/><use transform="matrix(0.04320987654320988,0,0,0.04320987654320988,240.54938271604942,0)" xlink:href="#bj"/></g><path fill="#666" d="M123 10C108 53 80 86 19 72V37c35 8 53-11 59-39L3-190h52l48 148c12-52 28-100 44-148h51" id="bL"/><g id="M"><use transform="matrix(0.04320987654320988,0,0,0.04320987654320988,0,0)" xlink:href="#bs"/><use transform="matrix(0.04320987654320988,0,0,0.04320987654320988,9.462962962962964,0)" xlink:href="#bG"/><use transform="matrix(0.04320987654320988,0,0,0.04320987654320988,13.783950617283953,0)" xlink:href="#bc"/><use transform="matrix(0.04320987654320988,0,0,0.04320987654320988,22.425925925925934,0)" xlink:href="#bd"/><use transform="matrix(0.04320987654320988,0,0,0.04320987654320988,27.567901234567906,0)" xlink:href="#bG"/><use transform="matrix(0.04320987654320988,0,0,0.04320987654320988,31.888888888888893,0)" xlink:href="#bf"/><use transform="matrix(0.04320987654320988,0,0,0.04320987654320988,41.351851851851855,0)" xlink:href="#bi"/><use transform="matrix(0.04320987654320988,0,0,0.04320987654320988,50.81481481481482,0)" xlink:href="#aV"/><use transform="matrix(0.04320987654320988,0,0,0.04320987654320988,59.456790123456784,0)" xlink:href="#aY"/><use transform="matrix(0.04320987654320988,0,0,0.04320987654320988,65.50617283950618,0)" xlink:href="#bL"/></g><g id="N"><use transform="matrix(0.04320987654320988,0,0,0.04320987654320988,0,0)" xlink:href="#bF"/><use transform="matrix(0.04320987654320988,0,0,0.04320987654320988,4.320987654320988,0)" xlink:href="#bx"/><use transform="matrix(0.04320987654320988,0,0,0.04320987654320988,12.962962962962964,0)" xlink:href="#bf"/><use transform="matrix(0.04320987654320988,0,0,0.04320987654320988,22.425925925925934,0)" xlink:href="#bi"/></g><g id="O"><use transform="matrix(0.04320987654320988,0,0,0.04320987654320988,0,0)" xlink:href="#bz"/><use transform="matrix(0.04320987654320988,0,0,0.04320987654320988,9.462962962962964,0)" xlink:href="#bb"/><use transform="matrix(0.04320987654320988,0,0,0.04320987654320988,18.10493827160494,0)" xlink:href="#bd"/><use transform="matrix(0.04320987654320988,0,0,0.04320987654320988,23.246913580246915,0)" xlink:href="#bt"/><use transform="matrix(0.04320987654320988,0,0,0.04320987654320988,31.888888888888893,0)" xlink:href="#bh"/><use transform="matrix(0.04320987654320988,0,0,0.04320987654320988,41.351851851851855,0)" xlink:href="#aV"/><use transform="matrix(0.04320987654320988,0,0,0.04320987654320988,49.99382716049383,0)" xlink:href="#bd"/><use transform="matrix(0.04320987654320988,0,0,0.04320987654320988,55.13580246913581,0)" xlink:href="#bd"/><use transform="matrix(0.04320987654320988,0,0,0.04320987654320988,60.27777777777777,0)" xlink:href="#bb"/><use transform="matrix(0.04320987654320988,0,0,0.04320987654320988,68.91975308641976,0)" xlink:href="#aY"/><use transform="matrix(0.04320987654320988,0,0,0.04320987654320988,74.96913580246914,0)" xlink:href="#bi"/><use transform="matrix(0.04320987654320988,0,0,0.04320987654320988,84.4320987654321,0)" xlink:href="#bx"/><use transform="matrix(0.04320987654320988,0,0,0.04320987654320988,93.07407407407409,0)" xlink:href="#bt"/><use transform="matrix(0.04320987654320988,0,0,0.04320987654320988,101.71604938271606,0)" xlink:href="#bG"/><use transform="matrix(0.04320987654320988,0,0,0.04320987654320988,106.03703703703702,0)" xlink:href="#bi"/><use transform="matrix(0.04320987654320988,0,0,0.04320987654320988,115.49999999999999,0)" xlink:href="#bt"/><use transform="matrix(0.04320987654320988,0,0,0.04320987654320988,124.14197530864197,0)" xlink:href="#bv"/><use transform="matrix(0.04320987654320988,0,0,0.04320987654320988,133.60493827160494,0)" xlink:href="#bw"/><use transform="matrix(0.04320987654320988,0,0,0.04320987654320988,143.0679012345679,0)" xlink:href="#bb"/><use transform="matrix(0.04320987654320988,0,0,0.04320987654320988,151.70987654320987,0)" xlink:href="#bw"/><use transform="matrix(0.04320987654320988,0,0,0.04320987654320988,161.17283950617283,0)" xlink:href="#bb"/><use transform="matrix(0.04320987654320988,0,0,0.04320987654320988,169.8148148148148,0)" xlink:href="#aZ"/><use transform="matrix(0.04320987654320988,0,0,0.04320987654320988,174.95679012345678,0)" xlink:href="#bw"/><use transform="matrix(0.04320987654320988,0,0,0.04320987654320988,184.41975308641975,0)" xlink:href="#bx"/><use transform="matrix(0.04320987654320988,0,0,0.04320987654320988,193.06172839506172,0)" xlink:href="#bb"/><use transform="matrix(0.04320987654320988,0,0,0.04320987654320988,201.7037037037037,0)" xlink:href="#aY"/><use transform="matrix(0.04320987654320988,0,0,0.04320987654320988,207.75308641975312,0)" xlink:href="#bt"/><use transform="matrix(0.04320987654320988,0,0,0.04320987654320988,216.39506172839504,0)" xlink:href="#bb"/><use transform="matrix(0.04320987654320988,0,0,0.04320987654320988,225.037037037037,0)" xlink:href="#bg"/><use transform="matrix(0.04320987654320988,0,0,0.04320987654320988,238.86419753086423,0)" xlink:href="#aV"/><use transform="matrix(0.04320987654320988,0,0,0.04320987654320988,247.50617283950615,0)" xlink:href="#bG"/><use transform="matrix(0.04320987654320988,0,0,0.04320987654320988,251.82716049382714,0)" xlink:href="#bn"/><use transform="matrix(0.04320987654320988,0,0,0.04320987654320988,256.14814814814815,0)" xlink:href="#bj"/></g><path fill="#666" d="M147 0L96-86 75-71V0H25v-261h50v150l67-79h53l-66 74L201 0h-54" id="bM"/><g id="P"><use transform="matrix(0.04320987654320988,0,0,0.04320987654320988,0,0)" xlink:href="#bz"/><use transform="matrix(0.04320987654320988,0,0,0.04320987654320988,9.462962962962964,0)" xlink:href="#bb"/><use transform="matrix(0.04320987654320988,0,0,0.04320987654320988,18.10493827160494,0)" xlink:href="#bd"/><use transform="matrix(0.04320987654320988,0,0,0.04320987654320988,23.246913580246915,0)" xlink:href="#bt"/><use transform="matrix(0.04320987654320988,0,0,0.04320987654320988,31.888888888888893,0)" xlink:href="#bM"/><use transform="matrix(0.04320987654320988,0,0,0.04320987654320988,40.53086419753087,0)" xlink:href="#bi"/><use transform="matrix(0.04320987654320988,0,0,0.04320987654320988,49.99382716049383,0)" xlink:href="#bG"/><use transform="matrix(0.04320987654320988,0,0,0.04320987654320988,54.314814814814824,0)" xlink:href="#bd"/><use transform="matrix(0.04320987654320988,0,0,0.04320987654320988,59.456790123456784,0)" xlink:href="#bd"/><use transform="matrix(0.04320987654320988,0,0,0.04320987654320988,64.59876543209877,0)" xlink:href="#bG"/><use transform="matrix(0.04320987654320988,0,0,0.04320987654320988,68.91975308641976,0)" xlink:href="#bi"/><use transform="matrix(0.04320987654320988,0,0,0.04320987654320988,78.38271604938272,0)" xlink:href="#bz"/><use transform="matrix(0.04320987654320988,0,0,0.04320987654320988,87.84567901234568,0)" xlink:href="#bt"/><use transform="matrix(0.04320987654320988,0,0,0.04320987654320988,96.48765432098766,0)" xlink:href="#bh"/><use transform="matrix(0.04320987654320988,0,0,0.04320987654320988,105.95061728395063,0)" xlink:href="#aV"/><use transform="matrix(0.04320987654320988,0,0,0.04320987654320988,114.59259259259261,0)" xlink:href="#bd"/><use transform="matrix(0.04320987654320988,0,0,0.04320987654320988,119.73456790123456,0)" xlink:href="#bd"/><use transform="matrix(0.04320987654320988,0,0,0.04320987654320988,124.87654320987653,0)" xlink:href="#bb"/><use transform="matrix(0.04320987654320988,0,0,0.04320987654320988,133.51851851851853,0)" xlink:href="#aY"/><use transform="matrix(0.04320987654320988,0,0,0.04320987654320988,139.56790123456793,0)" xlink:href="#bi"/><use transform="matrix(0.04320987654320988,0,0,0.04320987654320988,149.0308641975309,0)" xlink:href="#bx"/><use transform="matrix(0.04320987654320988,0,0,0.04320987654320988,157.67283950617286,0)" xlink:href="#bt"/><use transform="matrix(0.04320987654320988,0,0,0.04320987654320988,166.31481481481484,0)" xlink:href="#bK"/><use transform="matrix(0.04320987654320988,0,0,0.04320987654320988,175.7777777777778,0)" xlink:href="#bL"/><use transform="matrix(0.04320987654320988,0,0,0.04320987654320988,184.41975308641977,0)" xlink:href="#bt"/><use transform="matrix(0.04320987654320988,0,0,0.04320987654320988,193.06172839506175,0)" xlink:href="#bG"/><use transform="matrix(0.04320987654320988,0,0,0.04320987654320988,197.38271604938274,0)" xlink:href="#bs"/><use transform="matrix(0.04320987654320988,0,0,0.04320987654320988,206.8456790123457,0)" xlink:href="#bx"/><use transform="matrix(0.04320987654320988,0,0,0.04320987654320988,215.48765432098767,0)" xlink:href="#aZ"/><use transform="matrix(0.04320987654320988,0,0,0.04320987654320988,220.62962962962965,0)" xlink:href="#bh"/><use transform="matrix(0.04320987654320988,0,0,0.04320987654320988,230.0925925925926,0)" xlink:href="#aV"/><use transform="matrix(0.04320987654320988,0,0,0.04320987654320988,238.73456790123458,0)" xlink:href="#bd"/><use transform="matrix(0.04320987654320988,0,0,0.04320987654320988,243.87654320987656,0)" xlink:href="#bd"/><use transform="matrix(0.04320987654320988,0,0,0.04320987654320988,249.01851851851853,0)" xlink:href="#bb"/><use transform="matrix(0.04320987654320988,0,0,0.04320987654320988,257.6604938271605,0)" xlink:href="#aY"/><use transform="matrix(0.04320987654320988,0,0,0.04320987654320988,263.7098765432099,0)" xlink:href="#bi"/><use transform="matrix(0.04320987654320988,0,0,0.04320987654320988,273.17283950617286,0)" xlink:href="#bt"/><use transform="matrix(0.04320987654320988,0,0,0.04320987654320988,281.81481481481484,0)" xlink:href="#bG"/><use transform="matrix(0.04320987654320988,0,0,0.04320987654320988,286.13580246913585,0)" xlink:href="#bs"/><use transform="matrix(0.04320987654320988,0,0,0.04320987654320988,295.59876543209884,0)" xlink:href="#bx"/><use transform="matrix(0.04320987654320988,0,0,0.04320987654320988,304.2407407407408,0)" xlink:href="#bj"/></g><path fill="#666" d="M24 0v-248h52v208h133V0H24" id="bN"/><g id="Q"><use transform="matrix(0.04320987654320988,0,0,0.04320987654320988,0,0)" xlink:href="#aZ"/><use transform="matrix(0.04320987654320988,0,0,0.04320987654320988,5.1419753086419755,0)" xlink:href="#bN"/><use transform="matrix(0.04320987654320988,0,0,0.04320987654320988,14.60493827160494,0)" xlink:href="#bf"/><use transform="matrix(0.04320987654320988,0,0,0.04320987654320988,24.067901234567906,0)" xlink:href="#bc"/><use transform="matrix(0.04320987654320988,0,0,0.04320987654320988,32.70987654320988,0)" xlink:href="#aV"/><use transform="matrix(0.04320987654320988,0,0,0.04320987654320988,41.351851851851855,0)" xlink:href="#bn"/></g><path fill="#666" d="M24-248c120-7 223 5 221 122C244-46 201 0 124 0H24v-248zM76-40c74 7 117-18 117-86 0-67-45-88-117-82v168" id="bO"/><g id="R"><use transform="matrix(0.04320987654320988,0,0,0.04320987654320988,0,0)" xlink:href="#bO"/><use transform="matrix(0.04320987654320988,0,0,0.04320987654320988,11.19135802469136,0)" xlink:href="#aX"/><use transform="matrix(0.04320987654320988,0,0,0.04320987654320988,22.38271604938272,0)" xlink:href="#bj"/></g><g id="S"><use transform="matrix(0.04320987654320988,0,0,0.04320987654320988,0,0)" xlink:href="#bz"/><use transform="matrix(0.04320987654320988,0,0,0.04320987654320988,9.462962962962964,0)" xlink:href="#bb"/><use transform="matrix(0.04320987654320988,0,0,0.04320987654320988,18.10493827160494,0)" xlink:href="#bd"/></g><g id="T"><use transform="matrix(0.04320987654320988,0,0,0.04320987654320988,0,0)" xlink:href="#bw"/><use transform="matrix(0.04320987654320988,0,0,0.04320987654320988,9.462962962962964,0)" xlink:href="#bx"/><use transform="matrix(0.04320987654320988,0,0,0.04320987654320988,18.10493827160494,0)" xlink:href="#bb"/><use transform="matrix(0.04320987654320988,0,0,0.04320987654320988,26.746913580246915,0)" xlink:href="#aY"/><use transform="matrix(0.04320987654320988,0,0,0.04320987654320988,32.796296296296305,0)" xlink:href="#bI"/><use transform="matrix(0.04320987654320988,0,0,0.04320987654320988,36.46913580246915,0)" xlink:href="#bx"/></g><g id="U"><use transform="matrix(0.04320987654320988,0,0,0.04320987654320988,0,0)" xlink:href="#bv"/><use transform="matrix(0.04320987654320988,0,0,0.04320987654320988,9.462962962962964,0)" xlink:href="#bw"/><use transform="matrix(0.04320987654320988,0,0,0.04320987654320988,18.925925925925927,0)" xlink:href="#bb"/><use transform="matrix(0.04320987654320988,0,0,0.04320987654320988,27.567901234567906,0)" xlink:href="#bw"/><use transform="matrix(0.04320987654320988,0,0,0.04320987654320988,37.03086419753087,0)" xlink:href="#bb"/></g><g id="V"><use transform="matrix(0.04320987654320988,0,0,0.04320987654320988,0,0)" xlink:href="#bK"/><use transform="matrix(0.04320987654320988,0,0,0.04320987654320988,9.462962962962964,0)" xlink:href="#bL"/></g><g id="W"><use transform="matrix(0.04320987654320988,0,0,0.04320987654320988,0,0)" xlink:href="#bw"/><use transform="matrix(0.04320987654320988,0,0,0.04320987654320988,9.462962962962964,0)" xlink:href="#bx"/><use transform="matrix(0.04320987654320988,0,0,0.04320987654320988,18.10493827160494,0)" xlink:href="#bb"/><use transform="matrix(0.04320987654320988,0,0,0.04320987654320988,26.746913580246915,0)" xlink:href="#aY"/><use transform="matrix(0.04320987654320988,0,0,0.04320987654320988,32.796296296296305,0)" xlink:href="#bt"/><use transform="matrix(0.04320987654320988,0,0,0.04320987654320988,41.43827160493828,0)" xlink:href="#bb"/><use transform="matrix(0.04320987654320988,0,0,0.04320987654320988,50.080246913580254,0)" xlink:href="#bg"/><use transform="matrix(0.04320987654320988,0,0,0.04320987654320988,63.90740740740741,0)" xlink:href="#aV"/><use transform="matrix(0.04320987654320988,0,0,0.04320987654320988,72.5493827160494,0)" xlink:href="#bG"/><use transform="matrix(0.04320987654320988,0,0,0.04320987654320988,76.87037037037038,0)" xlink:href="#bn"/></g><g id="X"><use transform="matrix(0.04320987654320988,0,0,0.04320987654320988,0,0)" xlink:href="#bw"/><use transform="matrix(0.04320987654320988,0,0,0.04320987654320988,9.462962962962964,0)" xlink:href="#bx"/><use transform="matrix(0.04320987654320988,0,0,0.04320987654320988,18.10493827160494,0)" xlink:href="#bb"/><use transform="matrix(0.04320987654320988,0,0,0.04320987654320988,26.746913580246915,0)" xlink:href="#aY"/><use transform="matrix(0.04320987654320988,0,0,0.04320987654320988,32.796296296296305,0)" xlink:href="#bI"/><use transform="matrix(0.04320987654320988,0,0,0.04320987654320988,36.46913580246915,0)" xlink:href="#bx"/></g><g id="Y"><use transform="matrix(0.04320987654320988,0,0,0.04320987654320988,0,0)" xlink:href="#bv"/><use transform="matrix(0.04320987654320988,0,0,0.04320987654320988,9.462962962962964,0)" xlink:href="#bw"/><use transform="matrix(0.04320987654320988,0,0,0.04320987654320988,18.925925925925927,0)" xlink:href="#bb"/><use transform="matrix(0.04320987654320988,0,0,0.04320987654320988,27.567901234567906,0)" xlink:href="#bw"/><use transform="matrix(0.04320987654320988,0,0,0.04320987654320988,37.03086419753087,0)" xlink:href="#bb"/></g><path fill="#666" d="M67-125c0 54 23 88 75 88 28 0 53-7 68-21v-34h-60v-39h108v91C232-14 192 4 140 4 58 4 20-42 15-125 8-236 126-280 215-234c19 10 29 26 37 47l-47 15c-11-23-29-39-63-39-53 1-75 33-75 86" id="bP"/><g id="Z"><use transform="matrix(0.0528678413602485,0,0,0.0528678413602485,0,0)" xlink:href="#bP"/><use transform="matrix(0.0528678413602485,0,0,0.0528678413602485,14.802995580869581,0)" xlink:href="#bb"/><use transform="matrix(0.0528678413602485,0,0,0.0528678413602485,25.376563852919283,0)" xlink:href="#bd"/></g><g id="aa"><use transform="matrix(0.0528678413602485,0,0,0.0528678413602485,0,0)" xlink:href="#bO"/><use transform="matrix(0.0528678413602485,0,0,0.0528678413602485,13.692770912304363,0)" xlink:href="#bb"/><use transform="matrix(0.0528678413602485,0,0,0.0528678413602485,24.266339184354063,0)" xlink:href="#bd"/><use transform="matrix(0.0528678413602485,0,0,0.0528678413602485,30.557612306223636,0)" xlink:href="#aV"/><use transform="matrix(0.0528678413602485,0,0,0.0528678413602485,41.13118057827334,0)" xlink:href="#bG"/><use transform="matrix(0.0528678413602485,0,0,0.0528678413602485,46.417964714298186,0)" xlink:href="#bn"/><use transform="matrix(0.0528678413602485,0,0,0.0528678413602485,51.704748850323035,0)" xlink:href="#bb"/><use transform="matrix(0.0528678413602485,0,0,0.0528678413602485,62.278317122372734,0)" xlink:href="#bs"/></g><g id="ab"><use transform="matrix(0.0528678413602485,0,0,0.0528678413602485,0,0)" xlink:href="#bp"/><use transform="matrix(0.0528678413602485,0,0,0.0528678413602485,12.688281926459641,0)" xlink:href="#aV"/><use transform="matrix(0.0528678413602485,0,0,0.0528678413602485,23.261850198509343,0)" xlink:href="#bd"/><use transform="matrix(0.0528678413602485,0,0,0.0528678413602485,29.553123320378912,0)" xlink:href="#bd"/><use transform="matrix(0.0528678413602485,0,0,0.0528678413602485,35.84439644224849,0)" xlink:href="#bb"/><use transform="matrix(0.0528678413602485,0,0,0.0528678413602485,46.417964714298186,0)" xlink:href="#aY"/><use transform="matrix(0.0528678413602485,0,0,0.0528678413602485,53.819462504732975,0)" xlink:href="#bi"/></g><path fill="#666" d="M147 0H94L2-248h55l64 206c17-72 42-137 63-206h54" id="bQ"/><path fill="#666" d="M231 0h-52l-39-155L100 0H48L-1-190h46L77-45c9-52 24-97 36-145h53l37 145 32-145h46" id="bR"/><g id="ac"><use transform="matrix(0.0528678413602485,0,0,0.0528678413602485,0,0)" xlink:href="#bQ"/><use transform="matrix(0.0528678413602485,0,0,0.0528678413602485,12.318207036937903,0)" xlink:href="#bG"/><use transform="matrix(0.0528678413602485,0,0,0.0528678413602485,17.60499117296275,0)" xlink:href="#bb"/><use transform="matrix(0.0528678413602485,0,0,0.0528678413602485,28.178559445012453,0)" xlink:href="#bR"/></g></defs></g></svg>