<svg xmlns="http://www.w3.org/2000/svg" xmlns:xlink="http://www.w3.org/1999/xlink" xmlns:lucid="lucid" width="1692.13" height="1448.68"><g transform="translate(-165.33333333333331 -62.31516101695709)" lucid:page-tab-id="0_0"><path d="M0 0h2038.67v1575.33H0z" fill="#fff"/><path d="M539.25 94.32c0-6.63 5.37-12 12-12h936.17c6.63 0 12 5.37 12 12v60.13c0 6.63-5.37 12-12 12H551.25c-6.63 0-12-5.37-12-12z" stroke="#000" stroke-opacity="0" stroke-width="2" fill="#fff" fill-opacity="0"/><use xlink:href="#a" transform="matrix(1,0,0,1,544.2462235098837,87.31516101695709) translate(237.3552469135803 43.67777777777778)"/><use xlink:href="#b" transform="matrix(1,0,0,1,544.2462235098837,87.31516101695709) translate(313.03302469135804 43.67777777777778)"/><use xlink:href="#c" transform="matrix(1,0,0,1,544.2462235098837,87.31516101695709) translate(347.69722222222225 43.67777777777778)"/><use xlink:href="#d" transform="matrix(1,0,0,1,544.2462235098837,87.31516101695709) translate(424.74783950617285 43.67777777777778)"/><use xlink:href="#e" transform="matrix(1,0,0,1,544.2462235098837,87.31516101695709) translate(499.395987654321 43.67777777777778)"/><use xlink:href="#f" transform="matrix(1,0,0,1,544.2462235098837,87.31516101695709) translate(590.2608024691358 43.67777777777778)"/><path d="M794.38 168.7c0-6.6 5.37-12 12-12h430c6.63 0 12 5.4 12 12v9.94c0 6.63-5.37 12-12 12h-430c-6.63 0-12-5.37-12-12z" stroke="#000" stroke-opacity="0" stroke-width="2" fill="#fff" fill-opacity="0"/><use xlink:href="#g" transform="matrix(1,0,0,1,799.3778077172658,161.71249134382649) translate(62.71077674897123 15.603703703703705)"/><use xlink:href="#h" transform="matrix(1,0,0,1,799.3778077172658,161.71249134382649) translate(102.65182613168727 15.603703703703705)"/><use xlink:href="#i" transform="matrix(1,0,0,1,799.3778077172658,161.71249134382649) translate(252.6059413580247 15.603703703703705)"/><use xlink:href="#j" transform="matrix(1,0,0,1,799.3778077172658,161.71249134382649) translate(267.2710133744856 15.603703703703705)"/><use xlink:href="#k" transform="matrix(1,0,0,1,799.3778077172658,161.71249134382649) translate(322.22749485596705 15.603703703703705)"/><use xlink:href="#l" transform="matrix(1,0,0,1,799.3778077172658,161.71249134382649) translate(342.2480709876543 15.603703703703705)"/><path d="M760.64 156.47h521.58M760.64 156.47h-3M1282.22 156.47h3" stroke="#b2b2b2" stroke-width="2" fill="none"/><path d="M684.4 764.5h160v120h-160z" stroke="#000" stroke-width="2" fill="#a3d977"/><use xlink:href="#m" transform="matrix(1,0,0,1,692.3984651857796,772.5) translate(21.074999999999996 55.6)"/><path d="M453.87 973h160v120h-160z" stroke="#000" stroke-width="2" fill="#a3d977"/><use xlink:href="#n" transform="matrix(1,0,0,1,461.87311175498064,981) translate(12.149999999999991 55.6)"/><path d="M986.7 996.17h160v120h-160z" stroke="#000" stroke-width="2" fill="#a3d977"/><use xlink:href="#o" transform="matrix(1,0,0,1,994.7064450883138,1004.166666666667) translate(6.599999999999994 55.6)"/><path d="M652.65 973h225.78v120H652.65z" stroke="#000" stroke-width="2" fill="#a3d977"/><use xlink:href="#p" transform="matrix(1,0,0,1,660.6522416758959,981) translate(18.174999999999997 55.6)"/><path d="M592.87 1204.67h160v120h-160z" stroke="#000" stroke-width="2" fill="#ffdf71"/><use xlink:href="#q" transform="matrix(1,0,0,1,600.8731117549806,1212.666666666667) translate(24.099999999999994 55.6)"/><use xlink:href="#r" transform="matrix(1,0,0,1,600.8731117549806,1212.666666666667) translate(61.949999999999996 55.6)"/><path d="M844.4 1251h160v120h-160z" stroke="#000" stroke-width="2" fill="#ffdf71"/><use xlink:href="#s" transform="matrix(1,0,0,1,852.3984651857796,1259.0000000000005) translate(43.025 55.6)"/><path d="M1102.54 1227.83h160v120h-160z" stroke="#000" stroke-width="2" fill="#ffdf71"/><use xlink:href="#t" transform="matrix(1,0,0,1,1110.5397784216475,1235.8333333333335) translate(53.7 55.6)"/><path d="M1102.54 1371h160v120h-160z" stroke="#000" stroke-width="2" fill="#ffdf71"/><use xlink:href="#u" transform="matrix(1,0,0,1,1110.5397784216475,1379.0000000000005) translate(39.05 55.6)"/><path d="M1677.46 1204.67h160v120h-160z" stroke="#000" stroke-width="2" fill="#ffdf71"/><use xlink:href="#v" transform="matrix(1,0,0,1,1685.4602215784305,1212.666666666667) translate(45 55.6)"/><path d="M1450.04 1204.67h160v120h-160z" stroke="#000" stroke-width="2" fill="#ffdf71"/><use xlink:href="#w" transform="matrix(1,0,0,1,1458.0397784216473,1212.666666666667) translate(53.05 55.6)"/><path d="M1378.37 973h231.67v120h-231.67z" stroke="#000" stroke-width="2" fill="#a3d977"/><use xlink:href="#x" transform="matrix(1,0,0,1,1386.3731117549814,981.0000000000002) translate(8.650000000000006 55.6)"/><path d="M765.54 885.5v68" stroke="#000" stroke-width="2" fill="none"/><path d="M766.54 885.5h-2v-1h2z"/><path d="M765.54 968.76l-4.64-14.26h9.28z" stroke="#000" stroke-width="2"/><use xlink:href="#y" transform="matrix(1,0,0,1,773.5397784216472,951.2000000000002) translate(0 14.4)"/><path d="M715.66 885.5v43.25h-181.8v24.75" stroke="#000" stroke-width="2" fill="none"/><path d="M716.66 885.5h-2v-1h2z"/><path d="M533.87 968.76l-4.63-14.26h9.27z" stroke="#000" stroke-width="2"/><use xlink:href="#y" transform="matrix(1,0,0,1,541.8731117549806,951.2000000000003) translate(0 14.4)"/><path d="M814.1 885.5v54.83h252.6v36.33" stroke="#000" stroke-width="2" fill="none"/><path d="M815.1 885.5h-2v-1h2z"/><path d="M1066.7 991.93l-4.63-14.27h9.27z" stroke="#000" stroke-width="2"/><use xlink:href="#y" transform="matrix(1,0,0,1,1074.7064450883138,974.3666666666672) translate(0 14.4)"/><path d="M705.23 1094v91.16" stroke="#000" stroke-width="2" fill="none"/><path d="M706.23 1094h-2v-1h2z"/><path d="M705.23 1200.43l-4.63-14.27h9.27z" stroke="#000" stroke-width="2"/><use xlink:href="#z" transform="matrix(1,0,0,1,713.2314450883141,1182.866666666667) translate(0 14.4)"/><path d="M1066.7 1117.17v66.4H924.4v47.93" stroke="#000" stroke-width="2" fill="none"/><path d="M1067.7 1117.17h-2v-1h2z"/><path d="M924.4 1246.76l-4.64-14.26h9.27z" stroke="#000" stroke-width="2"/><use xlink:href="#z" transform="matrix(1,0,0,1,932.3984651857796,1229.2000000000005) translate(0 14.4)"/><path d="M985.7 1033.23h-53.13v-.23h-34.64" stroke="#000" stroke-width="2" fill="none"/><path d="M986.7 1034.23h-1v-2h1z"/><path d="M882.66 1033l14.27-4.64v9.28z" stroke="#000" stroke-width="2" fill="#fff"/><path d="M1005.4 1355.25h48.07V1431h29.57" stroke="#000" stroke-width="2" fill="none"/><path d="M1005.4 1356.25h-1v-2h1z"/><path d="M1098.3 1431l-14.26 4.64v-9.28z" stroke="#000" stroke-width="2"/><use xlink:href="#z" transform="matrix(1,0,0,1,1075.0397784216475,1405.4000000000005) translate(0 14.4)"/><path d="M1611.04 1235.94h46.92" stroke="#000" stroke-width="2" fill="none"/><path d="M1611.04 1236.94h-1v-2h1z"/><path d="M1673.22 1235.94l-14.26 4.64v-9.27z" stroke="#000" stroke-width="2"/><use xlink:href="#A" transform="matrix(1,0,0,1,1646.4602215784305,1210.341666666667) translate(0 14.4)"/><path d="M1676.46 1282.28h-46.92" stroke="#000" stroke-width="2" fill="none"/><path d="M1677.46 1283.28h-1v-2h1z"/><path d="M1614.28 1282.28l14.26-4.64v9.27z" stroke="#000" stroke-width="2"/><use xlink:href="#y" transform="matrix(1,0,0,1,1611.0397784216473,1286.275) translate(0 14.4)"/><path d="M843.4 1277.64h-71.02" stroke="#000" stroke-width="2" fill="none"/><path d="M844.4 1278.64h-1v-2h1z"/><path d="M757.1 1277.64l14.28-4.63v9.28z" stroke="#000" stroke-width="2" fill="#fff"/><path d="M1005.4 1311h77.64" stroke="#000" stroke-width="2" fill="none"/><path d="M1005.4 1312h-1v-2h1z"/><path d="M1098.3 1311l-14.26 4.64v-9.28z" stroke="#000" stroke-width="2"/><use xlink:href="#z" transform="matrix(1,0,0,1,1075.0397784216475,1285.4000000000005) translate(0 14.4)"/><path d="M486.5 305.33h160v120h-160z" stroke="#000" stroke-width="2" fill="#99d2f2"/><use xlink:href="#B" transform="matrix(1,0,0,1,494.5000000000001,313.33333333333337) translate(36.525 55.6)"/><path d="M740.3 305.33h160v120h-160z" stroke="#000" stroke-width="2" fill="#99d2f2"/><use xlink:href="#C" transform="matrix(1,0,0,1,748.3079799025335,313.33333333333337) translate(42.525 55.6)"/><path d="M999.47 305.33h160v120h-160z" stroke="#000" stroke-width="2" fill="#99d2f2"/><use xlink:href="#D" transform="matrix(1,0,0,1,1007.474646569201,313.33333333333337) translate(29.074999999999996 55.6)"/><path d="M1272.36 231.67h208.5v120h-208.5z" stroke="#000" stroke-width="2" fill="#99d2f2"/><use xlink:href="#E" transform="matrix(1,0,0,1,1280.3578731719404,239.66666666666669) translate(24.599999999999994 55.6)"/><path d="M1278 370.67h185.32v120H1278z" stroke="#000" stroke-width="2" fill="#99d2f2"/><use xlink:href="#F" transform="matrix(1,0,0,1,1285.987323284678,378.6666666666667) translate(17.174999999999983 55.6)"/><path d="M1593.74 231.67h160v120h-160z" stroke="#000" stroke-width="2" fill="#99d2f2"/><use xlink:href="#G" transform="matrix(1,0,0,1,1601.7410997747172,239.66666666666669) translate(6.824999999999989 55.6)"/><path d="M647.5 365.33h73.3" stroke="#000" stroke-width="2" fill="none"/><path d="M647.5 366.33h-1v-2h1z"/><path d="M736.07 365.33l-14.26 4.64v-9.27z" stroke="#000" stroke-width="2"/><use xlink:href="#y" transform="matrix(1,0,0,1,729.3079799025335,339.73333333333335) translate(0 14.4)"/><path d="M901.3 365.33h78.67" stroke="#000" stroke-width="2" fill="none"/><path d="M901.3 366.33h-1v-2h1z"/><path d="M995.24 365.33l-14.27 4.64v-9.27z" stroke="#000" stroke-width="2"/><use xlink:href="#y" transform="matrix(1,0,0,1,988.474646569201,339.73333333333335) translate(0 14.4)"/><path d="M1160.47 328.45h55.45v-36.78h36.94" stroke="#000" stroke-width="2" fill="none"/><path d="M1160.47 329.45h-1v-2h1z"/><path d="M1268.12 291.67l-14.26 4.63v-9.27z" stroke="#000" stroke-width="2"/><use xlink:href="#y" transform="matrix(1,0,0,1,1261.3578731719404,266.06666666666666) translate(0 14.4)"/><path d="M1160.47 400.7h98.02" stroke="#000" stroke-width="2" fill="none"/><path d="M1160.47 401.7h-1v-2h1z"/><path d="M1273.75 400.7l-14.26 4.64v-9.27z" stroke="#000" stroke-width="2"/><use xlink:href="#y" transform="matrix(1,0,0,1,1266.987323284678,375.10493713505275) translate(0 14.4)"/><path d="M1481.86 291.67h92.38" stroke="#000" stroke-width="2" fill="none"/><path d="M1481.86 292.67h-1v-2h1z"/><path d="M1589.5 291.67l-14.26 4.63v-9.27z" stroke="#000" stroke-width="2"/><use xlink:href="#y" transform="matrix(1,0,0,1,1582.7410997747172,266.06666666666666) translate(0 14.4)"/><path d="M973 556h160v120H973z" stroke="#000" stroke-width="2" fill="#f5b5c8"/><use xlink:href="#H" transform="matrix(1,0,0,1,981,564) translate(34.05 55.6)"/><path d="M185.33 1204.67h240v60h-240z" stroke="#000" stroke-opacity="0" stroke-width="2" fill="#ffeca9"/><g><use xlink:href="#I" transform="matrix(1,0,0,1,190.33333333333331,1209.666666666667) translate(59.3570987654321 31.177777777777777)"/></g><path d="M185.33 741.33h240v60h-240z" stroke="#000" stroke-opacity="0" stroke-width="2" fill="#c7e8ac"/><g><use xlink:href="#J" transform="matrix(1,0,0,1,190.33333333333331,746.3333333333335) translate(8.047222222222231 31.177777777777777)"/></g><path d="M185.33 291.67h240v60h-240z" stroke="#000" stroke-opacity="0" stroke-width="2" fill="#c1e4f7"/><g><use xlink:href="#K" transform="matrix(1,0,0,1,190.33333333333331,296.6666666666667) translate(75.57376543209877 31.177777777777777)"/></g><path d="M185.33 579.17h240v60h-240z" stroke="#000" stroke-opacity="0" stroke-width="2" fill="#f9d2de"/><g><use xlink:href="#L" transform="matrix(1,0,0,1,190.33333333333331,584.1666666666667) translate(51.89228395061729 31.177777777777777)"/></g><path d="M1513.74 1158.33h240v60h-240z" stroke="#000" stroke-opacity="0" stroke-width="2" fill-opacity="0"/><g><use xlink:href="#M" transform="matrix(1,0,0,1,1518.7410997747172,1163.3333333333335) translate(8.819444444444457 31.177777777777777)"/><use xlink:href="#N" transform="matrix(1,0,0,1,1518.7410997747172,1163.3333333333335) translate(89.30216049382716 31.177777777777777)"/></g><defs><path fill="#b2b2b2" d="M62-158H24l-5-90h48" id="O"/><path fill="#b2b2b2" d="M195 0l-88-114-31 24V0H24v-248h52v113l112-113h60L142-143 257 0h-62" id="P"/><path fill="#b2b2b2" d="M135-194c87-1 58 113 63 194h-50c-7-57 23-157-34-157-59 0-34 97-39 157H25l-1-190h47c2 12-1 28 3 38 12-26 28-41 61-42" id="Q"/><path fill="#b2b2b2" d="M25-224v-37h50v37H25zM25 0v-190h50V0H25" id="R"/><path fill="#b2b2b2" d="M115-3C79 11 28 4 28-45v-112H4v-33h27l15-45h31v45h36v33H77v99c-1 23 16 31 38 25v30" id="S"/><g id="a"><use transform="matrix(0.08580246913580246,0,0,0.08580246913580246,0,0)" xlink:href="#O"/><use transform="matrix(0.08580246913580246,0,0,0.08580246913580246,7.293209876543209,0)" xlink:href="#P"/><use transform="matrix(0.08580246913580246,0,0,0.08580246913580246,29.516049382716044,0)" xlink:href="#Q"/><use transform="matrix(0.08580246913580246,0,0,0.08580246913580246,48.30679012345677,0)" xlink:href="#R"/><use transform="matrix(0.08580246913580246,0,0,0.08580246913580246,56.88703703703702,0)" xlink:href="#S"/></g><path fill="#b2b2b2" d="M24 0v-248h52V0H24" id="T"/><g id="b"><use transform="matrix(0.08580246913580246,0,0,0.08580246913580246,0,0)" xlink:href="#T"/><use transform="matrix(0.08580246913580246,0,0,0.08580246913580246,8.580246913580245,0)" xlink:href="#S"/><use transform="matrix(0.08580246913580246,0,0,0.08580246913580246,18.790740740740738,0)" xlink:href="#O"/></g><path fill="#b2b2b2" d="M230 0l2-204L168 0h-37L68-204 70 0H24v-248h70l56 185 57-185h69V0h-46" id="U"/><path fill="#b2b2b2" d="M147 0H94L2-248h55l64 206c17-72 42-137 63-206h54" id="V"/><path fill="#b2b2b2" d="M67-125c0 53 21 87 73 88 37 1 54-22 65-47l45 17C233-25 199 4 140 4 58 4 20-42 15-125 8-235 124-281 211-232c18 10 29 29 36 50l-46 12c-8-25-30-41-62-41-52 0-71 34-72 86" id="W"/><g id="c"><use transform="matrix(0.08580246913580246,0,0,0.08580246913580246,0,0)" xlink:href="#U"/><use transform="matrix(0.08580246913580246,0,0,0.08580246913580246,25.654938271604934,0)" xlink:href="#V"/><use transform="matrix(0.08580246913580246,0,0,0.08580246913580246,46.24753086419752,0)" xlink:href="#W"/></g><path fill="#b2b2b2" d="M238-95c0 69-44 99-111 99C63 4 22-25 22-93v-155h51v151c-1 38 19 59 55 60 90 1 49-130 58-211h52v153" id="X"/><path fill="#b2b2b2" d="M24 0v-248h52v208h133V0H24" id="Y"/><g id="d"><use transform="matrix(0.08580246913580246,0,0,0.08580246913580246,0,0)" xlink:href="#X"/><use transform="matrix(0.08580246913580246,0,0,0.08580246913580246,22.222839506172836,0)" xlink:href="#U"/><use transform="matrix(0.08580246913580246,0,0,0.08580246913580246,47.877777777777766,0)" xlink:href="#Y"/></g><path fill="#b2b2b2" d="M25 0v-261h50V0H25" id="Z"/><path fill="#b2b2b2" d="M133-34C117-15 103 5 69 4 32 3 11-16 11-54c-1-60 55-63 116-61 1-26-3-47-28-47-18 1-26 9-28 27l-52-2c7-38 36-58 82-57s74 22 75 68l1 82c-1 14 12 18 25 15v27c-30 8-71 5-69-32zm-48 3c29 0 43-24 42-57-32 0-66-3-65 30 0 17 8 27 23 27" id="aa"/><path fill="#b2b2b2" d="M137-138c1-29-70-34-71-4 15 46 118 7 119 86 1 83-164 76-172 9l43-7c4 19 20 25 44 25 33 8 57-30 24-41C81-84 22-81 20-136c-2-80 154-74 161-7" id="ab"/><g id="e"><use transform="matrix(0.08580246913580246,0,0,0.08580246913580246,0,0)" xlink:href="#W"/><use transform="matrix(0.08580246913580246,0,0,0.08580246913580246,22.222839506172836,0)" xlink:href="#Z"/><use transform="matrix(0.08580246913580246,0,0,0.08580246913580246,30.80308641975308,0)" xlink:href="#aa"/><use transform="matrix(0.08580246913580246,0,0,0.08580246913580246,47.963580246913565,0)" xlink:href="#ab"/><use transform="matrix(0.08580246913580246,0,0,0.08580246913580246,65.12407407407406,0)" xlink:href="#ab"/></g><path fill="#b2b2b2" d="M24-248c120-7 223 5 221 122C244-46 201 0 124 0H24v-248zM76-40c74 7 117-18 117-86 0-67-45-88-117-82v168" id="ac"/><path fill="#b2b2b2" d="M195-6C206 82 75 100 31 46c-4-6-6-13-8-21l49-6c3 16 16 24 34 25 40 0 42-37 40-79-11 22-30 35-61 35-53 0-70-43-70-97 0-56 18-96 73-97 30 0 46 14 59 34l2-30h47zm-90-29c32 0 41-27 41-63 0-35-9-62-40-62-32 0-39 29-40 63 0 36 9 62 39 62" id="ad"/><path fill="#b2b2b2" d="M135-150c-39-12-60 13-60 57V0H25l-1-190h47c2 13-1 29 3 40 6-28 27-53 61-41v41" id="ae"/><path fill="#b2b2b2" d="M220-157c-53 9-28 100-34 157h-49v-107c1-27-5-49-29-50C55-147 81-57 75 0H25l-1-190h47c2 12-1 28 3 38 10-53 101-56 108 0 13-22 24-43 59-42 82 1 51 116 57 194h-49v-107c-1-25-5-48-29-50" id="af"/><g id="f"><use transform="matrix(0.08580246913580246,0,0,0.08580246913580246,0,0)" xlink:href="#ac"/><use transform="matrix(0.08580246913580246,0,0,0.08580246913580246,22.222839506172836,0)" xlink:href="#R"/><use transform="matrix(0.08580246913580246,0,0,0.08580246913580246,30.80308641975308,0)" xlink:href="#aa"/><use transform="matrix(0.08580246913580246,0,0,0.08580246913580246,47.963580246913565,0)" xlink:href="#ad"/><use transform="matrix(0.08580246913580246,0,0,0.08580246913580246,66.7543209876543,0)" xlink:href="#ae"/><use transform="matrix(0.08580246913580246,0,0,0.08580246913580246,78.76666666666664,0)" xlink:href="#aa"/><use transform="matrix(0.08580246913580246,0,0,0.08580246913580246,95.92716049382713,0)" xlink:href="#af"/></g><path fill="#b2b2b2" d="M63-220v92h138v28H63V0H30v-248h175v28H63" id="ag"/><path fill="#b2b2b2" d="M24-231v-30h32v30H24zM24 0v-190h32V0H24" id="ah"/><path fill="#b2b2b2" d="M117-194c89-4 53 116 60 194h-32v-121c0-31-8-49-39-48C34-167 62-67 57 0H25l-1-190h30c1 10-1 24 2 32 11-22 29-35 61-36" id="ai"/><path fill="#b2b2b2" d="M141-36C126-15 110 5 73 4 37 3 15-17 15-53c-1-64 63-63 125-63 3-35-9-54-41-54-24 1-41 7-42 31l-33-3c5-37 33-52 76-52 45 0 72 20 72 64v82c-1 20 7 32 28 27v20c-31 9-61-2-59-35zM48-53c0 20 12 33 32 33 41-3 63-29 60-74-43 2-92-5-92 41" id="aj"/><g id="g"><use transform="matrix(0.05005144032921811,0,0,0.05005144032921811,0,0)" xlink:href="#ag"/><use transform="matrix(0.05005144032921811,0,0,0.05005144032921811,10.961265432098765,0)" xlink:href="#ah"/><use transform="matrix(0.05005144032921811,0,0,0.05005144032921811,14.915329218106995,0)" xlink:href="#ai"/><use transform="matrix(0.05005144032921811,0,0,0.05005144032921811,24.925617283950615,0)" xlink:href="#aj"/></g><path fill="#b2b2b2" d="M185-189c-5-48-123-54-124 2 14 75 158 14 163 119 3 78-121 87-175 55-17-10-28-26-33-46l33-7c5 56 141 63 141-1 0-78-155-14-162-118-5-82 145-84 179-34 5 7 8 16 11 25" id="ak"/><path fill="#b2b2b2" d="M24 0v-261h32V0H24" id="al"/><path fill="#b2b2b2" d="M108 0H70L1-190h34L89-25l56-165h34" id="am"/><path fill="#b2b2b2" d="M16-82v-28h88v28H16" id="an"/><path fill="#b2b2b2" d="M59-47c-2 24 18 29 38 22v24C64 9 27 4 27-40v-127H5v-23h24l9-43h21v43h35v23H59v120" id="ao"/><path fill="#b2b2b2" d="M135-143c-3-34-86-38-87 0 15 53 115 12 119 90S17 21 10-45l28-5c4 36 97 45 98 0-10-56-113-15-118-90-4-57 82-63 122-42 12 7 21 19 24 35" id="ap"/><path fill="#b2b2b2" d="M100-194c63 0 86 42 84 106H49c0 40 14 67 53 68 26 1 43-12 49-29l28 8c-11 28-37 45-77 45C44 4 14-33 15-96c1-61 26-98 85-98zm52 81c6-60-76-77-97-28-3 7-6 17-6 28h103" id="aq"/><path fill="#b2b2b2" d="M115-194c53 0 69 39 70 98 0 66-23 100-70 100C84 3 66-7 56-30L54 0H23l1-261h32v101c10-23 28-34 59-34zm-8 174c40 0 45-34 45-75 0-40-5-75-45-74-42 0-51 32-51 76 0 43 10 73 51 73" id="ar"/><g id="h"><use transform="matrix(0.05005144032921811,0,0,0.05005144032921811,0,0)" xlink:href="#ak"/><use transform="matrix(0.05005144032921811,0,0,0.05005144032921811,12.012345679012345,0)" xlink:href="#ah"/><use transform="matrix(0.05005144032921811,0,0,0.05005144032921811,15.966409465020575,0)" xlink:href="#al"/><use transform="matrix(0.05005144032921811,0,0,0.05005144032921811,19.920473251028806,0)" xlink:href="#am"/><use transform="matrix(0.05005144032921811,0,0,0.05005144032921811,28.929732510288066,0)" xlink:href="#aj"/><use transform="matrix(0.05005144032921811,0,0,0.05005144032921811,38.94002057613169,0)" xlink:href="#an"/><use transform="matrix(0.05005144032921811,0,0,0.05005144032921811,44.896141975308645,0)" xlink:href="#ak"/><use transform="matrix(0.05005144032921811,0,0,0.05005144032921811,56.908487654320986,0)" xlink:href="#aj"/><use transform="matrix(0.05005144032921811,0,0,0.05005144032921811,66.91877572016462,0)" xlink:href="#ai"/><use transform="matrix(0.05005144032921811,0,0,0.05005144032921811,76.92906378600824,0)" xlink:href="#ao"/><use transform="matrix(0.05005144032921811,0,0,0.05005144032921811,81.93420781893005,0)" xlink:href="#ah"/><use transform="matrix(0.05005144032921811,0,0,0.05005144032921811,85.88827160493828,0)" xlink:href="#ap"/><use transform="matrix(0.05005144032921811,0,0,0.05005144032921811,94.89753086419753,0)" xlink:href="#ao"/><use transform="matrix(0.05005144032921811,0,0,0.05005144032921811,99.90267489711934,0)" xlink:href="#aq"/><use transform="matrix(0.05005144032921811,0,0,0.05005144032921811,109.91296296296296,0)" xlink:href="#ar"/><use transform="matrix(0.05005144032921811,0,0,0.05005144032921811,119.92325102880659,0)" xlink:href="#aj"/><use transform="matrix(0.05005144032921811,0,0,0.05005144032921811,129.9335390946502,0)" xlink:href="#ai"/></g><path fill="#b2b2b2" d="M32 76v-337h29V76H32" id="as"/><use transform="matrix(0.05005144032921811,0,0,0.05005144032921811,0,0)" xlink:href="#as" id="i"/><path fill="#b2b2b2" d="M240 0l2-218c-23 76-54 145-80 218h-23L58-218 59 0H30v-248h44l77 211c21-75 51-140 76-211h43V0h-30" id="at"/><path fill="#b2b2b2" d="M114-163C36-179 61-72 57 0H25l-1-190h30c1 12-1 29 2 39 6-27 23-49 58-41v29" id="au"/><path fill="#b2b2b2" d="M96-169c-40 0-48 33-48 73s9 75 48 75c24 0 41-14 43-38l32 2c-6 37-31 61-74 61-59 0-76-41-82-99-10-93 101-131 147-64 4 7 5 14 7 22l-32 3c-4-21-16-35-41-35" id="av"/><path fill="#b2b2b2" d="M106-169C34-169 62-67 57 0H25v-261h32l-1 103c12-21 28-36 61-36 89 0 53 116 60 194h-32v-121c2-32-8-49-39-48" id="aw"/><g id="j"><use transform="matrix(0.05005144032921811,0,0,0.05005144032921811,0,0)" xlink:href="#at"/><use transform="matrix(0.05005144032921811,0,0,0.05005144032921811,14.965380658436214,0)" xlink:href="#aj"/><use transform="matrix(0.05005144032921811,0,0,0.05005144032921811,24.975668724279835,0)" xlink:href="#au"/><use transform="matrix(0.05005144032921811,0,0,0.05005144032921811,30.93179012345679,0)" xlink:href="#av"/><use transform="matrix(0.05005144032921811,0,0,0.05005144032921811,39.941049382716045,0)" xlink:href="#aw"/></g><path fill="#b2b2b2" d="M99-251c64 0 84 50 84 122C183-37 130 33 47-8c-14-7-20-23-25-40l30-5c6 39 69 39 84 7 9-19 16-44 16-74-10 22-31 35-62 35-49 0-73-33-73-83 0-54 28-83 82-83zm-1 141c31-1 51-18 51-49 0-36-14-67-51-67-34 0-49 23-49 58 0 34 15 58 49 58" id="ax"/><path fill="#b2b2b2" d="M68-38c1 34 0 65-14 84H32c9-13 17-26 17-46H33v-38h35" id="ay"/><g id="k"><use transform="matrix(0.05005144032921811,0,0,0.05005144032921811,0,0)" xlink:href="#ax"/><use transform="matrix(0.05005144032921811,0,0,0.05005144032921811,10.010288065843621,0)" xlink:href="#ay"/></g><path fill="#b2b2b2" d="M101-251c82-7 93 87 43 132L82-64C71-53 59-42 53-27h129V0H18c2-99 128-94 128-182 0-28-16-43-45-43s-46 15-49 41l-32-3c6-41 34-60 81-64" id="az"/><path fill="#b2b2b2" d="M101-251c68 0 85 55 85 127S166 4 100 4C33 4 14-52 14-124c0-73 17-127 87-127zm-1 229c47 0 54-49 54-102s-4-102-53-102c-51 0-55 48-55 102 0 53 5 102 54 102" id="aA"/><path fill="#b2b2b2" d="M27 0v-27h64v-190l-56 39v-29l58-41h29v221h61V0H27" id="aB"/><g id="l"><use transform="matrix(0.05005144032921811,0,0,0.05005144032921811,0,0)" xlink:href="#az"/><use transform="matrix(0.05005144032921811,0,0,0.05005144032921811,10.010288065843621,0)" xlink:href="#aA"/><use transform="matrix(0.05005144032921811,0,0,0.05005144032921811,20.020576131687243,0)" xlink:href="#aB"/><use transform="matrix(0.05005144032921811,0,0,0.05005144032921811,30.030864197530864,0)" xlink:href="#ax"/></g><path d="M197 0v-115H63V0H30v-248h33v105h134v-105h34V0h-34" id="aC"/><path d="M141-36C126-15 110 5 73 4 37 3 15-17 15-53c-1-64 63-63 125-63 3-35-9-54-41-54-24 1-41 7-42 31l-33-3c5-37 33-52 76-52 45 0 72 20 72 64v82c-1 20 7 32 28 27v20c-31 9-61-2-59-35zM48-53c0 20 12 33 32 33 41-3 63-29 60-74-43 2-92-5-92 41" id="aD"/><path d="M117-194c89-4 53 116 60 194h-32v-121c0-31-8-49-39-48C34-167 62-67 57 0H25l-1-190h30c1 10-1 24 2 32 11-22 29-35 61-36" id="aE"/><path d="M85-194c31 0 48 13 60 33l-1-100h32l1 261h-30c-2-10 0-23-3-31C134-8 116 4 85 4 32 4 16-35 15-94c0-66 23-100 70-100zm9 24c-40 0-46 34-46 75 0 40 6 74 45 74 42 0 51-32 51-76 0-42-9-74-50-73" id="aF"/><path d="M24 0v-261h32V0H24" id="aG"/><path d="M100-194c63 0 86 42 84 106H49c0 40 14 67 53 68 26 1 43-12 49-29l28 8c-11 28-37 45-77 45C44 4 14-33 15-96c1-61 26-98 85-98zm52 81c6-60-76-77-97-28-3 7-6 17-6 28h103" id="aH"/><path d="M114-163C36-179 61-72 57 0H25l-1-190h30c1 12-1 29 2 39 6-27 23-49 58-41v29" id="aI"/><path d="M-5 72V49h209v23H-5" id="aJ"/><path d="M205 0l-28-72H64L36 0H1l101-248h38L239 0h-34zm-38-99l-47-123c-12 45-31 82-46 123h93" id="aK"/><path d="M30-248c87 1 191-15 191 75 0 78-77 80-158 76V0H30v-248zm33 125c57 0 124 11 124-50 0-59-68-47-124-48v98" id="aL"/><path d="M33 0v-248h34V0H33" id="aM"/><g id="m"><use transform="matrix(0.05,0,0,0.05,0,0)" xlink:href="#aC"/><use transform="matrix(0.05,0,0,0.05,12.950000000000001,0)" xlink:href="#aD"/><use transform="matrix(0.05,0,0,0.05,22.950000000000003,0)" xlink:href="#aE"/><use transform="matrix(0.05,0,0,0.05,32.95,0)" xlink:href="#aF"/><use transform="matrix(0.05,0,0,0.05,42.95,0)" xlink:href="#aG"/><use transform="matrix(0.05,0,0,0.05,46.900000000000006,0)" xlink:href="#aH"/><use transform="matrix(0.05,0,0,0.05,56.900000000000006,0)" xlink:href="#aI"/><use transform="matrix(0.05,0,0,0.05,62.85,0)" xlink:href="#aJ"/><use transform="matrix(0.05,0,0,0.05,72.85000000000001,0)" xlink:href="#aK"/><use transform="matrix(0.05,0,0,0.05,84.85000000000001,0)" xlink:href="#aL"/><use transform="matrix(0.05,0,0,0.05,96.85000000000001,0)" xlink:href="#aM"/></g><path d="M127-220V0H93v-220H8v-28h204v28h-85" id="aN"/><g id="n"><use transform="matrix(0.05,0,0,0.05,0,0)" xlink:href="#aC"/><use transform="matrix(0.05,0,0,0.05,12.950000000000001,0)" xlink:href="#aD"/><use transform="matrix(0.05,0,0,0.05,22.950000000000003,0)" xlink:href="#aE"/><use transform="matrix(0.05,0,0,0.05,32.95,0)" xlink:href="#aF"/><use transform="matrix(0.05,0,0,0.05,42.95,0)" xlink:href="#aG"/><use transform="matrix(0.05,0,0,0.05,46.900000000000006,0)" xlink:href="#aH"/><use transform="matrix(0.05,0,0,0.05,56.900000000000006,0)" xlink:href="#aI"/><use transform="matrix(0.05,0,0,0.05,62.85,0)" xlink:href="#aJ"/><use transform="matrix(0.05,0,0,0.05,72.85000000000001,0)" xlink:href="#aC"/><use transform="matrix(0.05,0,0,0.05,85.80000000000001,0)" xlink:href="#aN"/><use transform="matrix(0.05,0,0,0.05,96.75000000000001,0)" xlink:href="#aN"/><use transform="matrix(0.05,0,0,0.05,107.7,0)" xlink:href="#aL"/></g><path d="M59-47c-2 24 18 29 38 22v24C64 9 27 4 27-40v-127H5v-23h24l9-43h21v43h35v23H59v120" id="aO"/><g id="o"><use transform="matrix(0.05,0,0,0.05,0,0)" xlink:href="#aC"/><use transform="matrix(0.05,0,0,0.05,12.950000000000001,0)" xlink:href="#aD"/><use transform="matrix(0.05,0,0,0.05,22.950000000000003,0)" xlink:href="#aE"/><use transform="matrix(0.05,0,0,0.05,32.95,0)" xlink:href="#aF"/><use transform="matrix(0.05,0,0,0.05,42.95,0)" xlink:href="#aG"/><use transform="matrix(0.05,0,0,0.05,46.900000000000006,0)" xlink:href="#aH"/><use transform="matrix(0.05,0,0,0.05,56.900000000000006,0)" xlink:href="#aI"/><use transform="matrix(0.05,0,0,0.05,62.85,0)" xlink:href="#aJ"/><use transform="matrix(0.05,0,0,0.05,72.85000000000001,0)" xlink:href="#aL"/><use transform="matrix(0.05,0,0,0.05,84.85000000000001,0)" xlink:href="#aD"/><use transform="matrix(0.05,0,0,0.05,94.85000000000001,0)" xlink:href="#aO"/><use transform="matrix(0.05,0,0,0.05,99.85000000000001,0)" xlink:href="#aO"/><use transform="matrix(0.05,0,0,0.05,104.85000000000001,0)" xlink:href="#aH"/><use transform="matrix(0.05,0,0,0.05,114.85000000000001,0)" xlink:href="#aI"/><use transform="matrix(0.05,0,0,0.05,120.80000000000001,0)" xlink:href="#aE"/></g><path d="M240 0l2-218c-23 76-54 145-80 218h-23L58-218 59 0H30v-248h44l77 211c21-75 51-140 76-211h43V0h-30" id="aP"/><path d="M24-231v-30h32v30H24zM24 0v-190h32V0H24" id="aQ"/><g id="p"><use transform="matrix(0.05,0,0,0.05,0,0)" xlink:href="#aC"/><use transform="matrix(0.05,0,0,0.05,12.950000000000001,0)" xlink:href="#aD"/><use transform="matrix(0.05,0,0,0.05,22.950000000000003,0)" xlink:href="#aE"/><use transform="matrix(0.05,0,0,0.05,32.95,0)" xlink:href="#aF"/><use transform="matrix(0.05,0,0,0.05,42.95,0)" xlink:href="#aG"/><use transform="matrix(0.05,0,0,0.05,46.900000000000006,0)" xlink:href="#aH"/><use transform="matrix(0.05,0,0,0.05,56.900000000000006,0)" xlink:href="#aI"/><use transform="matrix(0.05,0,0,0.05,62.85,0)" xlink:href="#aJ"/><use transform="matrix(0.05,0,0,0.05,72.85000000000001,0)" xlink:href="#aP"/><use transform="matrix(0.05,0,0,0.05,87.80000000000001,0)" xlink:href="#aQ"/><use transform="matrix(0.05,0,0,0.05,91.75000000000001,0)" xlink:href="#aE"/><use transform="matrix(0.05,0,0,0.05,101.75000000000001,0)" xlink:href="#aQ"/><use transform="matrix(0.05,0,0,0.05,105.7,0)" xlink:href="#aJ"/><use transform="matrix(0.05,0,0,0.05,115.7,0)" xlink:href="#aL"/><use transform="matrix(0.05,0,0,0.05,127.7,0)" xlink:href="#aD"/><use transform="matrix(0.05,0,0,0.05,137.70000000000002,0)" xlink:href="#aO"/><use transform="matrix(0.05,0,0,0.05,142.70000000000002,0)" xlink:href="#aO"/><use transform="matrix(0.05,0,0,0.05,147.70000000000002,0)" xlink:href="#aH"/><use transform="matrix(0.05,0,0,0.05,157.70000000000002,0)" xlink:href="#aI"/><use transform="matrix(0.05,0,0,0.05,163.65,0)" xlink:href="#aE"/></g><g id="q"><use transform="matrix(0.05,0,0,0.05,0,0)" xlink:href="#aP"/><use transform="matrix(0.05,0,0,0.05,14.950000000000001,0)" xlink:href="#aQ"/><use transform="matrix(0.05,0,0,0.05,18.900000000000002,0)" xlink:href="#aE"/><use transform="matrix(0.05,0,0,0.05,28.900000000000002,0)" xlink:href="#aQ"/></g><g id="r"><use transform="matrix(0.05,0,0,0.05,0,0)" xlink:href="#aL"/><use transform="matrix(0.05,0,0,0.05,12,0)" xlink:href="#aD"/><use transform="matrix(0.05,0,0,0.05,22,0)" xlink:href="#aO"/><use transform="matrix(0.05,0,0,0.05,27,0)" xlink:href="#aO"/><use transform="matrix(0.05,0,0,0.05,32,0)" xlink:href="#aH"/><use transform="matrix(0.05,0,0,0.05,42,0)" xlink:href="#aI"/><use transform="matrix(0.05,0,0,0.05,47.95,0)" xlink:href="#aE"/></g><g id="s"><use transform="matrix(0.05,0,0,0.05,0,0)" xlink:href="#aL"/><use transform="matrix(0.05,0,0,0.05,12,0)" xlink:href="#aD"/><use transform="matrix(0.05,0,0,0.05,22,0)" xlink:href="#aO"/><use transform="matrix(0.05,0,0,0.05,27,0)" xlink:href="#aO"/><use transform="matrix(0.05,0,0,0.05,32,0)" xlink:href="#aH"/><use transform="matrix(0.05,0,0,0.05,42,0)" xlink:href="#aI"/><use transform="matrix(0.05,0,0,0.05,47.95,0)" xlink:href="#aE"/></g><path d="M137-103V0h-34v-103L8-248h37l75 118 75-118h37" id="aR"/><g id="t"><use transform="matrix(0.05,0,0,0.05,0,0)" xlink:href="#aR"/><use transform="matrix(0.05,0,0,0.05,10.65,0)" xlink:href="#aD"/><use transform="matrix(0.05,0,0,0.05,20.65,0)" xlink:href="#aI"/><use transform="matrix(0.05,0,0,0.05,26.599999999999994,0)" xlink:href="#aE"/></g><path d="M190 0L58-211 59 0H30v-248h39L202-35l-2-213h31V0h-41" id="aS"/><path d="M135-143c-3-34-86-38-87 0 15 53 115 12 119 90S17 21 10-45l28-5c4 36 97 45 98 0-10-56-113-15-118-90-4-57 82-63 122-42 12 7 21 19 24 35" id="aT"/><g id="u"><use transform="matrix(0.05,0,0,0.05,0,0)" xlink:href="#aS"/><use transform="matrix(0.05,0,0,0.05,12.950000000000001,0)" xlink:href="#aH"/><use transform="matrix(0.05,0,0,0.05,22.950000000000003,0)" xlink:href="#aH"/><use transform="matrix(0.05,0,0,0.05,32.95,0)" xlink:href="#aF"/><use transform="matrix(0.05,0,0,0.05,42.95,0)" xlink:href="#aG"/><use transform="matrix(0.05,0,0,0.05,46.900000000000006,0)" xlink:href="#aH"/><use transform="matrix(0.05,0,0,0.05,56.900000000000006,0)" xlink:href="#aT"/></g><path d="M140-251c81 0 123 46 123 126C263-53 228-8 163 1c7 30 30 48 69 40v23c-55 16-95-15-103-61C56-3 17-48 17-125c0-80 42-126 123-126zm0 227c63 0 89-41 89-101s-29-99-89-99c-61 0-89 39-89 99S79-25 140-24" id="aU"/><path d="M84 4C-5 8 30-112 23-190h32v120c0 31 7 50 39 49 72-2 45-101 50-169h31l1 190h-30c-1-10 1-25-2-33-11 22-28 36-60 37" id="aV"/><g id="v"><use transform="matrix(0.05,0,0,0.05,0,0)" xlink:href="#aU"/><use transform="matrix(0.05,0,0,0.05,14,0)" xlink:href="#aV"/><use transform="matrix(0.05,0,0,0.05,24,0)" xlink:href="#aH"/><use transform="matrix(0.05,0,0,0.05,34,0)" xlink:href="#aV"/><use transform="matrix(0.05,0,0,0.05,44,0)" xlink:href="#aH"/></g><path d="M232-93c-1 65-40 97-104 97C67 4 28-28 28-90v-158h33c8 89-33 224 67 224 102 0 64-133 71-224h33v155" id="aW"/><g id="w"><use transform="matrix(0.05,0,0,0.05,0,0)" xlink:href="#aW"/><use transform="matrix(0.05,0,0,0.05,12.950000000000001,0)" xlink:href="#aT"/><use transform="matrix(0.05,0,0,0.05,21.950000000000003,0)" xlink:href="#aH"/><use transform="matrix(0.05,0,0,0.05,31.950000000000003,0)" xlink:href="#aI"/></g><path d="M30-248c118-7 216 8 213 122C240-48 200 0 122 0H30v-248zM63-27c89 8 146-16 146-99s-60-101-146-95v194" id="aX"/><path d="M160-131c35 5 61 23 61 61C221 17 115-2 30 0v-248c76 3 177-17 177 60 0 33-19 50-47 57zm-97-11c50-1 110 9 110-42 0-47-63-36-110-37v79zm0 115c55-2 124 14 124-45 0-56-70-42-124-44v89" id="aY"/><path d="M212-179c-10-28-35-45-73-45-59 0-87 40-87 99 0 60 29 101 89 101 43 0 62-24 78-52l27 14C228-24 195 4 139 4 59 4 22-46 18-125c-6-104 99-153 187-111 19 9 31 26 39 46" id="aZ"/><path d="M100-194c62-1 85 37 85 99 1 63-27 99-86 99S16-35 15-95c0-66 28-99 85-99zM99-20c44 1 53-31 53-75 0-43-8-75-51-75s-53 32-53 75 10 74 51 75" id="ba"/><path d="M96-169c-40 0-48 33-48 73s9 75 48 75c24 0 41-14 43-38l32 2c-6 37-31 61-74 61-59 0-76-41-82-99-10-93 101-131 147-64 4 7 5 14 7 22l-32 3c-4-21-16-35-41-35" id="bb"/><g id="x"><use transform="matrix(0.05,0,0,0.05,0,0)" xlink:href="#aC"/><use transform="matrix(0.05,0,0,0.05,12.950000000000001,0)" xlink:href="#aD"/><use transform="matrix(0.05,0,0,0.05,22.950000000000003,0)" xlink:href="#aE"/><use transform="matrix(0.05,0,0,0.05,32.95,0)" xlink:href="#aF"/><use transform="matrix(0.05,0,0,0.05,42.95,0)" xlink:href="#aG"/><use transform="matrix(0.05,0,0,0.05,46.900000000000006,0)" xlink:href="#aH"/><use transform="matrix(0.05,0,0,0.05,56.900000000000006,0)" xlink:href="#aI"/><use transform="matrix(0.05,0,0,0.05,62.85,0)" xlink:href="#aJ"/><use transform="matrix(0.05,0,0,0.05,72.85000000000001,0)" xlink:href="#aX"/><use transform="matrix(0.05,0,0,0.05,85.80000000000001,0)" xlink:href="#aY"/><use transform="matrix(0.05,0,0,0.05,97.80000000000001,0)" xlink:href="#aJ"/><use transform="matrix(0.05,0,0,0.05,107.80000000000001,0)" xlink:href="#aZ"/><use transform="matrix(0.05,0,0,0.05,120.75,0)" xlink:href="#ba"/><use transform="matrix(0.05,0,0,0.05,130.75,0)" xlink:href="#aE"/><use transform="matrix(0.05,0,0,0.05,140.75,0)" xlink:href="#aE"/><use transform="matrix(0.05,0,0,0.05,150.75,0)" xlink:href="#aH"/><use transform="matrix(0.05,0,0,0.05,160.75,0)" xlink:href="#bb"/><use transform="matrix(0.05,0,0,0.05,169.75,0)" xlink:href="#aO"/><use transform="matrix(0.05,0,0,0.05,174.75,0)" xlink:href="#aQ"/><use transform="matrix(0.05,0,0,0.05,178.7,0)" xlink:href="#ba"/><use transform="matrix(0.05,0,0,0.05,188.7,0)" xlink:href="#aE"/></g><path d="M27 0v-27h64v-190l-56 39v-29l58-41h29v221h61V0H27" id="bc"/><use transform="matrix(0.05,0,0,0.05,0,0)" xlink:href="#bc" id="y"/><path d="M101-251c68 0 85 55 85 127S166 4 100 4C33 4 14-52 14-124c0-73 17-127 87-127zm-1 229c47 0 54-49 54-102s-4-102-53-102c-51 0-55 48-55 102 0 53 5 102 54 102" id="bd"/><path d="M33 0v-38h34V0H33" id="be"/><path d="M80-196l47-18 7 23-49 13 32 44-20 13-27-46-27 45-21-12 33-44-49-13 8-23 47 19-2-53h23" id="bf"/><g id="z"><use transform="matrix(0.05,0,0,0.05,0,0)" xlink:href="#bd"/><use transform="matrix(0.05,0,0,0.05,10,0)" xlink:href="#be"/><use transform="matrix(0.05,0,0,0.05,15,0)" xlink:href="#be"/><use transform="matrix(0.05,0,0,0.05,20,0)" xlink:href="#bf"/></g><g id="A"><use transform="matrix(0.05,0,0,0.05,0,0)" xlink:href="#bd"/><use transform="matrix(0.05,0,0,0.05,10,0)" xlink:href="#be"/><use transform="matrix(0.05,0,0,0.05,15,0)" xlink:href="#be"/><use transform="matrix(0.05,0,0,0.05,20,0)" xlink:href="#bc"/></g><path d="M141 0L90-78 38 0H4l68-98-65-92h35l48 74 47-74h35l-64 92 68 98h-35" id="bg"/><path d="M24-231v-30h32v30H24zM-9 49c24 4 33-6 33-30v-209h32V24c2 40-23 58-65 49V49" id="bh"/><g id="B"><use transform="matrix(0.05,0,0,0.05,0,0)" xlink:href="#aM"/><use transform="matrix(0.05,0,0,0.05,5,0)" xlink:href="#aE"/><use transform="matrix(0.05,0,0,0.05,15,0)" xlink:href="#aF"/><use transform="matrix(0.05,0,0,0.05,25,0)" xlink:href="#aH"/><use transform="matrix(0.05,0,0,0.05,35,0)" xlink:href="#bg"/><use transform="matrix(0.05,0,0,0.05,44,0)" xlink:href="#be"/><use transform="matrix(0.05,0,0,0.05,49,0)" xlink:href="#bh"/><use transform="matrix(0.05,0,0,0.05,52.95,0)" xlink:href="#aT"/><use transform="matrix(0.05,0,0,0.05,61.95,0)" xlink:href="#bg"/></g><path d="M115-194c55 1 70 41 70 98S169 2 115 4C84 4 66-9 55-30l1 105H24l-1-265h31l2 30c10-21 28-34 59-34zm-8 174c40 0 45-34 45-75s-6-73-45-74c-42 0-51 32-51 76 0 43 10 73 51 73" id="bi"/><g id="C"><use transform="matrix(0.05,0,0,0.05,0,0)" xlink:href="#aK"/><use transform="matrix(0.05,0,0,0.05,12,0)" xlink:href="#bi"/><use transform="matrix(0.05,0,0,0.05,22,0)" xlink:href="#bi"/><use transform="matrix(0.05,0,0,0.05,32,0)" xlink:href="#be"/><use transform="matrix(0.05,0,0,0.05,37,0)" xlink:href="#bh"/><use transform="matrix(0.05,0,0,0.05,40.95,0)" xlink:href="#aT"/><use transform="matrix(0.05,0,0,0.05,49.95,0)" xlink:href="#bg"/></g><path d="M108 0H70L1-190h34L89-25l56-165h34" id="bj"/><g id="D"><use transform="matrix(0.05,0,0,0.05,0,0)" xlink:href="#aS"/><use transform="matrix(0.05,0,0,0.05,12.950000000000001,0)" xlink:href="#aD"/><use transform="matrix(0.05,0,0,0.05,22.950000000000003,0)" xlink:href="#bj"/><use transform="matrix(0.05,0,0,0.05,31.950000000000003,0)" xlink:href="#aY"/><use transform="matrix(0.05,0,0,0.05,43.95,0)" xlink:href="#aD"/><use transform="matrix(0.05,0,0,0.05,53.95,0)" xlink:href="#aI"/><use transform="matrix(0.05,0,0,0.05,58.900000000000006,0)" xlink:href="#be"/><use transform="matrix(0.05,0,0,0.05,63.900000000000006,0)" xlink:href="#bh"/><use transform="matrix(0.05,0,0,0.05,67.85000000000001,0)" xlink:href="#aT"/><use transform="matrix(0.05,0,0,0.05,76.85000000000001,0)" xlink:href="#bg"/></g><path d="M185-189c-5-48-123-54-124 2 14 75 158 14 163 119 3 78-121 87-175 55-17-10-28-26-33-46l33-7c5 56 141 63 141-1 0-78-155-14-162-118-5-82 145-84 179-34 5 7 8 16 11 25" id="bk"/><path d="M106-169C34-169 62-67 57 0H25v-261h32l-1 103c12-21 28-36 61-36 89 0 53 116 60 194h-32v-121c2-32-8-49-39-48" id="bl"/><path d="M233-177c-1 41-23 64-60 70L243 0h-38l-65-103H63V0H30v-248c88 3 205-21 203 71zM63-129c60-2 137 13 137-47 0-61-80-42-137-45v92" id="bm"/><g id="E"><use transform="matrix(0.05,0,0,0.05,0,0)" xlink:href="#bk"/><use transform="matrix(0.05,0,0,0.05,12,0)" xlink:href="#aH"/><use transform="matrix(0.05,0,0,0.05,22,0)" xlink:href="#aD"/><use transform="matrix(0.05,0,0,0.05,32,0)" xlink:href="#aI"/><use transform="matrix(0.05,0,0,0.05,37.95,0)" xlink:href="#bb"/><use transform="matrix(0.05,0,0,0.05,46.95,0)" xlink:href="#bl"/><use transform="matrix(0.05,0,0,0.05,56.95,0)" xlink:href="#bm"/><use transform="matrix(0.05,0,0,0.05,69.9,0)" xlink:href="#aH"/><use transform="matrix(0.05,0,0,0.05,79.9,0)" xlink:href="#aT"/><use transform="matrix(0.05,0,0,0.05,88.9,0)" xlink:href="#aV"/><use transform="matrix(0.05,0,0,0.05,98.9,0)" xlink:href="#aG"/><use transform="matrix(0.05,0,0,0.05,102.85000000000001,0)" xlink:href="#aO"/><use transform="matrix(0.05,0,0,0.05,107.85000000000001,0)" xlink:href="#aT"/><use transform="matrix(0.05,0,0,0.05,116.85000000000001,0)" xlink:href="#be"/><use transform="matrix(0.05,0,0,0.05,121.85000000000001,0)" xlink:href="#bh"/><use transform="matrix(0.05,0,0,0.05,125.80000000000001,0)" xlink:href="#aT"/><use transform="matrix(0.05,0,0,0.05,134.8,0)" xlink:href="#bg"/></g><path d="M177-190C167-65 218 103 67 71c-23-6-38-20-44-43l32-5c15 47 100 32 89-28v-30C133-14 115 1 83 1 29 1 15-40 15-95c0-56 16-97 71-98 29-1 48 16 59 35 1-10 0-23 2-32h30zM94-22c36 0 50-32 50-73 0-42-14-75-50-75-39 0-46 34-46 75s6 73 46 73" id="bn"/><path d="M63-220v92h138v28H63V0H30v-248h175v28H63" id="bo"/><path d="M210-169c-67 3-38 105-44 169h-31v-121c0-29-5-50-35-48C34-165 62-65 56 0H25l-1-190h30c1 10-1 24 2 32 10-44 99-50 107 0 11-21 27-35 58-36 85-2 47 119 55 194h-31v-121c0-29-5-49-35-48" id="bp"/><g id="F"><use transform="matrix(0.05,0,0,0.05,0,0)" xlink:href="#bm"/><use transform="matrix(0.05,0,0,0.05,12.950000000000001,0)" xlink:href="#aH"/><use transform="matrix(0.05,0,0,0.05,22.950000000000003,0)" xlink:href="#bn"/><use transform="matrix(0.05,0,0,0.05,32.95,0)" xlink:href="#aQ"/><use transform="matrix(0.05,0,0,0.05,36.900000000000006,0)" xlink:href="#aT"/><use transform="matrix(0.05,0,0,0.05,45.900000000000006,0)" xlink:href="#aO"/><use transform="matrix(0.05,0,0,0.05,50.900000000000006,0)" xlink:href="#aH"/><use transform="matrix(0.05,0,0,0.05,60.900000000000006,0)" xlink:href="#aI"/><use transform="matrix(0.05,0,0,0.05,66.85000000000001,0)" xlink:href="#bo"/><use transform="matrix(0.05,0,0,0.05,77.80000000000001,0)" xlink:href="#ba"/><use transform="matrix(0.05,0,0,0.05,87.80000000000001,0)" xlink:href="#aI"/><use transform="matrix(0.05,0,0,0.05,93.75000000000001,0)" xlink:href="#bp"/><use transform="matrix(0.05,0,0,0.05,108.7,0)" xlink:href="#be"/><use transform="matrix(0.05,0,0,0.05,113.7,0)" xlink:href="#bh"/><use transform="matrix(0.05,0,0,0.05,117.65000000000003,0)" xlink:href="#aT"/><use transform="matrix(0.05,0,0,0.05,126.65000000000003,0)" xlink:href="#bg"/></g><path d="M137 0h-34L2-248h35l83 218 83-218h36" id="bq"/><path d="M206 0h-36l-40-164L89 0H53L-1-190h32L70-26l43-164h34l41 164 42-164h31" id="br"/><g id="G"><use transform="matrix(0.05,0,0,0.05,0,0)" xlink:href="#aX"/><use transform="matrix(0.05,0,0,0.05,12.950000000000001,0)" xlink:href="#aH"/><use transform="matrix(0.05,0,0,0.05,22.950000000000003,0)" xlink:href="#aO"/><use transform="matrix(0.05,0,0,0.05,27.950000000000003,0)" xlink:href="#aD"/><use transform="matrix(0.05,0,0,0.05,37.95,0)" xlink:href="#aQ"/><use transform="matrix(0.05,0,0,0.05,41.900000000000006,0)" xlink:href="#aG"/><use transform="matrix(0.05,0,0,0.05,45.85000000000001,0)" xlink:href="#aH"/><use transform="matrix(0.05,0,0,0.05,55.85,0)" xlink:href="#aF"/><use transform="matrix(0.05,0,0,0.05,65.85000000000001,0)" xlink:href="#bq"/><use transform="matrix(0.05,0,0,0.05,77.50000000000001,0)" xlink:href="#aQ"/><use transform="matrix(0.05,0,0,0.05,81.45000000000002,0)" xlink:href="#aH"/><use transform="matrix(0.05,0,0,0.05,91.45000000000002,0)" xlink:href="#br"/><use transform="matrix(0.05,0,0,0.05,103.40000000000003,0)" xlink:href="#be"/><use transform="matrix(0.05,0,0,0.05,108.40000000000003,0)" xlink:href="#bh"/><use transform="matrix(0.05,0,0,0.05,112.35000000000002,0)" xlink:href="#aT"/><use transform="matrix(0.05,0,0,0.05,121.35000000000002,0)" xlink:href="#bg"/></g><path d="M179-190L93 31C79 59 56 82 12 73V49c39 6 53-20 64-50L1-190h34L92-34l54-156h33" id="bs"/><g id="H"><use transform="matrix(0.05,0,0,0.05,0,0)" xlink:href="#bk"/><use transform="matrix(0.05,0,0,0.05,12,0)" xlink:href="#aH"/><use transform="matrix(0.05,0,0,0.05,22,0)" xlink:href="#aI"/><use transform="matrix(0.05,0,0,0.05,27.950000000000003,0)" xlink:href="#bj"/><use transform="matrix(0.05,0,0,0.05,36.95,0)" xlink:href="#aH"/><use transform="matrix(0.05,0,0,0.05,46.95,0)" xlink:href="#aI"/><use transform="matrix(0.05,0,0,0.05,51.900000000000006,0)" xlink:href="#be"/><use transform="matrix(0.05,0,0,0.05,56.900000000000006,0)" xlink:href="#bi"/><use transform="matrix(0.05,0,0,0.05,66.9,0)" xlink:href="#bs"/></g><path d="M230 0l2-204L168 0h-37L68-204 70 0H24v-248h70l56 185 57-185h69V0h-46" id="bt"/><path d="M140-251c80 0 125 45 125 126S219 4 139 4C58 4 15-44 15-125s44-126 125-126zm-1 214c52 0 73-35 73-88 0-50-21-86-72-86-52 0-73 35-73 86s22 88 72 88" id="bu"/><path d="M24-248c120-7 223 5 221 122C244-46 201 0 124 0H24v-248zM76-40c74 7 117-18 117-86 0-67-45-88-117-82v168" id="bv"/><path d="M24 0v-248h195v40H76v63h132v40H76v65h150V0H24" id="bw"/><path d="M24 0v-248h52v208h133V0H24" id="bx"/><g id="I"><use transform="matrix(0.08580246913580246,0,0,0.08580246913580246,0,0)" xlink:href="#bt"/><use transform="matrix(0.08580246913580246,0,0,0.08580246913580246,25.654938271604934,0)" xlink:href="#bu"/><use transform="matrix(0.08580246913580246,0,0,0.08580246913580246,49.67962962962962,0)" xlink:href="#bv"/><use transform="matrix(0.08580246913580246,0,0,0.08580246913580246,71.90246913580246,0)" xlink:href="#bw"/><use transform="matrix(0.08580246913580246,0,0,0.08580246913580246,92.49506172839504,0)" xlink:href="#bx"/></g><path d="M67-125c0 53 21 87 73 88 37 1 54-22 65-47l45 17C233-25 199 4 140 4 58 4 20-42 15-125 8-235 124-281 211-232c18 10 29 29 36 50l-46 12c-8-25-30-41-62-41-52 0-71 34-72 86" id="by"/><path d="M175 0L67-191c6 58 2 128 3 191H24v-248h59L193-55c-6-58-2-129-3-193h46V0h-61" id="bz"/><path d="M136-208V0H84v-208H4v-40h212v40h-80" id="bA"/><path d="M240-174c0 40-23 61-54 70L253 0h-59l-57-94H76V0H24v-248c93 4 217-23 216 74zM76-134c48-2 112 12 112-38 0-48-66-32-112-35v73" id="bB"/><g id="J"><use transform="matrix(0.08580246913580246,0,0,0.08580246913580246,0,0)" xlink:href="#by"/><use transform="matrix(0.08580246913580246,0,0,0.08580246913580246,22.222839506172836,0)" xlink:href="#bu"/><use transform="matrix(0.08580246913580246,0,0,0.08580246913580246,46.24753086419752,0)" xlink:href="#bz"/><use transform="matrix(0.08580246913580246,0,0,0.08580246913580246,68.47037037037036,0)" xlink:href="#bA"/><use transform="matrix(0.08580246913580246,0,0,0.08580246913580246,87.26111111111109,0)" xlink:href="#bB"/><use transform="matrix(0.08580246913580246,0,0,0.08580246913580246,109.48395061728392,0)" xlink:href="#bu"/><use transform="matrix(0.08580246913580246,0,0,0.08580246913580246,133.50864197530862,0)" xlink:href="#bx"/><use transform="matrix(0.08580246913580246,0,0,0.08580246913580246,152.29938271604937,0)" xlink:href="#bx"/><use transform="matrix(0.08580246913580246,0,0,0.08580246913580246,171.0901234567901,0)" xlink:href="#bw"/><use transform="matrix(0.08580246913580246,0,0,0.08580246913580246,191.6827160493827,0)" xlink:href="#bB"/></g><path d="M147 0H94L2-248h55l64 206c17-72 42-137 63-206h54" id="bC"/><path d="M24 0v-248h52V0H24" id="bD"/><path d="M275 0h-61l-44-196L126 0H64L0-248h53L97-49l45-199h58l43 199 44-199h52" id="bE"/><g id="K"><use transform="matrix(0.08580246913580246,0,0,0.08580246913580246,0,0)" xlink:href="#bC"/><use transform="matrix(0.08580246913580246,0,0,0.08580246913580246,20.59259259259259,0)" xlink:href="#bD"/><use transform="matrix(0.08580246913580246,0,0,0.08580246913580246,29.172839506172835,0)" xlink:href="#bw"/><use transform="matrix(0.08580246913580246,0,0,0.08580246913580246,49.76543209876542,0)" xlink:href="#bE"/></g><path d="M169-182c-1-43-94-46-97-3 18 66 151 10 154 114 3 95-165 93-204 36-6-8-10-19-12-30l50-8c3 46 112 56 116 5-17-69-150-10-154-114-4-87 153-88 188-35 5 8 8 18 10 28" id="bF"/><g id="L"><use transform="matrix(0.08580246913580246,0,0,0.08580246913580246,0,0)" xlink:href="#bF"/><use transform="matrix(0.08580246913580246,0,0,0.08580246913580246,20.59259259259259,0)" xlink:href="#bw"/><use transform="matrix(0.08580246913580246,0,0,0.08580246913580246,41.18518518518518,0)" xlink:href="#bB"/><use transform="matrix(0.08580246913580246,0,0,0.08580246913580246,62.8074074074074,0)" xlink:href="#bC"/><use transform="matrix(0.08580246913580246,0,0,0.08580246913580246,83.39999999999999,0)" xlink:href="#bw"/><use transform="matrix(0.08580246913580246,0,0,0.08580246913580246,103.99259259259259,0)" xlink:href="#bB"/></g><g id="M"><use transform="matrix(0.08580246913580246,0,0,0.08580246913580246,0,0)" xlink:href="#bu"/><use transform="matrix(0.08580246913580246,0,0,0.08580246913580246,24.02469135802469,0)" xlink:href="#bB"/><use transform="matrix(0.08580246913580246,0,0,0.08580246913580246,46.24753086419752,0)" xlink:href="#bt"/></g><path d="M199 0l-22-63H83L61 0H9l90-248h61L250 0h-51zm-33-102l-36-108c-10 38-24 72-36 108h72" id="bG"/><path d="M24-248c93 1 206-16 204 79-1 75-69 88-152 82V0H24v-248zm52 121c47 0 100 7 100-41 0-47-54-39-100-39v80" id="bH"/><g id="N"><use transform="matrix(0.08580246913580246,0,0,0.08580246913580246,0,0)" xlink:href="#bt"/><use transform="matrix(0.08580246913580246,0,0,0.08580246913580246,25.654938271604934,0)" xlink:href="#bG"/><use transform="matrix(0.08580246913580246,0,0,0.08580246913580246,47.877777777777766,0)" xlink:href="#bH"/><use transform="matrix(0.08580246913580246,0,0,0.08580246913580246,68.47037037037036,0)" xlink:href="#bH"/><use transform="matrix(0.08580246913580246,0,0,0.08580246913580246,89.06296296296296,0)" xlink:href="#bw"/><use transform="matrix(0.08580246913580246,0,0,0.08580246913580246,109.65555555555554,0)" xlink:href="#bB"/></g></defs></g></svg>